<svg id="svg1948" xmlns="http://www.w3.org/2000/svg" xmlns:xlink="http://www.w3.org/1999/xlink" viewBox="0 0 2290.79 2186.79"><defs><style>.cls-1{fill:#192061;}.cls-1,.cls-2,.cls-3{stroke:#a6aea4;}.cls-1,.cls-2{stroke-miterlimit:10;}.cls-2,.cls-3,.cls-4{fill:none;}.cls-3,.cls-4{stroke-linecap:round;stroke-linejoin:round;stroke-width:12px;}.cls-4{stroke:#192061;}.cls-5{font-size:60px;fill:#424a50;font-family:Oswald-Regular, Oswald;}.cls-6{letter-spacing:0em;}</style><symbol id="Pfeil_3" data-name="Pfeil 3" viewBox="0 0 51.6 44.96"><path class="cls-1" d="M39.55,8h0a5.29,5.29,0,0,0,5.54,7.36h0c5.85-.84,8.44,7.34,3.11,9.83L7.94,44c-5,2.34-9.8-4-6.16-8.17L31,2.26C34.81-2.18,42,2.56,39.55,8Z"/><path class="cls-2" d="M39.55,8h0a5.29,5.29,0,0,0,5.54,7.36h0c5.85-.84,8.44,7.34,3.11,9.83L7.94,44c-5,2.34-9.8-4-6.16-8.17L31,2.26C34.81-2.18,42,2.56,39.55,8Z"/></symbol></defs><title>europe-map</title><path class="cls-3" d="M227.79,961.79c0,1.24.67,2,1.76,2a4.24,4.24,0,0,0,3-2c1.15-1.83,1-2-1.76-2C228.45,959.79,227.79,960.23,227.79,961.79Z"/><path class="cls-3" d="M67.79,275.79c1.87,0,2.13-.27,1.2-1.2s-1.47-.93-2.4,0S65.92,275.79,67.79,275.79Z"/><path class="cls-3" d="M57.79,308.55a4.74,4.74,0,0,1,2,4,4.74,4.74,0,0,0,2,4,4.74,4.74,0,0,1,2,4,4.74,4.74,0,0,0,2,4,4.74,4.74,0,0,1,2,4,4.74,4.74,0,0,0,2,4,4.76,4.76,0,0,1,2,3.77c0,1.66,1.36,3.78,4,6.2,2.2,2,4,4.32,4,5.11,0,2-6.17,8.12-8.26,8.14-1.51,0-1.58.3-.51,2a4.74,4.74,0,0,0,4,2,4.74,4.74,0,0,1,4,2,4.11,4.11,0,0,0,2.77,2,4.11,4.11,0,0,0,2.77-2,4.16,4.16,0,0,1,3-2c2.68,0,12.24,10.26,12.24,13.1a4.78,4.78,0,0,0,2,3.65,4.79,4.79,0,0,1,2,4.24c0,2.61.36,3,2.79,3,2,0,3.86,1.17,6.47,4,2.42,2.64,4.54,4,6.2,4a4.75,4.75,0,0,1,3.77,2c1,1.54,2.33,2,6,2s5,.46,6,2,2.33,2,5,2c3.4,0,3.76-.25,3.76-2.64,0-3,5.54-9.33,8.24-9.35a4.19,4.19,0,0,1,3,2c1.15,1.84,2.33,2,14.49,2h13.24l5.77-6c5.37-5.58,6.08-6,10.28-6,3.42,0,4.81-.49,5.76-2a3.61,3.61,0,0,1,6.46,0c.69,1.1,1.79,2,2.45,2s4.75-3.6,9.08-8c7.62-7.74,8-8,12.56-8h4.68v-5c0-3.91.43-5.26,2-6.24,1.38-.86,2-2.33,2-4.77s-.62-3.9-2-4.77a4.75,4.75,0,0,1-2-3.77c0-1.66-1.36-3.78-4-6.2s-4-4.53-4-6.23a4.75,4.75,0,0,0-2-3.8c-3-1.89-2.43-4.42,2-8.49,3.22-3,4-4.37,4-7.21,0-3.15-.28-3.53-2.65-3.53-2,0-4.57-1.92-10-7.35-7.39-7.39-8.37-9.22-6.15-11.44.93-.93.93-1.47,0-2.4a4.88,4.88,0,0,1-1.2-3c0-1.56-.28-1.64-2-.56-1.51.94-2,2.33-2,5.65,0,3.61-.58,5-3.25,7.75-3.94,4.06-9.88,4.74-12,1.37a2.92,2.92,0,0,0-5.54,0c-1.89,3-4.42,2.43-8.49-2-2-2.2-4-4-4.41-4s-.19.54.47,1.2c1.55,1.55,1.55,8,0,9.6-.66.66-2.82,1.2-4.8,1.2-4.25,0-6-1.45-6-5a4.75,4.75,0,0,0-2-3.81c-1.48-.93-2-2.33-2-5.44,0-3.26-.27-3.92-1.2-3-.66.66-3.15,1.2-5.53,1.2-3.77,0-4.8.52-8,4-2,2.2-4.39,4-5.27,4-2.34,0-4-2.05-4-5a4.75,4.75,0,0,0-2-3.81c-1.75-1.09-2-1-2,.75a4.42,4.42,0,0,1-2,3.25,4.75,4.75,0,0,0-2,3.81c0,3.73-1.79,5-7.2,5-4.52,0-4.8.15-4.8,2.64,0,4.09-5.63,9.33-10,9.35-5.51,0-6-1-6-14.18,0-10.71.18-11.91,2-13a4.74,4.74,0,0,0,2-4,4.74,4.74,0,0,1,2-4c2.76-1.72,2.76-7.81,0-9.54a4.75,4.75,0,0,1-2-3.77c0-1.66-1.36-3.78-4-6.2-2.2-2-4-4.57-4-5.67,0-1.43-.31-1.69-1.08-.91s-.71,1.68.24,3.2c1.1,1.76,1.1,2.48,0,4.24-.95,1.52-1,2.42-.24,3.2,1.47,1.47,1.38,12-.12,13.48-2.15,2.15-4.21,1.24-9.55-4.18-3.66-3.72-5.25-6.14-5.25-8s-.51-2.64-2-2.64-2,.67-2,2.8a6.65,6.65,0,0,1-1.2,4c-.93.93-.93,1.47,0,2.4,1.55,1.55,1.55,8,0,9.6-.93.93-.71,1.2,1,1.2a4.58,4.58,0,0,1,3.44,2,4.88,4.88,0,0,0,3.76,2c2.73,0,13,9.58,13,12.09,0,.77-1.43,2.74-3.18,4.39-2.82,2.66-3,3-1.25,3.35,5.31,1,5.71,4.38,1.06,8.89-3.85,3.74-6.09,4.09-7.87,1.25-1.14-1.83-2.33-2-14-2s-12.86-.17-14-2a4.24,4.24,0,0,0-3-2C55.14,303.79,55.3,307,57.79,308.55Z"/><path class="cls-4" d="M583.88,1016.87c-2.26,2-3.86,2.9-5.1,2.91a4.78,4.78,0,0,0-3.76,2,4.78,4.78,0,0,1-3.7,2,8.72,8.72,0,0,0-5,2.55c-2.49,2.49-2.54,2.86-2.54,16.8,0,15.41-.39,16.65-5.2,16.65-2.36,0-2.8.42-2.8,2.64,0,1.63-1.25,3.93-3.25,6-2.73,2.81-4,3.35-7.76,3.36-3.42,0-4.81.49-5.76,2s-2.33,2-5.66,2c-3.91,0-4.94.52-9,4.58-5.1,5.1-5.5,6.37-2.58,8.19"/><path class="cls-4" d="M633.79,967c-3.53,2.2-2.66,7.23,2,11.51,2.2,2,4,4.32,4,5.11,0,2.3-6.28,8.12-8.78,8.14-1.37,0-3.75,1.6-6,4l-3.68,4H604.72l-3.68,4c-2.22,2.41-4.58,4-6,4s-4.31,2.12-8,6c-1.19,1.23-2.24,2.26-3.18,3.09"/><path class="cls-3" d="M823,852c-2.7.24-3.36.74-4,1.78-1,1.62-2.33,2-7,2-5.09,0-6.07-.34-8.58-3-3-3.18-4.16-3.62-5.16-2-.34.55-2.39,1-4.55,1-2.85,0-4.28-.55-5.18-2a4.79,4.79,0,0,0-3.65-2c-3.13,0-13.07-9.64-13.1-12.71,0-2.88-4.49-7.29-7.37-7.29-4.18,0-4.65-1.62-4.65-16V798.2l4-3.68c2.64-2.43,4-4.54,4-6.2a4.75,4.75,0,0,1,2-3.77,4.74,4.74,0,0,0,2-4,4.74,4.74,0,0,1,2-4,4.74,4.74,0,0,0,2-4,4.74,4.74,0,0,1,2-4,4.74,4.74,0,0,0,2-4,4.74,4.74,0,0,1,2-4,4.75,4.75,0,0,0,2-3.81A6.17,6.17,0,0,1,785,753c.93-.93-.1-1.2-4.64-1.2-5.7,0-6-.13-11.18-5.25-5.74-5.64-6.54-8-3.38-10,1.8-1.12,2-2.33,2-12s.2-10.88,2-12c2.83-1.77,2.76-7.81-.12-9.61-1.52-.95-2.42-1-3.2-.24a5.46,5.46,0,0,1-3.34,1.08c-2.84,0-7.34,4.41-7.34,7.19,0,3.05-14,16.81-17.12,16.81a4.79,4.79,0,0,0-3.65,2,4.78,4.78,0,0,1-4.24,2c-2.66,0-3,.34-3,3a4.79,4.79,0,0,1-2,4.24c-1.81,1.13-2,2.33-2,12.77s.19,11.64,2,12.77a4.74,4.74,0,0,1,2,4,4.74,4.74,0,0,0,2,4c1.54,1,2,2.33,2,6s.46,5,2,6,2,2.33,2,6,.46,5,2,6,2,2.33,2,6,.46,5,2,6c1.86,1.16,2,2.33,2,16.24v15h2.64c1.63,0,3.93,1.25,6,3.25,3.53,3.43,4.15,5.57,2.17,7.55-.93.93-.93,1.47,0,2.4a6.17,6.17,0,0,1,1.2,3.76,4.75,4.75,0,0,0,2,3.81c2.11,1.32,2.69,4.68,1,5.73s-1.18,2.16,2,5.16c5.57,5.25,3.48,8.34-5.66,8.34-5.37,0-6.62.36-8.8,2.54-3.22,3.22-3.47,8.4-.5,10.25,1.76,1.1,2,2.13,1.75,7.39-.22,4.51-.75,6.4-2,7.21-2.28,1.43-5-.21-5.77-3.48-.38-1.63-.81-2-1.33-1.16-1,1.59-7.87,1.62-9.45,0-.66-.66-1.2-3.36-1.2-6v-4.8h-24v6.8c0,4-.5,7.3-1.2,8a3.79,3.79,0,0,1-6-.8c-1.6-2.56-3.94-2.56-5.54,0a4.74,4.74,0,0,1-4,2,4.74,4.74,0,0,0-4,2,3.79,3.79,0,0,1-6,.8c-.93-.93-1.47-.93-2.4,0-.66.66-3.36,1.2-6,1.2-4.54,0-4.8.15-4.8,2.67,0,2.06-2.29,4.94-10,12.57-9.67,9.57-10,10-10,14.32,0,3.34-.49,4.73-2,5.67a4.74,4.74,0,0,0-2,4,4.74,4.74,0,0,1-2,4c-1.54,1-2,2.33-2,6a16.71,16.71,0,0,1-.26,3.41"/><path class="cls-4" d="M903,853.71c1.74,2.79,0,5.47-3.75,5.91a6.74,6.74,0,0,0-4.21,2.25c-2,2.84-12.67,2.77-14.46-.09a4.74,4.74,0,0,0-4-2,4.74,4.74,0,0,1-4-2c-1.12-1.8-2.33-2-12-2s-10.88-.2-12-2-2.33-2-14.77-2c-5.41,0-8.69,0-10.76.22"/><path class="cls-3" d="M1310,10.63a6.73,6.73,0,0,0-2.25,4.21c0,3.09-5.88,8.92-9,8.94a4.81,4.81,0,0,0-3.76,2c-1.75,2.81-8.71,2.81-10.46,0a4.74,4.74,0,0,0-4-2,4.74,4.74,0,0,1-4-2c-1.6-2.56-3.94-2.56-5.54,0a3.68,3.68,0,0,1-6.46,0c-1.83-2.93-7-2.65-10.22.55-2,2-2.54,3.55-2.54,7.2s.27,4.39,1.2,3.45c2-2,8.6-1.49,10,.8a4.81,4.81,0,0,0,3.76,2c3.22,0,9,5.86,9,9.1a4.79,4.79,0,0,0,2,3.65c1.54,1,2,2.33,2,6s.46,5,2,6c2.93,1.83,2.93,12.63,0,14.46a4.75,4.75,0,0,0-2,3.81c0,4.81-4.84,6.79-7.23,3-1.72-2.76-7.81-2.76-9.54,0-.94,1.51-2.33,2-5.7,2s-5,.58-7,2.55c-3.19,3.19-3.47,8.39-.54,10.22,1.63,1,2,2.33,2,7,0,5.47-.22,6-4,9.46-2.64,2.42-4,4.54-4,6.2a4.76,4.76,0,0,1-2,3.77c-1.68,1-2,2.33-2,8s-.32,7-2,8-2,2.33-2,7v5.76h7c5.91,0,7.18.31,8.24,2s2.33,2,8,2,7,.32,8,2a4.74,4.74,0,0,0,4,2,4.74,4.74,0,0,1,4,2c.86,1.38,2.33,2,4.77,2s3.9-.62,4.77-2a4.74,4.74,0,0,1,4-2,4.74,4.74,0,0,0,4-2,3.68,3.68,0,0,1,6.46,0,4.81,4.81,0,0,0,3.76,2c2.72,0,9,5.69,9,8.15,0,2.2-2.12,3.84-5,3.84a4.75,4.75,0,0,0-3.81,2c-1,1.54-2.33,2-6,2s-5,.46-6,2c-1.75,2.81-8.71,2.81-10.46,0s-7.81-2.76-9.54,0c-1,1.57-2.33,2-6.24,2-4.8,0-5,.11-5,2.8,0,4.45-1.59,5.2-11,5.2-7.48,0-8.72.25-9.81,2a4.78,4.78,0,0,1-4.24,2c-2.61,0-3,.36-3,2.8,0,3.11-1.59,5.2-4,5.2-.85,0-4.15-2.7-7.32-6l-5.77-6h-6.68c-5.2,0-6.41.27-5.48,1.2,1.49,1.49,1.58,8,.12,9.48-.78.78-.71,1.68.24,3.2,1,1.67,2.32,2.12,6.07,2.12s5,.46,6,2c1.6,2.56,3.94,2.56,5.54,0,1.08-1.72,2.33-2,9-2,8.34,0,10.19.86,10.19,4.73,0,1.44,1.53,3.74,4,6,3.24,3,4,4.36,4,7.26s-.76,4.28-4,7.26c-2.47,2.27-4,4.57-4,6,0,4.28-1.56,4.73-16.19,4.73-12.71,0-13.89-.16-15-2a4.74,4.74,0,0,0-4-2,4.74,4.74,0,0,1-4-2c-.69-1.1-1.59-2-2-2s-.2.9.48,2c1.93,3.09-.12,5.44-5,5.8-3.26.24-4.37-.12-5.39-1.75a4.73,4.73,0,0,0-4-2.06,4.74,4.74,0,0,1-4-2,4.81,4.81,0,0,0-3.76-2c-3.05,0-9-5.81-9-8.78,0-1.3-3.73-5.76-10-12l-10-9.9V183.79h-3a4.78,4.78,0,0,1-4.24-2c-1-1.54-2.33-2-6-2s-5-.46-6-2-2.33-2-8-2-7-.32-8-2a4.74,4.74,0,0,0-4-2,4.74,4.74,0,0,1-4-2,4.74,4.74,0,0,0-4-2,4.74,4.74,0,0,1-4-2,4.75,4.75,0,0,0-3.8-2c-1.69,0-3.77-1.33-6.16-3.92-2.16-2.35-4.71-4.06-6.36-4.25-3.5-.41-5.37-3.14-3.84-5.58.91-1.44,2.87-1.8,11.21-2,9.25-.26,10.22-.11,11.38,1.75,1,1.63,2.32,2,6.56,2,4.89,0,5.57-.3,9-4,4.07-4.43,6.6-5,8.49-2,1.6,2.56,3.94,2.56,5.54,0,1.09-1.75,2.33-2,10-2s8.91-.25,10-2,2.33-2,16-2,14.84-.15,16-2c1.06-1.69,2.33-2,8.24-2,6.89,0,7,0,7-2.64,0-3.29,5.63-9.33,8.7-9.35s7.3-4.51,7.3-7.55a4.78,4.78,0,0,1,2-3.69,4.74,4.74,0,0,0,2-4,4.74,4.74,0,0,1,2-4c1.84-1.15,2-2.33,2-14.77s-.16-13.62-2-14.77a4.77,4.77,0,0,1-2-3.69c0-3-4.35-7.54-7.3-7.54-1.38,0-4.36-2.24-8-6-3.17-3.3-6.33-6-7-6a4,4,0,0,0-2.49,2,3.68,3.68,0,0,1-6.46,0,4.74,4.74,0,0,0-4-2,4.74,4.74,0,0,1-4-2c-1.6-2.56-3.94-2.56-5.54,0-1.11,1.78-2.33,2-11.23,2s-10.12-.22-11.23-2-2.33-2-16-2-14.84-.15-16-2-2.33-2-20.77-2-19.59.11-20.77,2a4.74,4.74,0,0,1-4,2,4.74,4.74,0,0,0-4,2c-.95,1.52-2.33,2-5.72,2-4.16,0-4.88.42-10.24,6-7.91,8.22-11.27,7.87-11.27-1.2,0-3.91-.33-4.8-1.76-4.8a4.24,4.24,0,0,0-3,2c-1.08,1.72-2.33,2-9,2-8.56,0-10.19-.83-10.19-5.2,0-2.13-.48-2.8-2-2.8s-2,.67-2,2.8c0,4.61-1.47,5.2-13,5.2-9.48,0-10.69.21-11.81,2-1.83,2.93-12.63,2.93-14.46,0a4.75,4.75,0,0,0-3.81-2c-3.51,0-5-1.75-5-6,0-4.68,1.46-6,6.65-6,5,0,9.35-3.53,9.35-7.54a4.78,4.78,0,0,1,2-3.69c3.16-2,2.57-4.77-1-4.77a4.78,4.78,0,0,1-4.24-2,4.74,4.74,0,0,0-4-2,4.74,4.74,0,0,1-4-2c-1.6-2.56-3.94-2.56-5.54,0a3.68,3.68,0,0,1-6.46,0c-1.66-2.65-3.16-2.52-6.22.55s-3.2,4.57-.54,6.22c1.42.89,2,2.32,2,5,0,5.08-5.13,10.24-10.15,10.24-5.33,0-5.84-1.17-5.84-13.2V19.79h-3.46a8,8,0,0,0-6,2.55c-3.07,3.07-3.2,4.57-.54,6.22,1.72,1.08,2,2.33,2,9,0,7.8-.9,10.19-3.84,10.19-2.06,0-8.13-6.16-8.15-8.26,0-1.51-.29-1.58-2-.51-1.88,1.18-2,2.33-2,19.81,0,13.1-.35,18.91-1.2,19.76-1.55,1.55-8,1.55-9.6,0-2-2-1.49-8.6.8-10,1.1-.69,2-1.59,2-2s-.9-.21-2,.48c-1.48.93-2.46,1-3.75.15-1.47-.92-1.79-2.94-2-12.67-.26-10.84-.14-11.71,1.93-13.63,1.21-1.13,2-2.31,1.66-2.61s-1.84.82-3.42,2.49c-1.85,2-3.85,3-5.62,3h-2.75v11c0,9.91-.2,11.11-2,12.24a4.74,4.74,0,0,0-2,4,4.74,4.74,0,0,1-2,4c-2.76,1.72-2.76,7.81,0,9.54,2.29,1.43,2.82,8,.8,10a3.79,3.79,0,0,1-6-.8,4.74,4.74,0,0,0-4-2,4.74,4.74,0,0,1-4-2,4.75,4.75,0,0,0-3.81-2,6.17,6.17,0,0,1-3.76-1.2c-.86-.86-1.51-.89-2.28-.12-1.71,1.71,1.08,5.32,4.12,5.32a6.17,6.17,0,0,1,3.76,1.2c1.56,1.56,1.56,12,0,13.6a3.79,3.79,0,0,1-6-.8c-1.82-2.91-7-2.65-10.19.51-2.32,2.32-2.53,3.31-2.8,13.14-.24,8.84-.58,10.82-2,11.73-3,1.9-5.21-.43-5.56-5.94-.22-3.35-.89-5.25-2.18-6.16a5.88,5.88,0,0,1-2.19-3.35c-.29-1.86-.65-1.73-4.07,1.51-2.38,2.25-3.75,4.46-3.75,6a4.76,4.76,0,0,1-2,3.74,4.75,4.75,0,0,0-2,3.81,6.06,6.06,0,0,1-1.08,3.64c-.78.78-.71,1.68.24,3.2s1,2.57.23,3.87-2.79,1.81-9.21,2c-7.26.26-8.25.07-9.39-1.75-1.68-2.69-3.17-2.57-6.25.51s-3.47,8.39-.54,10.22c1.6,1,2.4,1,4,0,2.72-1.7,5.39,0,5.83,3.8a6.74,6.74,0,0,0,2.25,4.21c2.71,1.9,2.65,8.75-.09,10.46a4.75,4.75,0,0,0-2,3.81c0,3.25-1.71,5-5,5a4.75,4.75,0,0,0-3.81,2q-2.64,4.23-7.57-1c-3-3.18-4.16-3.63-5.16-2s-4.42,1.11-5.73-1c-1-1.62-2.33-2-7-2-5.71,0-5.76,0-5.76,2.94,0,1.62-.45,3.22-1,3.56-1.63,1-1.18,2.16,2,5.16s3.74,5.19,1.8,7.14c-.93.93-.93,1.47,0,2.4s1.47.93,2.4,0c2-2,8.6-1.49,10,.8,1.58,2.53,3.85,2.55,6,.06,1.58-1.84,1.53-2-.93-2.25-3.35-.4-5.18-3.16-3.68-5.56.74-1.19,2.66-1.85,5.94-2.06s5.25-.89,6.2-2.25a3.75,3.75,0,0,1,6.47,0,6.74,6.74,0,0,0,4.21,2.25c3.6.42,5.51,3.12,4,5.59-.71,1.13-2.82,1.93-6,2.25-7.94.81-11.73,5.56-7.4,9.27,2.41,2.06,2.5,3.09.43,5.16s-3.1,2-5.16-.43c-2.43-2.84-9.27-2.84-9.27,0,0,1.52.67,2,2.8,2,3.79,0,5.2,1.68,5.2,6.19,0,2.71-.57,4.15-2,5s-2,2.33-2,5.76c0,3.78-.52,5-3.19,7.51l-3.19,3,3.91.32a10.94,10.94,0,0,1,7.18,3.5c5.89,5.72,4,8.68-5.67,8.68-5.48,0-6.77.33-7.81,2a4.78,4.78,0,0,1-4.24,2c-2.61,0-3,.36-3,2.79,0,2-1.17,3.86-4,6.47l-4,3.68v8.52c0,7.44-.25,8.68-2,9.77a4.24,4.24,0,0,0-2,3c0,1.44.88,1.76,4.8,1.76,8.67,0,9.38,3.35,2.18,10.35-5.11,5-5.73,6.08-4,7.15s1.11,4.42-1,5.73a4.74,4.74,0,0,0-2,4,4.74,4.74,0,0,1-2,4c-1.38.86-2,2.33-2,4.77s.62,3.9,2,4.77a3.61,3.61,0,0,1,0,6.46c-3.06,1.91-2.59,4.77.8,4.77,3.06,0,5.2,1.58,5.2,3.84s-18.4,20.16-20.56,20.16c-1.43,0-1.57.27-.64,1.2,2,2,1.49,8.6-.8,10-1.53,1-2,2.33-2,5.81,0,5.77-1.23,7-7.2,7-4.66,0-4.8.08-4.8,3a4.79,4.79,0,0,1-2,4.24,4.74,4.74,0,0,0-2,4,4.74,4.74,0,0,1-2,4c-1.53,1-2,2.33-2,5.81,0,2.51-.52,5.08-1.16,5.72a1.58,1.58,0,0,0-.11,2.45,8.41,8.41,0,0,1,1.41,3.09c.3,1.52.94,1.25,4.11-1.75,2.06-2,3.75-4.36,3.75-5.34s2.41-4.37,5.35-7.5c3.95-4.21,6.06-5.7,8-5.7,2.45,0,3.85-1.1,8.63-6.75,1.4-1.66,2.51-1.58,4.4.32s2,3,0,4.64a109.84,109.84,0,0,0-8.47,8.46,11.35,11.35,0,0,0-2,4.68c-.66,3.86-3.29,5.57-6,3.88-1.1-.69-2-.91-2-.48s.9,1.33,2,2a3.61,3.61,0,0,1,0,6.46,4.81,4.81,0,0,0-2,3.76c0,3.22-5.86,9-9.11,9a4.79,4.79,0,0,0-3.65,2,3.68,3.68,0,0,1-6.46,0c-.88-1.41-2.33-2-4.95-2-3.41,0-3.72.24-4,3.15-.63,6.37-7,6.37-7.63,0-.19-1.87-.88-3.15-1.71-3.15-2.19,0-6.48,4.86-6.48,7.35a5.61,5.61,0,0,1-1.2,3.45c-.93.93-.93,1.47,0,2.4,1.55,1.55,1.55,8,0,9.6a3.79,3.79,0,0,1-6-.8c-1.82-2.91-3.38-2.49-7.51,2-3.79,4.12-6,4.88-8.06,2.8-.93-.93-1.47-.93-2.4,0s-.77,1.2.75,1.21c1.07,0,3.41,1.52,5.2,3.36,2.86,2.94,3.25,4,3.25,8.79,0,3-.54,6-1.2,6.64-1.85,1.85-4.53,1.43-6.22-1-.84-1.2-1.79-1.94-2.1-1.62s.8,1.86,2.48,3.44c3.84,3.63,3.81,4.87-.21,9-3.71,3.82-6.18,4.25-8,1.37-1-1.62-2.33-2-7-2-5.64,0-5.76.06-5.76,2.8,0,3.48-1.64,5.2-5,5.2a4.75,4.75,0,0,0-3.79,2c-1.19,1.9-.89,2,8.9,2.25,8.36.24,10.32.59,11.23,2,1.55,2.47-.36,5.16-4,5.59a6.74,6.74,0,0,0-4.21,2.25c-1.15,1.64-2.61,1.91-10.28,1.91h-8.94v36h2.8c3.55,0,5.2,1.65,5.2,5.2v2.8h19l5.77-6c4.92-5.11,6.29-6,9.32-6,2,0,4.09.54,4.75,1.2,1.63,1.63,1.63,20,0,21.6a3.79,3.79,0,0,1-6-.8c-1.11-1.77-2.33-2-10.77-2s-9.66.23-10.77,2-2.33,2-8.24,2-7,.25-7,1.76c0,2.37,3.86,4.78,5.32,3.32a3.79,3.79,0,0,1,5.91.92,4.75,4.75,0,0,0,3.81,2c3.55,0,5,1.76,5,6.19,0,2.71-.57,4.15-2,5-2.76,1.72-2.76,7.81,0,9.54,3.14,2,2.37,4.35-3.18,9.73l-5.15,5,4.78.31c3.8.25,5.18-.11,6.7-1.75,2.3-2.47,3.2-2.56,5.27-.49s2,3.1-.43,5.16a5.55,5.55,0,0,0-2,3.25,4.11,4.11,0,0,0,2,2.79c3,1.89,2.42,4.42-2,8.49s-4.91,5.69-2,7.51c3.94,2.46,1.82,7.23-3.2,7.23-2.72,0-2.8.15-2.8,5.45,0,4.51.44,5.9,2.54,8,1.4,1.4,3.59,2.55,4.88,2.55a5.2,5.2,0,0,1,3.55,1.47c1.08,1.3,1.4,1.3,2.69,0,1.87-1.87,2.81-1.85,4.76.1s2,3.1-.43,5.16a5.68,5.68,0,0,0-2,2.69c0,.54.54.44,1.2-.22,2.08-2.08,4.27-1.32,8.06,2.8,4.28,4.65,9.3,5.53,11.51,2,1-1.54,2.33-2,6-2s5-.46,6-2a3.79,3.79,0,0,1,5.91-.92c1.78,1.78,5.32-1.09,5.32-4.31a4.74,4.74,0,0,1,2-4,4.78,4.78,0,0,0,2-3.69c0-1.73,2.33-4.74,8-10.32,5.11-5,8-8.66,8-10.07,0-2.83,10-12.69,12.79-12.69s7.18-4.51,7.18-7.35A5.6,5.6,0,0,1,753,621c.93-.93.93-1.47,0-2.4a6.17,6.17,0,0,1-1.2-3.76,4.75,4.75,0,0,0-2-3.81c-1.46-.91-2-2.33-2-5.23s.54-4.32,2-5.23,2-2.34,2-5.76c0-3.79.54-5,3.36-7.76,6.3-6.12,8.63-4,8.63,7.71,0,7.48.25,8.72,2,9.81s2,2.33,2,8.24v7h6.8c4,0,7.3.5,8,1.2s1.2,4.44,1.2,9.76c0,7.48.25,8.72,2,9.81,2.29,1.43,2.82,8,.8,10-.93.93-.93,1.47,0,2.4a5.18,5.18,0,0,1,1.2,3.2c0,1.55.27,1.73,1.2.8a6.17,6.17,0,0,1,3.76-1.2,4.75,4.75,0,0,0,3.81-2,3.79,3.79,0,0,1,6-.8c.66.66,1.2,3.25,1.2,5.76,0,3.48.47,4.86,2,5.81,2.81,1.75,2.81,8.71,0,10.46-1.61,1-2,2.33-2,6.77s.39,5.76,2,6.77a4.76,4.76,0,0,1,2,3.77c0,1.66,1.36,3.78,4,6.2s4,4.53,4,6.23a4.75,4.75,0,0,0,2,3.8,4.78,4.78,0,0,1,2,3.7c0,3.07,4.35,7.54,7.34,7.54s4.66,1.79,4.66,4.73c0,1.44,1.53,3.74,4,6,2.66,2.45,4,4.53,4,6.23a4.75,4.75,0,0,0,2,3.8,3.79,3.79,0,0,1,.92,5.91c-.78.78-.71,1.68.24,3.2,1.65,2.64.24,5.31-3.25,6.13-1.63.38-2,.81-1.16,1.33.68.42,1.24,2.09,1.24,3.71,0,2.51.38,2.94,2.64,2.94,1.84,0,4.26,1.59,8,5.25,5.74,5.64,6.54,8,3.38,10a4.75,4.75,0,0,0-2,3.81,6.17,6.17,0,0,1-1.2,3.76c-.93.93-.1,1.2,3.76,1.2s5.23-.44,6.21-2,2.33-2,8.24-2c7,0,7,0,7-2.75,0-1.76,1.08-3.77,3-5.58,1.65-1.56,3-3.21,3-3.66s-1.35-2.1-3-3.66c-4.53-4.27-4.19-8.82,1-13.6,2.47-2.27,4-4.57,4-6,0-3.46,1.87-4.73,7-4.73,3.48,0,4.86-.47,5.81-2s2.33-2,5.7-2c6.19,0,9.54-3.35,9.54-9.54,0-3.36.49-4.75,2-5.7a4.74,4.74,0,0,0,2-4,4.74,4.74,0,0,1,2-4c1.77-1.11,2-2.33,2-10.77s-.23-9.66-2-10.77-2-2.33-2-10-.25-8.91-2-10c-1.43-.89-2-2.33-2-5,0-3.13.69-4.41,4-7.46,4.65-4.28,5.53-9.3,2-11.51-1.75-1.09-2-2.33-2-10s-.25-8.91-2-10-2-2.33-2-7c0-5.19.33-6.05,3.36-9,2.06-2,4.36-3.25,6-3.25,2.21,0,2.65-.45,2.65-2.75,0-3.61,5.71-9.25,9.35-9.25,2.55,0,2.64-.2,2.64-5.76,0-4.68-.38-6-2-7-2.81-1.75-2.81-8.71,0-10.46a4.74,4.74,0,0,0,2-4,4.74,4.74,0,0,1,2-4,4.74,4.74,0,0,0,2-4,4.74,4.74,0,0,1,2-4c4.67-2.92.4-12.77-5.54-12.77a4.78,4.78,0,0,1-3.7-2,4.78,4.78,0,0,0-3.76-2c-1.75,0-4.24-1.81-8.28-6-5.22-5.42-6.16-6-9.89-6s-4.76-.63-9.46-5.25c-3.6-3.54-5.35-6.07-5.36-7.76a4.87,4.87,0,0,0-2-3.76c-1.54-1-2-2.33-2-6s-.46-5-2-6a4.74,4.74,0,0,1-2-4,4.74,4.74,0,0,0-2-4c-2.81-1.75-2.81-8.71,0-10.46,1.77-1.11,2-2.33,2-10.77s-.23-9.66-2-10.77-2-2.33-2-9.23.27-8.15,2-9.23a4.74,4.74,0,0,0,2-4,4.74,4.74,0,0,1,2-4,4.75,4.75,0,0,0,2-3.81A6.17,6.17,0,0,1,893,429c.93-.93.93-1.47,0-2.4-2-2-1.49-8.6.8-10a4.75,4.75,0,0,0,2-3.81c0-3.32,1.72-5,5.2-5,2.44,0,2.8-.38,2.8-3a4.78,4.78,0,0,1,2-4.24,4.78,4.78,0,0,0,2-3.69c0-1.73,2.33-4.74,8-10.32s8-8.59,8-10.31a4.78,4.78,0,0,1,2-3.68c1.54-1,2-2.33,2-6s.46-5,2-6,2-2.33,2-6,.46-5,2-6a4,4,0,0,0,2-2.49c0-.68-2.7-3.84-6-7l-6-5.77v-7.74c0-6.66.27-7.92,2-9,2.76-1.72,2.76-7.81,0-9.54s-2.81-8.71,0-10.46a4.74,4.74,0,0,0,2-4,4.74,4.74,0,0,1,2-4c2.56-1.6,2.56-3.94,0-5.54a4.74,4.74,0,0,1-2-4,6.67,6.67,0,0,0-2-4.48c-2.41-2.06-2.5-3.09-.43-5.16s3.1-2,5.16.43a6.66,6.66,0,0,0,4.48,2,4.74,4.74,0,0,1,4,2,4,4,0,0,0,2.49,2c.68,0,3.84-2.7,7-6l5.77-6h11.55c7,0,12,.43,12.63,1.08s1.68.71,3.2-.24c2.83-1.77,5.5-.09,6,3.73a6.74,6.74,0,0,0,2.25,4.21,5.12,5.12,0,0,1,1.91,3.74c0,3,4.35,7.49,7.19,7.49,2.43,0,8.79,5.78,8.8,8,0,.83-2.69,4.1-6,7.27l-6,5.77v8.47c0,7.39-.26,8.63-2,9.72a4.74,4.74,0,0,0-2,4,4.74,4.74,0,0,1-2,4c-1.68,1-2,2.33-2,8s-.32,7-2,8-2,2.33-2,6-.46,5-2,6a4.74,4.74,0,0,0-2,4,4.74,4.74,0,0,1-2,4,4.74,4.74,0,0,0-2,4,4.74,4.74,0,0,1-2,4c-1.54,1-2,2.33-2,6s-.46,5-2,6a4.74,4.74,0,0,0-2,4,4.74,4.74,0,0,1-2,4,4.74,4.74,0,0,0-2,4,4.74,4.74,0,0,1-2,4,4.74,4.74,0,0,0-2,4,4.74,4.74,0,0,1-2,4c-3.53,2.2-2.66,7.23,2,11.51,3.48,3.2,4,4.24,4,8s.52,4.8,4,8,4,4.25,4,8c0,3.91.5,4.76,6,10l6,5.77v14.51c0,13.42.15,14.6,2,15.76a4.79,4.79,0,0,1,2,3.66c0,1.53,1.67,4.08,4.58,7l4.58,4.58h10.22c6.62,0,10.64.42,11.42,1.2s1.2,4,1.2,8c0,5.82.25,6.8,1.76,6.8a4.24,4.24,0,0,0,3-2c1.75-2.81,8.71-2.81,10.46,0,1.6,2.56,3.94,2.56,5.54,0,1-1.52,2.33-2,5.77-2,4,0,5-.46,8.2-4,2.6-2.83,4.49-4,6.47-4,2.43,0,2.79-.38,2.79-3a4.78,4.78,0,0,1,2-4.24,4.75,4.75,0,0,0,2-3.81c0-3.32,1.72-5,5.2-5,2.36,0,2.8-.42,2.8-2.64,0-3.64,5.64-9.33,9.25-9.35,2.38,0,2.75-.41,2.75-3a4.78,4.78,0,0,1,2-4.24,4.75,4.75,0,0,0,2-3.81c0-3.69,1.78-5,7-5,3.48,0,4.86-.47,5.81-2,1.1-1.76,2.33-2,10.24-2h9V457c0-4,.5-7.3,1.2-8s3.25-1.2,5.76-1.2c3.48,0,4.86-.47,5.81-2a4.19,4.19,0,0,1,3-2c2.41,0,8.24,6.24,8.24,8.8,0,3.7,4.54,7.19,9.34,7.19,2.34,0,4.79.54,5.46,1.2.93.93,1.47.93,2.4,0a6.17,6.17,0,0,1,3.76-1.2,4.75,4.75,0,0,0,3.81-2c1.75-2.81,8.71-2.81,10.46,0a4.75,4.75,0,0,0,3.81,2c6,0,6.95,7.24,1.71,12.63-3.94,4.06-9.88,4.74-12,1.37a2.92,2.92,0,0,0-5.54,0,4.58,4.58,0,0,1-3.44,2c-1.71,0-1.92.27-1,1.2a3.85,3.85,0,0,1-.71,6,6.74,6.74,0,0,0-2.25,4.21c-.44,3.75-3.12,5.5-5.83,3.8-1.73-1.08-2-1-2,.56,0,2.61-2,4.21-5.2,4.21-2.79,0-2.8,0-2.8,6.64,0,6.14-.25,6.9-3.25,10-2,2-4.24,3.35-5.76,3.36a4.81,4.81,0,0,0-3.76,2c-1.83,2.93-12.63,2.93-14.46,0-1.72-2.76-7.81-2.76-9.54,0a4.74,4.74,0,0,1-4,2,4.74,4.74,0,0,0-4,2,4.74,4.74,0,0,1-4,2,4.74,4.74,0,0,0-4,2,4.79,4.79,0,0,1-3.65,2c-3.17,0-15.58,12.26-15.58,15.39a4.31,4.31,0,0,1-4.66,4.61c-1.24,0-3.4,1.15-4.8,2.54-3.38,3.38-3.72,12.24-.54,14.22,1.54,1,2,2.33,2,6s.46,5,2,6a4.78,4.78,0,0,1,2,3.7c0,2.4,4.14,7.54,6.08,7.54.54,0,2.64-1.8,4.66-4,3-3.24,4.36-4,7.27-4,5.29,0,6,1.27,6,11,0,7.48.25,8.72,2,9.81,1.54,1,2,2.33,2,6s.46,5,2,6a4.74,4.74,0,0,1,2,4,4.74,4.74,0,0,0,2,4c1.69,1.06,2,2.33,2,8.24,0,7,0,7,2.75,7,4.06,0,9.25,5.7,9.25,10.15,0,5.14-1.33,5.84-11,5.84-7.48,0-8.72.25-9.81,2-1.75,2.81-8.71,2.81-10.46,0a4.78,4.78,0,0,0-3.76-2c-1.75,0-4.24-1.81-8.28-6s-6.53-6-8.24-6a4.77,4.77,0,0,1-3.72-2,4.74,4.74,0,0,0-3.95-2c-1.49,0-3-.45-3.32-1-1.09-1.77-2-1.14-9.84,6.56l-7.66,7.56v10.43c0,9.34-.21,10.56-2,11.68s-2,2.33-2,12.54v11.29l4,3.68c4.12,3.79,4.88,6,2.8,8.06-.93.93-.93,1.47,0,2.4a5.66,5.66,0,0,1,1.2,3.48c0,1.48,2.11,4.31,6,8,4.19,4,6,6.52,6,8.28a4.78,4.78,0,0,0,2,3.76,4.74,4.74,0,0,1,2,4,4.74,4.74,0,0,0,2,4c1.77,1.11,2,2.33,2,10.88,0,9.52,0,9.68-3.25,13-2.91,3-3.83,3.35-8.8,3.36-3.05,0-6.09-.53-6.75-1.19-.93-.93-1.2-.76-1.2.79,0,1.1-1.8,3.65-4,5.67s-4,4-4,4.41.54.19,1.2-.47c1.55-1.55,8-1.55,9.6,0,2.21,2.21,1.23,4.26-4.81,10.07-5.42,5.22-6,6.16-6,9.89s-.63,4.76-5.25,9.46c-4.47,4.54-5.81,5.34-9,5.36-2.67,0-4.1-.55-5-2a4.74,4.74,0,0,0-4-2,4.74,4.74,0,0,1-4-2,4.79,4.79,0,0,0-3.65-2c-3.53,0-13.07-9.65-13.1-13.25,0-2.51-.35-2.75-3.78-2.75-2.68,0-4.12.58-5,2a4.75,4.75,0,0,1-3.77,2c-1.66,0-3.78,1.36-6.2,4-2.22,2.41-4.58,4-6,4s-4.31,2.12-8,6c-4.3,4.47-6.47,6-8.52,6-2.39,0-2.75.4-2.75,3a4.79,4.79,0,0,1-2,4.24,4.81,4.81,0,0,0-2,3.76c0,3.22-5.86,9-9.11,9a4.79,4.79,0,0,0-3.65,2c-1,1.54-2.33,2-6,2s-5,.46-6,2a4.79,4.79,0,0,1-3.66,2c-1.51,0-4,1.62-6.74,4.34-7,7-7.13,7.21-5.64,9.59"/><path class="cls-3" d="M1375.85,1327.78c5.42.13,10.07.53,10.74,1.2.93.93,1.47.93,2.4,0,.66-.66,3.25-1.2,5.76-1.2,3.48,0,4.86-.47,5.81-2,1.09-1.75,2.33-2,10-2s8.91-.25,10-2a3.79,3.79,0,0,1,6-.8c1.55,1.55,1.55,8,0,9.6-.66.66-.77,1.2-.24,1.2s1.52-.9,2.21-2a4.74,4.74,0,0,1,4-2,4.74,4.74,0,0,0,4-2,4.78,4.78,0,0,1,3.7-2c4,0,7.54-4.37,7.54-9.35s1.32-6.65,5-6.65a4.75,4.75,0,0,0,3.81-2c1-1.54,2.33-2,6-2s5-.46,6-2c1.14-1.83,2.33-2,14.24-2s13-.17,13-1.78a5.68,5.68,0,0,0-2-3.49,6.38,6.38,0,0,1-2-4.22v-2.51H1470.2l-3.68-4c-3.19-3.46-4.25-4-8-4-3.53,0-4.85-.59-7.53-3.36-3-3.09-3.25-3.85-3.25-10,0-6.61,0-6.64-2.8-6.64-3.38,0-5.2-1.62-5.2-4.65s-4.44-7.35-7.34-7.35c-1.34,0-3.73-1.61-5.92-4s-4.57-4-6-4c-4.6,0-6.46-4.91-2.73-7.23a4.74,4.74,0,0,0,2-4,4.74,4.74,0,0,1,2-4c2.55-1.6,2.55-3.94,0-5.54a4.74,4.74,0,0,1-2-4,4.74,4.74,0,0,0-2-4c-2.81-1.75-2.81-8.71,0-10.46a4.79,4.79,0,0,0,2-3.65c0-3.39,5.79-9.09,9.25-9.1,2.68,0,2.75-.16,2.75-5.77,0-4.68-.38-6-2-7-1.8-1.12-2-2.33-2-12s-.2-10.88-2-12-2-2.33-2-8-.32-7-2-8c-2.81-1.75-2.81-8.71,0-10.46a2.91,2.91,0,0,0,0-5.54c-2.84-1.78-2.49-4,1.25-7.87,4.47-4.61,7.86-4.25,8.89.93.3,1.52.94,1.25,4.11-1.75,4.4-4.16,5.17-9.18,1.75-11.32-1.57-1-2-2.33-2-6.24,0-4.8-.11-5-2.8-5-3.74,0-5.2-1.68-5.18-6,0-2.93.88-4.39,5-8.4,5.11-5,5.73-6.08,4-7.15-1.4-.87-1.25-7.85.2-9.3a5.61,5.61,0,0,1,3.46-1.2c1.24,0,3.4-1.15,4.8-2.55,2.45-2.45,2.55-3,2.55-14.75v-12.2l6-5.77c3.64-3.5,6-6.61,6-7.89,0-2.47,5.78-8.81,8-8.83a4.48,4.48,0,0,1,2.75,1.19c.93.93,1.47.93,2.4,0s.93-1.47,0-2.4a6.17,6.17,0,0,1-1.2-3.76,4.75,4.75,0,0,0-2-3.81c-4.25-2.66-1.75-7.24,3.95-7.22,4.26,0,10.05,5.26,10.05,9.11,0,2.89,3.66,5.62,5.32,4a6.06,6.06,0,0,1,3.64-1.08,4.75,4.75,0,0,0,3.81-2c2.66-4.25,7.24-1.75,7.22,4,0,3-.89,4.39-5.17,8.55l-5.15,5,4.19.31c2.83.21,4.59.94,5.41,2.25,1.56,2.5,3.92,2.48,5.5-.06a4.78,4.78,0,0,1,3.7-2c3.07,0,7.54-4.36,7.54-7.35,0-3.25,1.87-4.65,6.19-4.65,2.71,0,4.15.57,5,2,1.6,2.56,3.94,2.56,5.54,0,.89-1.43,2.33-2,5-2,4.43,0,6.19,1.41,6.19,5a4.75,4.75,0,0,0,2,3.81c3.12,1.95,2.42,4.09-3.25,9.85-3.79,3.85-6,5.35-8,5.36-2.61,0-2.75.27-2.77,4.77s-.41,5.13-5,9.63c-2.76,2.69-4.77,5.13-4.46,5.44s1.25-.43,2.09-1.63c1.29-1.83,2.5-2.19,7.47-2.19s6.16.37,7.18,2c1.6,2.56,3.94,2.56,5.54,0,2.1-3.37,8-2.69,12,1.37,3.12,3.22,3.25,3.66,3.25,11.44,0,7.34.24,8.34,2.54,10.64,2.11,2.11,3.49,2.55,8,2.55,5.3,0,5.46-.08,5.46-2.79,0-2,1.17-3.86,4-6.47,3.86-3.55,4-3.9,4-10,0-6.77,1-8.73,4.62-8.73,1.3,0,4.11-1.89,6.8-4.58,3.93-3.93,4.58-5.15,4.58-8.64s.66-4.73,5.25-9.4c5.05-5.14,7.94-6.51,9.25-4.38,1,1.63,2.16,1.18,5.16-2,1.56-1.65,3.71-3,4.79-3,1.52,0,1.69-.27.75-1.2a6.65,6.65,0,0,1-1.2-4c0-2.76-.1-2.8-6-2.8s-6,.08-6,2.64c0,3.64-5.64,9.33-9.25,9.35-2.34,0-2.75.43-2.75,2.81,0,5-4.77,7.14-7.23,3.2a4.78,4.78,0,0,0-3.76-2c-1.75,0-4.23-1.8-8.22-5.94-5.19-5.39-6.15-6-10.4-6.25-5.52-.36-7.65-2.56-5.62-5.8.69-1.1.91-2,.48-2s-1.33.9-2,2a4.74,4.74,0,0,1-4,2,4.74,4.74,0,0,0-4,2c-1.8,2.88-4.27,2.46-8-1.37s-4.09-6.09-1.25-7.87a4.75,4.75,0,0,0,2-3.81c0-3.73,1.79-5,7.2-5,4.52,0,4.8-.15,4.8-2.64,0-3.36,9.47-13.3,12.7-13.34,3.88,0,7.3-4.52,7.3-9.56,0-3.36.49-4.75,2-5.7s2-2.33,2-5.81c0-2.51.54-5.1,1.2-5.76s4-1.2,8-1.2c6.69,0,6.8,0,6.8-2.64,0-3.64,5.64-9.33,9.25-9.35,2.34,0,2.75-.43,2.75-2.8,0-2,1.17-3.86,4-6.47,2.64-2.43,4-4.54,4-6.2"/><path class="cls-4" d="M1301.79,1423c-7.22-7.14-10-10.57-10-12.33a4.78,4.78,0,0,0-2-3.68c-1.84-1.15-2-2.33-2-14.88V1378.5l3.25-3.35c3.71-3.82,6.18-4.25,8-1.37a4.74,4.74,0,0,0,4,2,4.74,4.74,0,0,1,4,2,4.75,4.75,0,0,0,3.81,2,6.17,6.17,0,0,1,3.76,1.2c.93.93,1.47.93,2.4,0a6.17,6.17,0,0,1,3.76-1.2,4.75,4.75,0,0,0,3.81-2,4.74,4.74,0,0,1,4-2,4.74,4.74,0,0,0,4-2c1.07-1.71,1-2-.51-2-2.57,0-8.26-6.29-8.26-9.11a4.79,4.79,0,0,0-2-3.65,3.79,3.79,0,0,1-.8-6c.66-.66,3.12-1.2,5.46-1.2,4.88,0,9.35-3.51,9.35-7.35,0-3,1.8-4.65,5-4.65a4.75,4.75,0,0,0,3.81-2c1-1.57,2.33-2,6.24-2,4.8,0,5-.11,5-2.8a6.65,6.65,0,0,1,1.2-4c1-1,10.79-1.4,18.86-1.2"/><path class="cls-3" d="M999.26,1258.07c2.67,3,6.2,5.71,8,5.71a5.08,5.08,0,0,1,3.7,1.91,6.74,6.74,0,0,0,4.21,2.25c6,.71,5.94,7-.07,7.64-3.55.36-6.64,4.2-3.38,4.2a4.42,4.42,0,0,1,3.25,2,4.74,4.74,0,0,0,4,2,4.74,4.74,0,0,1,4,2,4.78,4.78,0,0,0,3.76,2c1.75,0,4.24,1.81,8.28,6,3.17,3.3,6.33,6,7,6a4,4,0,0,0,2.49-2c1.08-1.73,2.33-2,9.23-2s8.15.27,9.23,2c1,1.53,2.33,2,5.81,2,5.66,0,7,1.25,7,6.65,0,3.23.62,4.87,2.54,6.8,2.33,2.33,3.28,2.55,11,2.55,7.36,0,8.61.26,9.7,2,1,1.54,2.33,2,6,2s5,.46,6,2c1.14,1.83,2.33,2,13.8,2h12.55l3.68,4c2.27,2.47,4.57,4,6,4,2.95,0,4.73,1.76,4.73,4.65,0,3.81,4.46,7.34,9.29,7.36,3.45,0,4.79.61,7.46,3.36l3.25,3.35v12.4c0,11.32.17,12.51,2,13.65s2,2.33,2,14.24v13h2.75c4.78,0,11.46,8.5,8.25,10.49-1.59,1-1.22,1.85,2.5,5.79,3,3.14,4.15,3.71,7.75,3.72s4.83.6,7.5,3.36c2,2.06,3.25,4.36,3.25,6,0,2.6.11,2.64,6.8,2.64,4,0,7.3.5,8,1.2s1.2,3.1,1.2,5.42c0,3.68.59,4.81,4.58,8.8,2.69,2.69,5.5,4.58,6.8,4.58a5.55,5.55,0,0,1,3.42,1.2c.93.93,1.47.93,2.4,0,2-2,8.6-1.49,10,.8a4.75,4.75,0,0,0,3.81,2c3.53,0,5,1.75,5,6.08,0,3.8-1.18,5.45-4.33,6.07-1.47.29-.74,1.47,3.79,6.11,3.09,3.16,6.17,5.75,6.84,5.75s1.78-.9,2.47-2a3.61,3.61,0,0,1,6.46,0c.86,1.38,2.33,2,4.77,2s3.9-.62,4.77-2a4.74,4.74,0,0,1,4-2,4.74,4.74,0,0,0,4-2,4.75,4.75,0,0,1,3.77-2c1.66,0,3.78-1.36,6.2-4,4.07-4.43,6.6-5,8.49-2,1.09,1.74,2.34,2,9.76,2l8.51,0,4.85,5c5,5.11,6.08,5.73,7.15,4,.34-.55,4.19-1,8.55-1,6.85,0,8.1.27,9.18,2a4.75,4.75,0,0,0,3.81,2,6.17,6.17,0,0,1,3.76,1.2c.93.93,1.2.54,1.2-1.76a4.78,4.78,0,0,0-2-4.21,4.78,4.78,0,0,1-2-3.7,8.73,8.73,0,0,0-2.55-5c-2.2-2.2-3.42-2.54-9-2.54-5.36,0-6.66-.34-7.7-2a4.74,4.74,0,0,0-4-2,4.74,4.74,0,0,1-4-2c-1.09-1.75-2.33-2-10-2s-8.89-.27-10.06-1.94c-1-1.36-2.79-2-6.2-2.25-5.51-.36-7.84-2.54-5.94-5.56,1-1.53,3.14-1.79,17.22-2,15.26-.26,16.19-.17,17.38,1.75a4.74,4.74,0,0,0,4,2,4.74,4.74,0,0,1,4,2c1.09,1.75,2.33,2,10,2,8.52,0,8.73-.06,7.52-2-1.09-1.75-2.33-2-10-2s-8.91-.25-10-2a4.74,4.74,0,0,0-4-2,4.74,4.74,0,0,1-4-2,4.74,4.74,0,0,0-4-2,4.74,4.74,0,0,1-4-2c-1-1.67-2.33-2-7.81-2-7,0-9-1-9-4.63,0-1.5-3.28-5.48-10-12.13"/><path class="cls-4" d="M937.78,1219.9c4.82.34,6,1.51,6,4.66,0,2.19.13,2.25,1.62.75,2.21-2.21,10.24-1.71,11.77.73,1.78,2.84-.44,5.2-5.24,5.56s-5.7,2.74-2.15,5a4.74,4.74,0,0,1,2,4,4.77,4.77,0,0,0,1.92,4,5.55,5.55,0,0,1,2.25,3.42c.31,2.14.44,2.1,3.32-1,3.73-4,5.25-4,8.88-.14,1.58,1.67,3.13,2.79,3.44,2.48s-.42-1.26-1.62-2.1a5.29,5.29,0,0,1-2.19-4.24,4.74,4.74,0,0,0-2-4c-2.88-1.8-2.46-4.27,1.37-8,2.92-2.83,4-3.25,8.63-3.25s5.71.42,8.63,3.25c2,2,3.35,4.24,3.36,5.76a4.81,4.81,0,0,0,2,3.76,4.74,4.74,0,0,1,2,4,4.74,4.74,0,0,0,2,4,4.79,4.79,0,0,1,2,3.66c0,1.37,1.5,3.67,3.47,5.86"/><path class="cls-3" d="M868.33,1354.79a5.53,5.53,0,0,0,2.8,1,4.31,4.31,0,0,1,4.66,4.61c0,1.39,2.45,4.66,6.59,8.8,6.13,6.13,6.91,6.59,11,6.59,3.32,0,4.71.49,5.65,2a4.75,4.75,0,0,0,3.8,2c1.7,0,3.78,1.34,6.23,4,2.26,2.46,4.57,4,6,4s3.74,1.54,6,4c2.42,2.64,4.54,4,6.2,4a4.75,4.75,0,0,1,3.77,2,4.74,4.74,0,0,0,4,2,4.74,4.74,0,0,1,4,2,4.74,4.74,0,0,0,4,2,4.74,4.74,0,0,1,4,2,4.76,4.76,0,0,0,3.76,2c1.5,0,3.66,1.21,5.34,3,3,3.18,4.16,3.62,5.16,2,.34-.55,2.3-1,4.35-1,3.07,0,4.38.71,7.41,4,4.13,4.49,5.69,4.91,7.51,2a4.19,4.19,0,0,1,2.92-2c.92,0,5.22,3.6,9.55,8,5.1,5.18,8.65,8,10.07,8,1.21,0,3.47,1.35,5,3,3,3.18,4.16,3.63,5.16,2,.34-.55,2.23-1,4.2-1,3,0,4.48.89,8.92,5.25,3.2,3.15,5.35,6.13,5.36,7.45,0,3,4.52,7.3,7.56,7.3a4.78,4.78,0,0,1,3.7,2c1.72,2.76,7.81,2.76,9.54,0,2.39-3.83,7.23-1.85,7.23,3a4.75,4.75,0,0,0,2,3.81,4.76,4.76,0,0,1,2,3.77c0,1.66,1.36,3.78,4,6.2s4,4.53,4,6.23a4.75,4.75,0,0,0,2,3.8,4.74,4.74,0,0,1,2,4,4.74,4.74,0,0,0,2,4,4.79,4.79,0,0,1,2,4.24c0,2.59.36,3,2.75,3,4.06,0,9.25,5.7,9.25,10.15,0,4-1.47,5.84-4.66,5.84-1.24,0-3.4,1.15-4.8,2.54-2.4,2.4-2.54,3.13-2.54,13,0,9.36-.21,10.58-2,11.7a4.23,4.23,0,0,0-2,3c0,1.34.82,1.76,3.42,1.76s4.35-.92,8-4.58c4-4,4.58-5.12,4.58-8.8,0-4.93,1.33-6.62,5.2-6.62,2.57,0,2.8-.31,2.8-3.76,0-2.68-.58-4.12-2-5-1.63-1-2-2.33-2-7,0-6.37,1.1-8.19,5-8.19a4.75,4.75,0,0,0,3.81-2,4.78,4.78,0,0,1,3.7-2c2.54,0,7.54-4.18,7.54-6.3,0-.67-.9-1.78-2-2.46a4.79,4.79,0,0,1-2-3.66c0-1.53-1.67-4.08-4.58-7-4-4-5.14-4.58-8.75-4.59-3.41,0-4.77-.62-7.42-3.36l-3.25-3.35V1438.5l7.35-7.36c4-4,8.09-7.35,9-7.35a4.17,4.17,0,0,1,2.89,2c1,1.54,2.33,2,6,2s5,.46,6,2,2.34,2,7.76,2c6.06,0,6.73.24,9.76,3.36,2,2.06,3.25,4.36,3.25,6,0,2.27.42,2.64,3,2.64a4.78,4.78,0,0,1,4.24,2,4.24,4.24,0,0,0,3,2c1.52,0,1.76-1,1.76-7.46,0-6.65-.27-7.73-2.55-10-1.4-1.4-3.54-2.55-4.75-2.56-3.08,0-8.7-6.06-8.7-9.35v-2.64h-11c-9.91,0-11.11-.2-12.24-2a4.74,4.74,0,0,0-4-2,4.74,4.74,0,0,1-4-2c-1-1.54-2.33-2-6-2s-5-.46-6-2-2.33-2-6-2-5-.46-6-2-2.33-2-6-2-5-.46-6-2c-1.09-1.75-2.33-2-9.81-2-5.32,0-9-.45-9.76-1.2a3.79,3.79,0,0,1,.8-6,4.74,4.74,0,0,0,2-4,5.29,5.29,0,0,1,2.08-4.16,4.05,4.05,0,0,0,1.75-4.24l-.33-2.79-3,3.19c-2.51,2.67-3.73,3.19-7.51,3.19-3.43,0-4.81.48-5.76,2-1.08,1.73-2.33,2-9.23,2s-8.15-.27-9.23-2a4.74,4.74,0,0,0-4-2,4.74,4.74,0,0,1-4-2,4.75,4.75,0,0,0-3.8-2c-1.7,0-3.78-1.34-6.23-4-2.12-2.31-4.6-4-5.85-4-3.18,0-24.89-21.92-24.89-25.12a4.78,4.78,0,0,0-2-3.65,4.74,4.74,0,0,1-2-4,4.74,4.74,0,0,0-2-4,4.79,4.79,0,0,1-2-3.66c0-1.53-1.67-4.08-4.58-7-4.06-4.06-5.08-4.58-9-4.58-3.33,0-4.72-.49-5.66-2a4.75,4.75,0,0,0-3.8-2c-1.7,0-3.78-1.34-6.23-4-2.13-2.31-4.59-4-5.85-4-3.12,0-16.89-13.95-16.89-17.11a4.79,4.79,0,0,0-2-3.65,4.74,4.74,0,0,1-2-4,4.74,4.74,0,0,0-2-4c-3.31-2.07-2.71-8.07,1.17-11.74,2.83-2.67,3-3,1.25-3.36-1.06-.2-3.38-1.78-5.17-3.5-3.21-3.1-3.24-3.24-3.24-12.63s0-9.51,3.35-12.75,6-4.1,7.13-2.25c1,1.63,2.16,1.18,5.16-2,1.69-1.79,3.85-3,5.34-3a4.76,4.76,0,0,0,3.76-2c1.08-1.72,2.33-2,9-2,1.63,0,3,0,4.19.11"/><path class="cls-4" d="M803.79,1295.79a4.4,4.4,0,0,1,3.23,2,4.74,4.74,0,0,0,4,2,4.74,4.74,0,0,1,4,2,4.74,4.74,0,0,0,4,2,4.74,4.74,0,0,1,4,2,4.75,4.75,0,0,0,3.81,2,6.17,6.17,0,0,1,3.76,1.2c.93.93,1.47.93,2.4,0,2.22-2.22,4.06-1.23,11.45,6.15,6.91,6.91,7.36,7.62,7.36,11.76,0,3.32.49,4.71,2,5.65a4.76,4.76,0,0,1,2,3.77c0,1.66,1.36,3.78,4,6.2,2.39,2.19,4,4.58,4,5.92,0,2.05,2.22,4.87,4.55,6.34"/><path class="cls-4" d="M768.19,1329.8c3.52-2.64,7.59-7.22,7.59-9.24,0-3.05,18-20.78,21.12-20.78a4.79,4.79,0,0,0,3.65-2,4.4,4.4,0,0,1,3.23-2"/><path class="cls-4" d="M718.55,1363.79c3.67,0,5-.46,6-2a4.78,4.78,0,0,1,3.7-2c3,0,7.53-4.34,7.56-7.3s10-12.7,13.1-12.7a4.79,4.79,0,0,0,3.65-2,4.74,4.74,0,0,1,4-2,4.74,4.74,0,0,0,4-2,4.79,4.79,0,0,1,3.66-2c.93,0,2.4-.8,4-2"/><path class="cls-3" d="M415.51,1662.68a25,25,0,0,0,3-2.9c3.45-3.75,4-4,9.27-4,3.08,0,6.08.49,6.67,1.08.78.78,1.68.71,3.2-.24s2.12-2.32,2.12-5.72c0-4.31.26-4.66,13.36-17.76,7.35-7.35,14.1-13.36,15-13.36a4.16,4.16,0,0,1,2.88,2c1,1.56,2.33,2,6.21,2s4.69-.27,3.76-1.2c-2-2-1.49-8.6.8-10a4.74,4.74,0,0,0,2-4,4.74,4.74,0,0,1,2-4,4.74,4.74,0,0,0,2-4,4.74,4.74,0,0,1,2-4,4.87,4.87,0,0,0,2-3.76c0-3.14,9.74-13,12.79-13,1.92,0,4.63-2.12,8-6.24,1.85-2.27-.44-5.76-3.8-5.77-1.52,0-3.79-1.33-5.76-3.36l-3.25-3.35v-13.63c0-12.55.16-13.73,2-14.88a4.74,4.74,0,0,0,2-4,4.74,4.74,0,0,1,2-4,4.78,4.78,0,0,0,2-3.76c0-1.76,1.81-4.24,6-8.28,3.71-3.57,6-6.6,6-7.93s2.89-5,8-10c5.65-5.56,8-8.59,8-10.31a4.78,4.78,0,0,1,2-3.68,4.79,4.79,0,0,0,2-3.65c0-1.55,1.86-4.29,5.25-7.74,4.79-4.87,5.64-5.34,9.76-5.36,3.41,0,4.81-.51,5.76-2a4.74,4.74,0,0,1,4-2,4.74,4.74,0,0,0,4-2c1-1.66,2.33-2,7.68-2h6.43l7.87-8c5.58-5.67,8.58-8,10.32-8a4.78,4.78,0,0,0,3.69-2,4.76,4.76,0,0,1,3.74-2c1.58,0,3.77-1.36,6-3.71,3.72-3.94,4.09-4.81,2.5-5.79-.55-.34-1-1.83-1-3.32a4.74,4.74,0,0,0-2-3.95c-3.57-2.23-2.15-6.52,2.42-7.37,1.71-.32,1.57-.69-1.25-3.35s-3.17-3.49-3.17-9.51c0-5.43-.33-6.72-2-7.76-2.81-1.75-2.81-8.71,0-10.46a4.74,4.74,0,0,0,2-4,4.74,4.74,0,0,1,2-4,4.79,4.79,0,0,0,2-3.65c0-3.24,5.79-9.09,9-9.1a4.81,4.81,0,0,0,3.76-2,4.74,4.74,0,0,1,4-2,4.74,4.74,0,0,0,4-2c1.15-1.85,2.33-2,15.23-2s14.08.15,15.23,2c1,1.68,2.33,2,8,2s7,.32,8,2,2.33,2,6,2,5,.46,6,2,2.33,2,6,2,5,.46,6,2a2.92,2.92,0,0,0,5.54,0c1-1.54,2.33-2,6-2"/><path class="cls-4" d="M242.39,1627.79H246c10.7,0,11.9.18,13,2a4.79,4.79,0,0,0,3.65,2c1.55,0,4.29,1.86,7.74,5.25l5.34,5.25,0,8.14,0,8.14,12.61,12.61c15.74,15.74,15.28,15.66,26.15,4.61,5.58-5.67,8.58-8,10.32-8a4.78,4.78,0,0,0,3.69-2c1-1.54,2.33-2,6-2s5-.46,6-2a4.74,4.74,0,0,1,4-2,4.74,4.74,0,0,0,4-2c1.18-1.89,2.33-2,21.23-2s20.05.11,21.23,2,2.33,2,10,2,8.91.25,10,2c1.29,2.06,2.45,2.45,4.49.9"/><path class="cls-3" d="M451,1365.79c-1.11,1.78-2.33,2-11.23,2s-10.12-.22-11.23-2c-1.82-2.91-11.72-2.91-13.54,0a3.61,3.61,0,0,1-6.46,0,4.74,4.74,0,0,0-4-2,4.74,4.74,0,0,1-4-2,2.92,2.92,0,0,0-5.54,0,3.61,3.61,0,0,1-6.46,0,2.92,2.92,0,0,0-5.54,0c-1.08,1.73-2.33,2-9.23,2s-8.15-.27-9.23-2-2.33-2-8-2-7-.32-8-2-2.33-2-6-2-5-.46-6-2-2.33-2-6-2-5-.46-6-2c-1.19-1.91-2.33-2-26-2s-24.81-.09-26-2a4.74,4.74,0,0,0-4-2,4.74,4.74,0,0,1-4-2c-1-1.61-2.33-2-6.77-2s-5.76.39-6.77,2a4.78,4.78,0,0,1-4.24,2c-2.61,0-3,.36-3,2.8,0,4.59-1.48,5.2-12.73,5.2H220.72l-3.68,4c-2.6,2.83-4.49,4-6.47,4-2.72,0-2.79.15-2.79,5.48s.1,5.58,6,11.25c4.19,4,6,6.52,6,8.28a4.78,4.78,0,0,0,2,3.76,3.68,3.68,0,0,1,0,6.46,4.74,4.74,0,0,0-2,4,4.74,4.74,0,0,1-2,4c-1.9,1.19-2,2.33-2,22.77s.1,21.58,2,22.77c2.93,1.83,2.93,12.63,0,14.46-1.68,1-2,2.33-2,8s-.32,7-2,8-2,2.33-2,8-.32,7-2,8a4.75,4.75,0,0,0-2,3.8c0,1.7-1.34,3.78-4,6.23s-4,4.54-4,6.2a4.75,4.75,0,0,1-2,3.77,4.79,4.79,0,0,0-2,3.65c0,3.39-5.79,9.09-9.25,9.11s-3.79,2.88-.75,4.78a3.68,3.68,0,0,1,0,6.46,4.74,4.74,0,0,0-2,4,4.74,4.74,0,0,1-2,4c-3.53,2.2-2.66,7.23,2,11.51,2.2,2,4,4.57,4,5.67,0,1.55.27,1.72,1.2.79.66-.66,2.8-1.2,4.75-1.19,7.5,0,13.68,11.71,8,15.22a4.74,4.74,0,0,0-2,3.81,6.17,6.17,0,0,1-1.2,3.76c-.93.93-.93,1.47,0,2.4a6.17,6.17,0,0,1,1.2,3.76,4.75,4.75,0,0,0,2,3.81,3.68,3.68,0,0,1,0,6.46,4.74,4.74,0,0,0-2,4,4.74,4.74,0,0,1-2,4,4.74,4.74,0,0,0-2,4,4.74,4.74,0,0,1-2,4c-1.42.89-2,2.33-2,5v3.76h9c7.91,0,9.14.24,10.24,2,1,1.54,2.33,2,6,2s5,.46,6,2c1.82,2.91,3.38,2.49,7.51-2l3.68-4h8.19"/><path class="cls-4" d="M479.79,1258.75l6,5.77c5.91,5.69,6,5.85,6,11.32,0,8.52-3.24,10.35-8.5,4.77l-3-3.18-.27,20.18c-.25,18.87-.4,20.26-2.25,21.42-1.65,1-2,2.34-2,8s-.32,7-2,8-2,2.33-2,8-.32,7-2,8a4.79,4.79,0,0,0-2,3.65c0,1.36-1.41,3.86-3.25,5.75-2.73,2.81-4,3.35-7.76,3.36-3.42,0-4.81.49-5.76,2"/><path class="cls-3" d="M432.6,1133.44c-1.73-1.45-3.89-3.45-6.05-5.65-4.33-4.4-8.41-8-9.08-8s-1.76.9-2.45,2c-1,1.54-2.33,2-6,2s-5,.46-6,2-2.33,2-5.23,2-4.32-.54-5.23-2c-1.7-2.72-7.81-2.76-9.49-.07a5.54,5.54,0,0,1-3.39,2.25c-2,.29-1.64.86,3,5.46,5.2,5.13,5.2,5.14,4.9,10.9-.35,6.62-2.31,8.88-5.8,6.7-1.1-.69-2-.91-2-.48s.9,1.33,2,2a4.59,4.59,0,0,1,2,3.44c0,1.7.27,1.92,1.2,1,.66-.66,3.81-1.2,7-1.2,4.71,0,6,.37,7,2s2.33,2,6,2,5,.46,6,2a4.75,4.75,0,0,0,3.8,2c1.7,0,3.78,1.34,6.23,4,3.25,3.54,4.2,4,8.2,4,3.44,0,4.82.48,5.77,2a4.75,4.75,0,0,0,3.81,2c4.81,0,6.79,4.84,3,7.23-3,1.86-2.59,4.77.64,4.77,1.84,0,4.26,1.59,8,5.25,5.74,5.64,6.54,8,3.38,10-1.38.86-2,2.33-2,4.77s.62,3.9,2,4.77a4.78,4.78,0,0,1,2,3.7c0,3.15,4.38,7.54,7.54,7.54a4.78,4.78,0,0,1,3.7,2,4.81,4.81,0,0,0,3.76,2c1.52,0,3.79,1.33,5.76,3.36l3.25,3.35v24.25"/><path class="cls-4" d="M522.52,1093.82a36,36,0,0,1-4,4.58c-4.47,4.54-5.81,5.34-9,5.36-2.67,0-4.1-.55-5-2s-2.33-2-6-2-5-.46-6-2c-.86-1.38-2.33-2-4.77-2s-3.9.62-4.77,2c-1.8,2.88-4.27,2.46-8-1.37-2.52-2.6-3.25-4.21-3.25-7.19s-.27-3.58-1.2-2.64a6.65,6.65,0,0,1-4,1.2c-2.6,0-2.8.29-2.8,4s.2,4,2.8,4c5,0,7.14,4.77,3.2,7.23-2.76,1.72-2.76,7.81,0,9.54,1.54,1,2,2.33,2,6s.46,5,2,6a3.79,3.79,0,0,1,.8,6c-.66.66-3.81,1.2-7,1.2-4.71,0-6-.37-7-2-1.6-2.56-3.94-2.56-5.54,0a3.79,3.79,0,0,1-6,.8c-.93-.93-1.47-.93-2.4,0a6.17,6.17,0,0,1-3.76,1.2,4.75,4.75,0,0,0-3.81,2,4.19,4.19,0,0,1-2.92,2c-.46,0-1.77-.9-3.5-2.35"/><path class="cls-3" d="M610.78,1535.79c1.53,0,3.68,1.25,5.51,3.18,2.88,3.06,3,3.1,3.32,1a5.56,5.56,0,0,1,2.25-3.42,4.77,4.77,0,0,0,1.93-3.76A6.17,6.17,0,0,1,625,1529c.93-.93.27-1.2-3-1.2-3.11,0-4.51-.52-5.44-2-1.63-2.61-3.16-2.53-6,.32-4.76,4.81-5,5.35-3.61,7.6A4.75,4.75,0,0,0,610.78,1535.79Z"/><path class="cls-3" d="M242.54,946.43c-.84.52-.47.95,1.16,1.33,5.52,1.3,5.17,7.19-.47,7.86a6.71,6.71,0,0,0-4.08,2c-1,1.4-.89,1.75.86,2.19,3.14.79,4.53,3.54,3,6-1.08,1.73-1,2,.56,2,2.78,0,4.21,2,4.21,6,0,2-.54,4.14-1.2,4.8-.93.93.18,1.2,5,1.2,5.11,0,6.41.35,7.44,2a2.92,2.92,0,0,0,5.54,0,4.78,4.78,0,0,1,3.7-2c3.07,0,7.54-4.36,7.54-7.35,0-3.65,1.93-4.65,9-4.65,5.48,0,6.77-.33,7.81-2a4.42,4.42,0,0,1,3.25-2c1.75,0,1.84-.25.75-2-2.23-3.57.07-5.45,7-5.79,5.26-.25,6.29,0,7.39,1.75,1.62,2.6,4,2.62,5.57,0,1-1.63,2.33-2,7-2,3.19,0,6.33.54,7,1.2.93.93,1.2.76,1.2-.79,0-1.1,1.8-3.65,4-5.67,3.53-3.25,4-4.2,4-8.2,0-3.44.48-4.82,2-5.77,1.92-1.2,2-2.33,2-26.77s-.08-25.57-2-26.77a4.16,4.16,0,0,1-2-2.88c0-2.44,10.13-12.3,12.66-12.33,2.27,0,15.34-12.27,15.34-14.37,0-.64-.9-1.73-2-2.42a4.75,4.75,0,0,1-2-3.77c0-1.66-1.36-3.78-4-6.2s-4-4.53-4-6.23a4.75,4.75,0,0,0-2-3.8,4.78,4.78,0,0,1-2-4.24v-3H334.2l-3.68-4c-4.28-4.65-9.3-5.53-11.51-2a4.74,4.74,0,0,1-4,2,4.74,4.74,0,0,0-4,2c-1,1.66-2.33,2-7.7,2-5.57,0-6.79.34-9,2.54-1.4,1.4-2.54,3.56-2.54,4.8a5.6,5.6,0,0,1-1.2,3.45c-.93.93-.79,1.2.64,1.2,2.23,0,8.54,5.91,8.54,8,0,2.5-6.42,8-9.33,8-2.23,0-2.64.44-2.64,2.8,0,4.54-1.53,5.2-12,5.2H266.2l-3.68-4c-2-2.2-4.12-4-4.66-4s-2.13,1.15-3.53,2.54c-1.93,1.93-2.54,3.58-2.54,6.8,0,2.34-.54,4.79-1.2,5.45-.93.93-.76,1.2.8,1.2,3,0,4.4,2,4.4,6.19,0,2.71-.57,4.15-2,5a4.74,4.74,0,0,0-2,4,4.74,4.74,0,0,1-2,4c-3.06,1.91-2.59,4.77.8,4.77,4.55,0,5.2,1.52,5.2,12.19,0,8.71-.22,9.93-2,11-1.54,1-2,2.33-2,6s-.46,5-2,6-2,2.33-2,6-.46,5-2,6a4.74,4.74,0,0,0-2,3.95C243.79,944.45,243.23,946,242.54,946.43Z"/><path class="cls-3" d="M659.79,483.79c1.87,0,2.13-.27,1.2-1.2s-1.47-.93-2.4,0S657.92,483.79,659.79,483.79Z"/><path class="cls-3" d="M437,657a5.18,5.18,0,0,1,3.2-1.2c1.56,0,1.73-.27.8-1.2-1.94-1.94-1.41-3.87,2.05-7.43s5.57-4.14,7.43-2.29c1.46,1.46,5.32-.95,5.32-3.32,0-1.48-.94-1.76-6-1.76-5.91,0-6,0-6,2.8,0,3.55-1.65,5.2-5.2,5.2-2.71,0-2.8.17-2.8,5.2C435.79,657,436.05,657.92,437,657Z"/><path class="cls-3" d="M478.73,595.79c1.62,0,3.3.56,3.75,1.25.56.86.91.54,1.13-1a5.6,5.6,0,0,1,2.25-3.49,4.77,4.77,0,0,0,1.93-4,4.74,4.74,0,0,1,2-4,4.74,4.74,0,0,0,2-4,5.29,5.29,0,0,1,2.19-4.24c1.2-.84,1.94-1.79,1.63-2.09s-2.75,1.7-5.44,4.46c-3.51,3.6-5.66,5-7.63,5-2.38,0-2.75.41-2.75,3a4.79,4.79,0,0,1-2,4.24C474.65,593,475.21,595.79,478.73,595.79Z"/><path class="cls-3" d="M861,81c.93-.93.93-1.47,0-2.4s-1.2-.67-1.2,1.2S860.05,81.92,861,81Z"/><path class="cls-3" d="M859.79,71.58c0-1.62-.3-1.9-1.11-1.09a1.92,1.92,0,0,0-.44,2.2Q859.78,75.21,859.79,71.58Z"/><path class="cls-3" d="M345.54,692.39c2.4,1.82,2.37,1.83,6.54-2.11,2.35-2.22,3.71-4.41,3.71-6a4.76,4.76,0,0,1,2-3.74c1.1-.69,2-1.68,2-2.21s-.54-.42-1.2.24a5.55,5.55,0,0,1-3.42,1.2c-2.25,0-11.38,8.2-11.38,10.22A4.25,4.25,0,0,0,345.54,692.39Z"/><path class="cls-3" d="M359.72,503.79a3.35,3.35,0,0,1,2.57,1,1.9,1.9,0,0,0,1.31,1c1.55-.07,4.19-2.8,4.19-4.33,0-2.54-7.14-2.25-8.77.36C357.93,503.53,358,503.79,359.72,503.79Z"/><path class="cls-3" d="M369.79,756.55a4.74,4.74,0,0,1,2,4,4.74,4.74,0,0,0,2,4,3.79,3.79,0,0,1,.8,6c-.93.93-.93,1.47,0,2.4a3.79,3.79,0,0,1-.8,6c-1.42.89-2,2.33-2,5,0,3.09.35,3.76,2,3.76s2-.67,2-2.8c0-5,4.77-7.14,7.23-3.2,1.6,2.56,3.94,2.56,5.54,0,2.39-3.83,7.23-1.85,7.23,3a4.75,4.75,0,0,0,2,3.81c3.94,2.46,1.82,7.23-3.2,7.23-2.74,0-2.8.12-2.8,5.76,0,4.68.38,6,2,7,1.46.91,2,2.33,2,5.23s-.54,4.32-2,5.23a4.79,4.79,0,0,0-2,3.65c0,3.39-5.79,9.09-9.25,9.11-2.43,0-2.75.39-2.75,3.21,0,2.49.27,2.93,1.2,2a3.79,3.79,0,0,1,6,.8c.87,1.38,2.33,2,4.77,2s3.9-.62,4.77-2a3.61,3.61,0,0,1,6.46,0c.87,1.38,2.33,2,4.77,2s3.9-.62,4.77-2c2.1-3.37,8-2.69,12,1.37,3.74,3.85,4.09,6.09,1.25,7.87-1.77,1.1-2,2.33-2,10.46,0,8.54.19,9.4,2.54,11.76,3.07,3.07,4.57,3.2,6.22.55a3.79,3.79,0,0,1,6-.8c.73.73,1.2,4.26,1.2,9,0,6.71-.28,8-2,9a2.91,2.91,0,0,0,0,5.54,3.61,3.61,0,0,1,0,6.46,4.78,4.78,0,0,0-2,3.65c0,1.55-1.86,4.29-5.25,7.74l-5.25,5.34-6.51,0c-5.41,0-6.72.36-7.76,2a3.61,3.61,0,0,1-6.46,0,4.74,4.74,0,0,0-4-2,4.74,4.74,0,0,1-4-2,4.24,4.24,0,0,0-3-2c-2.65,0-2.46,7.08.24,8.77s2.48,4.28-1,7.61c-1.67,1.58-2.79,3.12-2.48,3.44s1.25-.42,2.1-1.62c2.47-3.53,8.13-3,12.17,1.18,3.46,3.56,4,5.49,2,7.43-.93.93-.93,1.47,0,2.4a3.79,3.79,0,0,1-.8,6,4.79,4.79,0,0,0-2,3.65c0,3.34-13.77,17.11-17.12,17.11a4.79,4.79,0,0,0-3.65,2c-1,1.57-2.33,2-6.24,2-6.2,0-6.51,1.57-1.28,6.5,3.94,3.72,4.81,4.09,5.79,2.5.34-.55,3.2-1,6.35-1,5.41,0,5.94.23,9.41,4,2.26,2.46,4.57,4,6,4s3.74,1.54,6,4c3.4,3.7,4.08,4,9,4,4.21,0,5.55-.41,6.54-2,2.1-3.37,8-2.69,12,1.37,1.79,1.84,3.25,3.92,3.25,4.63s-2.36,3.68-5.25,6.62l-5.25,5.34-14.51,0c-13.41,0-14.6.17-15.76,2a4.78,4.78,0,0,1-3.7,2c-3.95,0-7.54,4.38-7.54,9.19,0,3.27-.66,4.77-3.25,7.44-2,2-4.24,3.35-5.76,3.36a4.81,4.81,0,0,0-3.76,2,4.78,4.78,0,0,1-4.24,2c-2.59,0-3,.37-3,2.75,0,3.1-5.6,9.25-8.41,9.25-.94,0-1.42.45-1.08,1,1,1.63,2.16,1.18,5.16-2,2.33-2.47,3.63-3,7.34-3,3.43,0,4.81-.48,5.76-2a4.74,4.74,0,0,1,4-2,4.74,4.74,0,0,0,4-2,3.61,3.61,0,0,1,6.46,0,4.76,4.76,0,0,0,3.76,2c1.53,0,3.69,1.25,5.51,3.18,2.67,2.82,3,3,3.36,1.25.61-3.21,14.49-16.43,17.25-16.43a4.79,4.79,0,0,0,3.65-2c.91-1.46,2.33-2,5.23-2s4.32.54,5.23,2a4.75,4.75,0,0,0,3.81,2,6.17,6.17,0,0,1,3.76,1.2c.93.93,1.47.93,2.4,0,.78-.78,4.83-1.2,11.53-1.2h10.33l3.68-4c4.07-4.43,6.6-5,8.49-2,1.07,1.71,2.33,2,8.77,2s7.7-.29,8.77-2,2.33-2,9.23-2,8.15.27,9.23,2c.86,1.38,2.33,2,4.77,2s3.9-.62,4.77-2a4.74,4.74,0,0,1,4-2,4.74,4.74,0,0,0,4-2,4.78,4.78,0,0,1,3.65-2c1.62,0,4.53-2.13,9-6.59,3.63-3.63,6.59-6.87,6.59-7.2s-.54-.07-1.2.59c-2,2-8.6,1.49-10-.8a4.75,4.75,0,0,0-3.81-2c-4.81,0-6.79-4.84-3-7.23a2.91,2.91,0,0,0,0-5.54c-3.83-2.39-1.85-7.23,3-7.23a4.75,4.75,0,0,0,3.81-2,4.78,4.78,0,0,1,4.24-2c2.66,0,3-.34,3-3a4.78,4.78,0,0,1,2-4.24,4.74,4.74,0,0,0,2-4,4.74,4.74,0,0,1,2-4c1.68-1,2-2.33,2-8s.32-7,2-8c2.92-1.82,2.52-3.09-2.58-8.19-4.06-4.06-5.08-4.58-9-4.58-3.33,0-4.72-.49-5.66-2a2.92,2.92,0,0,0-5.54,0,4.75,4.75,0,0,1-3.77,2c-1.66,0-3.78,1.36-6.2,4-2,2.2-4.37,4-5.22,4-2,0-8-6.25-8-8.34a4.16,4.16,0,0,1,2-2.88,4.74,4.74,0,0,0,2-4,4.74,4.74,0,0,1,2-4c1.38-.86,2-2.33,2-4.77s-.62-3.9-2-4.77a4.74,4.74,0,0,1-2-4,4.74,4.74,0,0,0-2-4c-1.54-1-2-2.33-2-6s-.46-5-2-6a4.74,4.74,0,0,1-2-4,4.74,4.74,0,0,0-2-4c-2.11-1.32-2.7-4.69-1-5.73s1.18-2.16-2-5.16c-1.65-1.56-3-3.86-3-5.12s-1.57-3.73-4-6-4-4.58-4-5.92c0-2.83-4.42-7.34-7.18-7.34-3.06,0-12.76-9.87-12.79-13a4.87,4.87,0,0,0-2-3.76c-2.93-1.83-2.93-12.63,0-14.46,1.31-.82,2-2.33,2-4.4,0-2.67-1.61-4.77-10.61-13.76-7-7-11.34-10.6-12.8-10.6a5.5,5.5,0,0,1-3.4-1.2c-.93-.93-1.47-.93-2.4,0-.66.66-2.8,1.2-4.75,1.19-2.7,0-4.33-.81-6.8-3.36-1.79-1.84-3.25-4-3.24-4.74,0-2.83,6.38-7.73,10.46-8.07l3.9-.32-3.19-3c-4.56-4.29-3.83-8.5,1.47-8.5,3,0,7.35-4.47,7.35-7.54a4.78,4.78,0,0,1,2-3.7,4.74,4.74,0,0,0,2-4,4.74,4.74,0,0,1,2-4,4.74,4.74,0,0,0,2-4,4.74,4.74,0,0,1,2-4,4.74,4.74,0,0,0,2-4,4.74,4.74,0,0,1,2-4,4.75,4.75,0,0,0,2-3.81,6.06,6.06,0,0,1,1.08-3.64c.78-.78.71-1.68-.24-3.2-1.23-2-2.17-2.12-14.07-2.12-11.67,0-12.86-.17-14-2-1-1.61-2.33-2-6.77-2s-5.76.39-6.77,2a4.77,4.77,0,0,1-4.18,2c-2.55,0-3,.41-3.24,3.15-.38,3.83-3,5.84-5.56,4.24-1.27-.79-1.83-2.69-2.05-6.83-.35-6.59.79-8.56,4.92-8.56,2.21,0,2.88-.46,2.88-2s-.67-2-2.8-2c-3.06,0-5.2-1.58-5.2-3.84s6.28-8.13,8.78-8.15c1.37,0,3.75-1.6,6-4s4.58-4,5.92-4,3.39-1.15,4.79-2.55c2.11-2.1,2.55-3.49,2.55-8s-.3-5.45-1.76-5.45a4.24,4.24,0,0,0-3,2c-1.17,1.87-2.33,2-18.24,2h-17v2.79c0,2-1.17,3.86-4,6.47-3.86,3.55-4,3.9-4,10,0,6.79-1,8.73-4.66,8.73-3.91,0-7.34,4.46-7.34,9.54,0,3.36-.49,4.75-2,5.7a2.91,2.91,0,0,0,0,5.54c1.73,1.08,2,2.33,2,9.23s-.27,8.15-2,9.23c-1.54,1-2,2.33-2,6s-.46,5-2,6a2.91,2.91,0,0,0,0,5.54Z"/><path class="cls-3" d="M358.59,714.59a6.65,6.65,0,0,1-4,1.2c-3.38,0-3.86,2.85-.8,4.77a4.79,4.79,0,0,1,2,4.24c0,2.7.31,3,3.2,3,2.49,0,2.93-.27,2-1.2-.67-.67-1.2-3.87-1.2-7.2C359.79,714.72,359.52,713.65,358.59,714.59Z"/><path class="cls-3" d="M655.79,1513.79c0-1.24-.67-2-1.76-2a4.24,4.24,0,0,0-3,2c-1.14,1.83-1,2,1.76,2C655.12,1515.79,655.79,1515.34,655.79,1513.79Z"/><path class="cls-3" d="M807.79,1410.53c2.35,2.16,4,4.59,4,5.89,0,3,8.45,11.37,11.52,11.37a4.19,4.19,0,0,1,3.17,1.25c.45.69.94-3.32,1.09-9,.25-8.94.54-10.42,2.25-11.49,2.88-1.8,2.85-11.71,0-13.51-1.54-1-2-2.33-2-6s-.46-5-2-6a4.58,4.58,0,0,1-2-3.44c0-1.7-.27-1.92-1.2-1a5.55,5.55,0,0,1-3.42,1.2c-3.07,0-11.38,8.45-11.38,11.57a4.79,4.79,0,0,1-2,3.66c-1.59,1-2,2.33-2,6.54C803.79,1406.45,804.09,1407.12,807.79,1410.53Z"/><path class="cls-3" d="M783.79,802.54c0,1.8-1.1,3.79-3.18,5.75-2.82,2.66-3,3-1.25,3.34a6.68,6.68,0,0,1,2.93,1.31c.65.63,1.11.24,1.32-1.14a5.48,5.48,0,0,1,2.25-3.3c1.35-.84,1.93-2.33,1.93-5,0-3.09-.36-3.76-2-3.76S783.79,800.45,783.79,802.54Z"/><path class="cls-3" d="M1753.22,1446.49a68.88,68.88,0,0,1-7.82,10.1c-5.7,6-17.41,14.2-20.37,14.2s-7.25,3.8-7.25,6.34c0,2.26-9.34,14.66-11,14.66-.53,0-.95,2.36-.93,5.25,0,4.91.23,5.36,3.25,6.86q6.39,3.2,8.78.32c2.09-2.52,6.57-4.43,10.39-4.43,3,0,3.55-.33,3.55-2.31,0-3.65,2.16-5.7,8-7.63,5.4-1.77,5.46-1.83,5.13-5.43s-.19-3.64,2.81-3.64c4.15,0,9-5.15,9-9.54,0-2.55-.62-3.39-3.47-4.75-5.43-2.59-5.53-5.38-.53-15.33C1757.43,1441.93,1757.72,1438.81,1753.22,1446.49Z"/><path class="cls-3" d="M639.79,621.79a2.11,2.11,0,0,0,1.5-1c.34-.55-.34-1-1.5-1s-1.84.45-1.5,1A2.1,2.1,0,0,0,639.79,621.79Z"/><path class="cls-3" d="M961.54,676.39a7.55,7.55,0,0,0,2.25,1.33c1.63,0,4-3,4-5.1a5.82,5.82,0,0,1,1.08-3.52c1.28-1.28-.33-4.37-3.23-6.18a2.94,2.94,0,0,0-3.7,0c-2.9,1.81-4.51,4.9-3.23,6.18a5.82,5.82,0,0,1,1.08,3.52A5.3,5.3,0,0,0,961.54,676.39Z"/><path class="cls-3" d="M1041,574.59c-.93-.93-1.47-.93-2.4,0s-.67,1.2,1.2,1.2S1041.92,575.52,1041,574.59Z"/><path class="cls-3" d="M809.79,807c-1.38.86-2,2.33-2,4.77s.62,3.9,2,4.77a3.79,3.79,0,0,1,.92,5.91c-.78.78-.71,1.68.24,3.2,1.66,2.66,4,2.71,5.61.12a4.78,4.78,0,0,1,4.24-2h3v-11c0-9.91.2-11.12,2-12.24,1.42-.89,2-2.33,2-5,0-3.68-.08-3.76-3.76-3.76-2.68,0-4.12.58-5,2a4.74,4.74,0,0,1-4,2c-3.22,0-6.09,3.54-4.31,5.32A3.79,3.79,0,0,1,809.79,807Z"/><path class="cls-3" d="M1035.79,602c0,1.46.91,1.76,5.45,1.76s5.89-.44,8-2.55c1.4-1.4,2.55-3.56,2.55-4.8A5.6,5.6,0,0,1,1053,593c.93-.93-.4-1.2-6-1.2h-7.2v3a4.79,4.79,0,0,1-2,4.24A4.23,4.23,0,0,0,1035.79,602Z"/><path class="cls-3" d="M1408.74,1339.79a4.75,4.75,0,0,0,3.81-2,4.74,4.74,0,0,1,4-2,4.74,4.74,0,0,0,4-2c1.14-1.82,1-2-1.52-2a4.74,4.74,0,0,0-4,2,4.78,4.78,0,0,1-3.7,2c-2.19,0-7.54,4.08-7.54,5.75,0,.36.54.12,1.2-.54A6.17,6.17,0,0,1,1408.74,1339.79Z"/><path class="cls-3" d="M799.79,1469.54a4.24,4.24,0,0,0,2,3,4.74,4.74,0,0,1,2,4,4.74,4.74,0,0,0,2,4,4.74,4.74,0,0,1,2,4,4.74,4.74,0,0,0,2,4c1.68,1,2,2.33,2,8s.32,7,2,8a3.61,3.61,0,0,1,0,6.46,2.91,2.91,0,0,0,0,5.54c1.75,1.09,2,2.33,2,10s.25,8.91,2,10a4.79,4.79,0,0,1,2,4.24c0,2,.51,3,1.45,3,2.18,0,6.55-4.79,6.55-7.19,0-1.15,1.46-3.6,3.25-5.44,2.91-3,3.83-3.35,8.8-3.36,3.05,0,6.09.53,6.75,1.19.93.93,1.2-5.68,1.2-29.76,0-29.88-.07-31-2-32.21a4.74,4.74,0,0,1-2-4,4.74,4.74,0,0,0-2-4,4.78,4.78,0,0,1-2-3.7,8.72,8.72,0,0,0-2.55-5c-2.11-2.1-3.49-2.54-8-2.54-5.23,0-5.45.11-5.45,2.65,0,2-1.92,4.57-7.36,10-7,7-7.56,7.35-12,7.35C800.66,1467.79,799.79,1468.12,799.79,1469.54Z"/><path class="cls-3" d="M1391,1589.79a4.78,4.78,0,0,1-4.24,2c-3.65,0-3.91,1.93-.74,5.36,2.8,3,4.9,3.23,6.52.64,1-1.68,2.33-2,8-2s7-.32,8-2a4.42,4.42,0,0,1,3.25-2c1.7,0,1.82-.28.84-1.85-1.81-2.9-4.9-4.51-6.18-3.23-.6.59-4,1.08-7.64,1.08C1393.35,1587.79,1392.06,1588.12,1391,1589.79Z"/><path class="cls-3" d="M1053.79,1568.55a4.74,4.74,0,0,0,2-4,5.3,5.3,0,0,1,2-4.14c1.78-1.25,2-2.32,1.75-8.24l-.3-6.8-3,3.18c-2.75,2.92-3.52,3.18-9.23,3.18h-6.23l-11.54,12h-6.51c-5.42,0-6.72.34-7.76,2-.91,1.46-2.33,2-5.23,2s-4.32-.54-5.23-2a4.74,4.74,0,0,0-4-2,4.74,4.74,0,0,1-4-2,2.92,2.92,0,0,0-5.54,0,4.74,4.74,0,0,1-4,2,4.74,4.74,0,0,0-4,2c-.91,1.46-2.33,2-5.23,2s-4.32-.54-5.23-2c-1.66-2.65-3.16-2.52-6.22.54s-3.2,4.57-.54,6.22a4.78,4.78,0,0,1,2,3.7c0,4.09,4.37,7.54,9.54,7.54,3.36,0,4.75.49,5.7,2,1,1.68,2.33,2,8,2s7,.32,8,2a4.74,4.74,0,0,0,4,2,4.74,4.74,0,0,1,4,2,4.74,4.74,0,0,0,4,2,4.74,4.74,0,0,1,4,2c1.09,1.75,2.33,2,10,2s8.91.25,10,2a4.74,4.74,0,0,0,4,2,4.74,4.74,0,0,1,4,2,4.74,4.74,0,0,0,4,2,4.74,4.74,0,0,1,4,2,2.92,2.92,0,0,0,5.54,0,4.78,4.78,0,0,1,4.24-2c2.66,0,3-.34,3-3a4.78,4.78,0,0,1,2-4.24,2.91,2.91,0,0,0,0-5.54,4.78,4.78,0,0,1-2-4.24c0-2.57-.37-3-2.64-3-1.63,0-3.93-1.25-6-3.25-3-2.94-3.35-3.8-3.36-9C1051.79,1570.88,1052.16,1569.57,1053.79,1568.55Z"/><path class="cls-3" d="M1049.54,1647.79c-1.09,0-1.76.76-1.76,2,0,1.56.67,2,3,2,2.76,0,2.9-.17,1.76-2A4.24,4.24,0,0,0,1049.54,1647.79Z"/><path class="cls-3" d="M1333.22,1487.79c-.53,0-1.52.9-2.21,2-.91,1.46-2.33,2-5.23,2s-4.32-.54-5.23-2-2.33-2-4.77-2-3.9.62-4.77,2c-1,1.68-2.33,2-8,2s-7,.32-8,2a4.74,4.74,0,0,1-4,2,4.74,4.74,0,0,0-4,2c-1,1.57-2.33,2-6.24,2-4.86,0-5,.08-5,2.94,0,1.62-.45,3.22-1,3.56-1.71,1.05-1.17,2,4.54,7.82,3.41,3.49,6.39,5.68,7.75,5.69s3.67,1.52,5.46,3.36c3,3.07,3.25,3.88,3.25,9.75,0,5.32.34,6.62,2,7.65a4.79,4.79,0,0,1,2,4.24c0,2.32.45,3,2,3s2-.67,2-2.8c0-3.48,1.64-5.2,5-5.2a4.75,4.75,0,0,0,3.81-2c2-3.12,4.34-2.37,9.58,3,2.67,2.74,5.22,5,5.67,5s2.09-1.35,3.65-3q4.94-5.23,7.57-1a4.24,4.24,0,0,0,3,2c1.34,0,1.76-.82,1.76-3.44,0-3-1.07-4.5-8-11.32-5.67-5.58-8-8.58-8-10.32a4.78,4.78,0,0,0-2-3.69c-2.29-1.43-2.82-8-.8-10s8.6-1.49,10,.8a4.74,4.74,0,0,0,4,2,4.74,4.74,0,0,1,4,2,2.92,2.92,0,0,0,5.54,0c1.06-1.7,1-2-.4-2-2,0-16.36-14.15-16.36-16.16a4.4,4.4,0,0,1,1.2-2.64C1333.64,1488.33,1333.75,1487.79,1333.22,1487.79Z"/><path class="cls-3" d="M1417.69,1591.29l5.88.29c5.42.27,6.15.6,9.3,4.18,3.86,4.4,5.87,4.93,7.68,2a4.74,4.74,0,0,1,4-2,4.74,4.74,0,0,0,4-2,4.74,4.74,0,0,1,4-2,4.74,4.74,0,0,0,4-2,4.74,4.74,0,0,1,4-2,4.74,4.74,0,0,0,4-2,4.74,4.74,0,0,1,4-2,4.74,4.74,0,0,0,4-2,4.78,4.78,0,0,1,3.7-2c2.19,0,7.54-4.08,7.54-5.75,0-.36-.54-.11-1.2.55a6.17,6.17,0,0,1-3.76,1.2,4.75,4.75,0,0,0-3.81,2c-1.14,1.83-2.33,2-14,2s-12.86.17-14,2-2.33,2-11.74,2h-10.49Z"/><text class="cls-5" transform="translate(650.34 1119.79)">Eu<tspan class="cls-6" x="54.14" y="0">r</tspan><tspan x="74.15" y="0">opa am Rande</tspan></text><use id="Pfeil_3-3" data-name="Pfeil 3" width="51.6" height="44.96" transform="translate(84.28 1624.68)" xlink:href="#Pfeil_3"/></svg>