<!-- Generator: Adobe Illustrator 19.1.0, SVG Export Plug-In . SVG Version: 6.00 Build 0)  -->
<svg xmlns:cc="http://web.resource.org/cc/" xmlns:sodipodi="http://sodipodi.sourceforge.net/DTD/sodipodi-0.dtd" xmlns:rdf="http://www.w3.org/1999/02/22-rdf-syntax-ns#" xmlns:dc="http://purl.org/dc/elements/1.1/" xmlns:svg="http://www.w3.org/2000/svg" xmlns:inkscape="http://www.inkscape.org/namespaces/inkscape" xmlns="http://www.w3.org/2000/svg" xmlns:xlink="http://www.w3.org/1999/xlink" version="1.1" id="svg1948" sodipodi:version="0.32" inkscape:version="0.44" sodipodi:docname="Blank Map of Europe - no boundaries.svg" sodipodi:docbase="e:\" x="0px" y="0px" viewBox="0 0 2290.785 2186.785" enable-background="new 0 0 2290.785 2186.785" xml:space="preserve">
<style>
    .clickable:hover {
      stroke: red;
      stroke-width: 24;
    }
    </style><sodipodi:namedview inkscape:window-width="1024" inkscape:window-height="708" inkscape:showpageshadow="true" inkscape:current-layer="svg1948" inkscape:window-y="-4" inkscape:window-x="-4" inkscape:pageopacity="0.0" inkscape:pageshadow="2" id="base" inkscape:zoom="0.17285649" bordercolor="#666666" gridtolerance="10.0" objecttolerance="10.0" guidetolerance="10.0" inkscape:cy="1090.5" showborder="true" pagecolor="#ffffff" borderopacity="1.0" inkscape:cx="1142.5">
	</sodipodi:namedview>
<path fill="none" stroke="#A6AEA4" stroke-width="12" stroke-linecap="round" stroke-linejoin="round" stroke-miterlimit="10" d="  M227.785,961.785c0,1.242,0.666,2,1.759,2c0.968,0,2.322-0.9,3.009-2c1.145-1.834,0.999-2-1.76-2  C228.451,959.785,227.785,960.229,227.785,961.785z"/>
<path fill="none" stroke="#A6AEA4" stroke-width="12" stroke-linecap="round" stroke-linejoin="round" stroke-miterlimit="10" d="  M67.785,275.785c1.866,0,2.133-0.267,1.2-1.2c-0.934-0.933-1.467-0.933-2.4,0C65.652,275.519,65.918,275.785,67.785,275.785z"/>
<path fill="none" stroke="#A6AEA4" stroke-width="12" stroke-linecap="round" stroke-linejoin="round" stroke-miterlimit="10" d="  M57.785,308.553c1.212,0.757,2,2.332,2,4c0,1.668,0.787,3.243,2,4c1.212,0.757,2,2.332,2,4c0,1.668,0.787,3.243,2,4  c1.212,0.757,2,2.332,2,4c0,1.668,0.787,3.243,2,4c1.141,0.712,2,2.332,2,3.771c0,1.664,1.362,3.775,4,6.2  c2.2,2.023,4,4.324,4,5.113c0,2.049-6.166,8.124-8.259,8.137c-1.508,0.009-1.58,0.296-0.51,2.011c0.758,1.212,2.332,2,4,2  c1.668,0,3.243,0.787,4,2c0.688,1.1,1.933,2,2.769,2c0.835,0,2.081-0.9,2.768-2c0.688-1.1,2.033-1.99,2.99-1.977  c2.682,0.035,12.242,10.264,12.242,13.098c0,1.319,0.899,2.96,2,3.647c1.275,0.797,2,2.332,2,4.24c0,2.608,0.358,2.992,2.791,2.992  c1.977,0,3.864,1.167,6.469,4c2.425,2.638,4.537,4,6.2,4c1.439,0,3.06,0.858,3.771,2c0.965,1.544,2.332,2,6,2  c3.668,0,5.036,0.456,6,2c0.89,1.424,2.332,2,5.009,2c3.398,0,3.76-0.254,3.76-2.644c0-3.047,5.54-9.329,8.241-9.346  c0.958-0.006,2.304,0.889,2.99,1.989c1.148,1.836,2.332,2,14.49,2h13.24l5.769-5.995c5.373-5.585,6.077-5.996,10.277-6  c3.424-0.004,4.811-0.487,5.759-2.005c0.688-1.1,2.142-2,3.232-2c1.091,0,2.545,0.9,3.231,2c0.688,1.1,1.791,2,2.452,2  c0.662,0,4.746-3.6,9.075-8c7.618-7.741,8.024-8,12.557-8h4.685v-4.992c0-3.908,0.434-5.262,2-6.24c1.384-0.865,2-2.332,2-4.768  c0-2.436-0.616-3.903-2-4.768c-1.142-0.713-2-2.332-2-3.772c0-1.663-1.362-3.775-4-6.2c-2.66-2.446-4-4.533-4-6.229  c0-1.468-0.85-3.081-2-3.8c-3.022-1.888-2.426-4.423,2-8.492c3.217-2.957,4-4.369,4-7.208c0-3.152-0.284-3.531-2.645-3.531  c-1.954,0-4.567-1.922-10-7.355c-7.387-7.386-8.375-9.225-6.154-11.445c0.933-0.934,0.933-1.467,0-2.4  c-0.66-0.66-1.2-2.014-1.2-3.008c0-1.558-0.277-1.636-2-0.56c-1.508,0.942-2,2.332-2,5.652c0,3.615-0.582,5.002-3.25,7.749  c-3.942,4.059-9.879,4.735-11.982,1.367c-0.687-1.1-1.933-2-2.768-2c-0.836,0-2.081,0.9-2.769,2c-1.888,3.022-4.423,2.425-8.492-2  c-2.022-2.2-4.007-4-4.408-4c-0.402,0-0.191,0.54,0.469,1.2c1.553,1.552,1.553,8.047,0,9.6c-0.66,0.66-2.82,1.2-4.8,1.2  c-4.25,0-6-1.447-6-4.96c0-1.477-0.847-3.088-2-3.809c-1.483-0.926-2-2.332-2-5.44c0-3.26-0.267-3.925-1.2-2.992  c-0.66,0.66-3.149,1.2-5.531,1.2c-3.773,0-4.805,0.515-8.009,4c-2.022,2.2-4.393,4-5.268,4c-2.341,0-3.991-2.051-3.991-4.96  c0-1.477-0.847-3.088-2-3.809c-1.75-1.093-2-0.999-2,0.751c0,1.1-0.9,2.562-2,3.249c-1.154,0.721-2,2.332-2,3.809  c0,3.726-1.792,4.96-7.2,4.96c-4.522,0-4.8,0.152-4.8,2.643c0,4.095-5.633,9.333-10.05,9.346c-5.508,0.017-5.95-1.038-5.95-14.181  c0-10.708,0.184-11.906,2-13.041c1.212-0.757,2-2.332,2-4c0-1.668,0.787-3.243,2-4c2.761-1.725,2.761-7.812,0-9.536  c-1.142-0.712-2-2.332-2-3.772c0-1.663-1.362-3.775-4-6.201c-2.2-2.022-4-4.573-4-5.668c0-1.428-0.307-1.686-1.082-0.909  c-0.776,0.776-0.708,1.681,0.24,3.2c1.097,1.757,1.097,2.48,0,4.236c-0.948,1.519-1.017,2.424-0.24,3.2  c1.469,1.469,1.376,11.988-0.118,13.482c-2.148,2.148-4.212,1.244-9.55-4.184c-3.658-3.72-5.25-6.138-5.25-7.977  c0-1.972-0.506-2.639-2-2.639c-1.524,0-2,0.667-2,2.8c0,1.54-0.54,3.34-1.2,4c-0.934,0.934-0.934,1.467,0,2.4  c1.553,1.552,1.553,8.047,0,9.6c-0.934,0.934-0.713,1.2,0.991,1.2c1.205,0,2.754,0.9,3.44,2c0.701,1.122,2.352,2.01,3.759,2.023  c2.73,0.025,13.01,9.579,13.01,12.091c0,0.766-1.429,2.741-3.176,4.389c-2.822,2.664-2.961,3.036-1.25,3.354  c5.306,0.986,5.709,4.375,1.059,8.893c-3.846,3.736-6.09,4.093-7.865,1.25c-1.143-1.83-2.332-2-14-2c-11.668,0-12.858-0.17-14-2  c-0.687-1.1-2.041-2-3.009-2C55.139,303.785,55.301,307.002,57.785,308.553z"/>
<a xlink:href="/galleries/ear-normandie1/" target="_top"><svg:path fill="none" stroke="#192061" stroke-width="12" stroke-linecap="round" stroke-linejoin="round" stroke-miterlimit="10" d="  M583.876,1016.874c-2.257,2.005-3.861,2.905-5.101,2.907c-1.423,0.003-3.051,0.871-3.759,2.005c-0.696,1.114-2.332,2-3.695,2  c-1.345,0-3.591,1.145-4.991,2.546c-2.489,2.489-2.545,2.86-2.545,16.8c0,15.415-0.388,16.654-5.2,16.654  c-2.36,0-2.8,0.415-2.8,2.644c0,1.63-1.247,3.927-3.25,5.989c-2.733,2.814-3.967,3.348-7.76,3.356  c-3.419,0.008-4.812,0.494-5.759,2.011c-0.942,1.509-2.332,2-5.661,2c-3.908,0-4.936,0.523-8.992,4.579  c-5.097,5.097-5.496,6.366-2.578,8.188" class="clickable"/>
</a>
<a xlink:href="/galleries/ear-belgien/" target="_top"><svg:path fill="none" stroke="#192061" stroke-width="12" stroke-linecap="round" stroke-linejoin="round" stroke-miterlimit="10" d="  M633.785,967.018c-3.528,2.203-2.655,7.228,2,11.508c2.199,2.023,4,4.323,4,5.112c0,2.302-6.284,8.125-8.781,8.137  c-1.373,0.007-3.746,1.604-5.959,4.011l-3.678,4h-16.645l-3.678,4c-2.22,2.414-4.579,4-5.95,4c-1.47,0-4.311,2.119-8.041,5.995  c-1.186,1.232-2.238,2.259-3.178,3.093" class="clickable"/>
</a>
<path fill="none" stroke="#A6AEA4" stroke-width="12" stroke-linecap="round" stroke-linejoin="round" stroke-miterlimit="10" d="  M823.025,852c-2.698,0.241-3.359,0.745-4.008,1.785c-1.014,1.623-2.332,2-6.993,2c-5.088,0-6.069-0.344-8.577-3  c-2.997-3.176-4.157-3.625-5.161-2c-0.341,0.55-2.388,1-4.551,1c-2.85,0-4.276-0.551-5.182-2c-0.688-1.1-2.328-2-3.648-2  c-3.13,0-13.065-9.638-13.098-12.705c-0.03-2.876-4.493-7.295-7.368-7.295c-4.184,0-4.654-1.619-4.654-15.991v-13.591l4-3.678  c2.637-2.426,4-4.537,4-6.201c0-1.439,0.858-3.059,2-3.771c1.212-0.757,2-2.332,2-4c0-1.668,0.787-3.242,2-4  c1.212-0.757,2-2.332,2-4c0-1.668,0.787-3.242,2-4c1.212-0.757,2-2.332,2-4c0-1.668,0.787-3.242,2-4c1.153-0.721,2-2.332,2-3.809  c0-1.407,0.539-3.099,1.199-3.759c0.934-0.934-0.098-1.2-4.639-1.2c-5.698,0-5.966-0.126-11.177-5.25  c-5.738-5.643-6.541-8.011-3.384-9.982c1.798-1.123,2-2.332,2-12c0-9.668,0.201-10.877,2-12c2.83-1.768,2.756-7.815-0.118-9.609  c-1.52-0.948-2.424-1.017-3.2-0.24c-0.595,0.595-2.097,1.082-3.337,1.082c-2.838,0-7.345,4.412-7.345,7.19  c0,3.052-14.008,16.81-17.115,16.81c-1.322,0-2.966,0.9-3.653,2c-0.797,1.276-2.332,2-4.24,2c-2.655,0-2.991,0.336-2.991,2.991  c0,1.909-0.725,3.444-2,4.241c-1.812,1.131-2,2.332-2,12.768c0,10.435,0.188,11.637,2,12.768c1.212,0.758,2,2.332,2,4  c0,1.668,0.787,3.243,2,4c1.544,0.965,2,2.332,2,6c0,3.668,0.455,5.036,2,6c1.544,0.965,2,2.332,2,6c0,3.668,0.455,5.036,2,6  c1.544,0.965,2,2.332,2,6c0,3.668,0.455,5.036,2,6c1.855,1.159,2,2.332,2,16.241v14.991h2.643c1.629,0,3.927,1.246,5.989,3.25  c3.53,3.43,4.146,5.571,2.167,7.55c-0.934,0.934-0.934,1.467,0,2.4c0.66,0.66,1.2,2.352,1.2,3.759c0,1.477,0.846,3.088,2,3.809  c2.106,1.316,2.694,4.685,1,5.732c-1.626,1.005-1.177,2.164,2,5.162c5.567,5.255,3.477,8.338-5.655,8.338  c-5.368,0-6.615,0.36-8.8,2.545c-3.22,3.22-3.472,8.396-0.499,10.252c1.762,1.1,2.006,2.131,1.75,7.387  c-0.219,4.508-0.755,6.396-2.046,7.207c-2.279,1.432-4.999-0.207-5.771-3.476c-0.384-1.628-0.811-1.998-1.332-1.155  c-0.98,1.587-7.872,1.616-9.448,0.04c-0.66-0.66-1.199-3.359-1.199-6v-4.8h-24v6.8c0,3.956-0.502,7.302-1.2,8  c-1.814,1.814-4.633,1.441-6.032-0.8c-1.596-2.556-3.94-2.556-5.536,0c-0.757,1.213-2.332,2-4,2c-1.668,0-3.242,0.787-4,2  c-1.399,2.241-4.218,2.614-6.032,0.8c-0.933-0.934-1.467-0.934-2.399,0c-0.66,0.66-3.36,1.2-6,1.2c-4.537,0-4.8,0.146-4.8,2.674  c0,2.06-2.295,4.943-10,12.568c-9.668,9.567-10,10.043-10,14.318c0,3.34-0.49,4.729-2,5.672c-1.213,0.757-2,2.332-2,4  s-0.788,3.242-2,4c-1.545,0.964-2,2.332-2,6c0,1.46-0.072,2.555-0.256,3.405"/>
<a xlink:href="/galleries/ear-meckbucht/" target="_top"><svg:path fill="none" stroke="#192061" stroke-width="12" stroke-linecap="round" stroke-linejoin="round" stroke-miterlimit="10" d="  M902.97,853.71c1.744,2.792,0.047,5.466-3.753,5.912c-1.576,0.185-3.469,1.198-4.206,2.25c-1.987,2.839-12.672,2.773-14.458-0.087  c-0.758-1.213-2.332-2-4-2c-1.668,0-3.243-0.787-4-2c-1.123-1.799-2.332-2-12-2c-9.668,0-10.877-0.201-12-2  c-1.149-1.84-2.332-2-14.768-2c-5.406,0-8.686,0.03-10.76,0.215" class="clickable"/>
</a>
<path fill="none" stroke="#A6AEA4" stroke-width="12" stroke-linecap="round" stroke-linejoin="round" stroke-miterlimit="10" d="  M1310.035,10.631c-1.238,1.086-2.25,2.979-2.25,4.207c0,3.092-5.88,8.922-9.01,8.936c-1.418,0.006-3.053,0.881-3.759,2.011  c-1.754,2.809-8.71,2.809-10.464,0c-0.758-1.213-2.332-2-4-2s-3.243-0.787-4-2c-1.596-2.556-3.94-2.556-5.536,0  c-1.604,2.567-4.86,2.567-6.464,0c-1.827-2.926-7.029-2.648-10.223,0.545c-1.998,1.998-2.545,3.546-2.545,7.2  c0,3.62,0.266,4.388,1.199,3.455c2.017-2.017,8.602-1.492,10.032,0.8c0.706,1.13,2.341,2.005,3.759,2.011  c3.221,0.014,9.01,5.863,9.01,9.105c0,1.322,0.899,2.965,2,3.652c1.544,0.964,2,2.332,2,6c0,3.668,0.455,5.036,2,6  c2.929,1.83,2.929,12.634,0,14.464c-1.154,0.721-2,2.332-2,3.809c0,4.809-4.841,6.79-7.232,2.96c-1.725-2.761-7.812-2.761-9.536,0  c-0.944,1.513-2.332,2-5.695,2c-3.43,0-5.027,0.581-6.991,2.545c-3.193,3.194-3.472,8.395-0.545,10.223c1.625,1.015,2,2.332,2,7.032  c0,5.467-0.219,5.983-4,9.46c-2.639,2.425-4,4.537-4,6.2c0,1.44-0.859,3.059-2,3.771c-1.68,1.049-2,2.332-2,8s-0.321,6.952-2,8  c-1.624,1.014-2,2.332-2,7.009v5.759h6.991c5.908,0,7.185,0.31,8.24,2c1.049,1.679,2.332,2,8,2s6.951,0.321,8,2  c0.758,1.213,2.332,2,4,2s3.243,0.787,4,2c0.864,1.384,2.332,2,4.769,2c2.436,0,3.902-0.616,4.768-2c0.757-1.213,2.332-2,4-2  s3.242-0.787,4-2c1.604-2.567,4.86-2.567,6.464,0c0.706,1.13,2.341,2.005,3.759,2.011c2.725,0.012,9.01,5.693,9.01,8.145  c0,2.203-2.117,3.844-4.96,3.844c-1.477,0-3.088,0.846-3.809,2c-0.964,1.544-2.332,2-6,2s-5.036,0.456-6,2  c-1.754,2.809-8.71,2.809-10.464,0c-1.725-2.761-7.812-2.761-9.536,0c-0.978,1.566-2.332,2-6.24,2c-4.801,0-4.991,0.107-4.991,2.8  c0,4.448-1.586,5.2-10.96,5.2c-7.477,0-8.718,0.253-9.809,2c-0.797,1.276-2.332,2-4.24,2c-2.61,0-2.991,0.357-2.991,2.8  c0,3.11-1.592,5.203-3.95,5.195c-0.853-0.002-4.146-2.703-7.319-6l-5.769-5.995h-6.681c-5.197,0-6.415,0.267-5.481,1.2  c1.494,1.495,1.575,8.024,0.117,9.482c-0.775,0.776-0.708,1.681,0.241,3.2c1.045,1.675,2.317,2.118,6.073,2.118  c3.668,0,5.036,0.456,6,2c1.596,2.556,3.94,2.556,5.536,0c1.075-1.722,2.332-2,9.04-2c8.345,0,10.192,0.857,10.192,4.731  c0,1.44,1.528,3.737,4,6.009c3.237,2.977,4,4.36,4,7.26c0,2.899-0.763,4.283-4,7.26c-2.472,2.272-4,4.569-4,6.009  c0,4.276-1.557,4.731-16.192,4.731c-12.708,0-13.89-0.157-15.04-2c-0.758-1.213-2.332-2-4-2s-3.243-0.787-4-2  c-0.688-1.1-1.595-2-2.018-2c-0.422,0-0.204,0.901,0.483,2.003c1.927,3.085-0.115,5.436-5.043,5.802  c-3.261,0.243-4.369-0.117-5.389-1.75c-0.79-1.265-2.342-2.055-4.034-2.055c-1.668,0-3.243-0.787-4-2  c-0.706-1.13-2.341-2.005-3.759-2.011c-3.054-0.013-9.009-5.814-9.009-8.776c0-1.301-3.728-5.763-10-11.97l-10-9.896v-17.347h-2.992  c-1.908,0-3.443-0.724-4.24-2c-0.965-1.544-2.332-2-6-2s-5.036-0.456-6-2c-1.049-1.679-2.332-2-8-2s-6.951-0.321-8-2  c-0.758-1.213-2.332-2-4-2s-3.243-0.787-4-2c-0.758-1.213-2.332-2-4-2s-3.243-0.787-4-2c-0.719-1.151-2.332-2-3.8-2  c-1.688,0-3.771-1.327-6.158-3.924c-2.157-2.346-4.714-4.055-6.358-4.25c-3.498-0.415-5.374-3.139-3.84-5.576  c0.908-1.444,2.868-1.8,11.215-2.035c9.255-0.26,10.221-0.112,11.384,1.75c1.018,1.63,2.323,2.035,6.562,2.035  c4.893,0,5.566-0.301,8.968-4c4.069-4.425,6.604-5.022,8.492-2c1.596,2.556,3.94,2.556,5.536,0c1.094-1.752,2.332-2,10-2  s8.905-0.248,10-2c1.157-1.853,2.332-2,16-2s14.843-0.147,16-2c1.056-1.69,2.332-2,8.24-2c6.893,0,6.992-0.038,6.992-2.644  c0-3.289,5.627-9.331,8.704-9.346c2.953-0.015,7.296-4.507,7.296-7.548c0-1.363,0.885-2.999,2-3.695c1.212-0.757,2-2.332,2-4  c0-1.668,0.787-3.243,2-4c1.839-1.149,2-2.332,2-14.768c0-12.436-0.161-13.619-2-14.768c-1.115-0.696-2-2.332-2-3.695  c0-3.044-4.346-7.536-7.296-7.542c-1.383-0.003-4.356-2.241-7.974-6c-3.173-3.297-6.327-5.995-7.009-5.995  c-0.683,0-1.804,0.9-2.49,2c-1.604,2.567-4.86,2.567-6.464,0c-0.758-1.213-2.332-2-4-2s-3.243-0.787-4-2  c-1.596-2.556-3.94-2.556-5.536,0c-1.113,1.783-2.332,2-11.231,2c-8.9,0-10.119-0.217-11.232-2c-1.157-1.853-2.332-2-16-2  s-14.843-0.147-16-2c-1.18-1.889-2.332-2-20.768-2c-18.437,0-19.589,0.111-20.769,2c-0.757,1.213-2.332,2-4,2s-3.242,0.787-4,2  c-0.946,1.516-2.332,2-5.722,2c-4.158,0-4.879,0.422-10.241,5.995c-7.913,8.224-11.269,7.868-11.269-1.195  c0-3.915-0.325-4.8-1.76-4.8c-0.968,0-2.322,0.9-3.009,2c-1.075,1.722-2.332,2-9.04,2c-8.565,0-10.192-0.831-10.192-5.2  c0-2.133-0.476-2.8-2-2.8c-1.523,0-2,0.667-2,2.8c0,4.61-1.47,5.2-12.959,5.2c-9.477,0-10.688,0.205-11.809,2  c-1.829,2.93-12.635,2.93-14.464,0c-0.721-1.154-2.332-2-3.809-2c-3.513,0-4.959-1.75-4.959-6c0-4.685,1.458-6,6.654-6  c4.973,0,9.346-3.526,9.346-7.537c0-1.363,0.885-2.999,2-3.695c3.156-1.972,2.574-4.768-0.992-4.768c-1.908,0-3.443-0.724-4.24-2  c-0.758-1.213-2.332-2-4-2c-1.668,0-3.243-0.787-4-2c-1.596-2.556-3.94-2.556-5.536,0c-1.603,2.567-4.86,2.567-6.464,0  c-1.657-2.653-3.155-2.522-6.223,0.545s-3.198,4.565-0.545,6.223c1.425,0.89,1.996,2.324,1.989,4.99  c-0.015,5.081-5.127,10.242-10.146,10.242c-5.326,0-5.843-1.167-5.843-13.2v-10.8h-3.455c-2.368,0-4.255,0.801-6,2.545  c-3.067,3.067-3.198,4.565-0.545,6.223c1.722,1.075,2,2.332,2,9.041c0,7.799-0.902,10.191-3.844,10.191  c-2.057,0-8.134-6.162-8.147-8.258c-0.009-1.508-0.295-1.581-2.01-0.51c-1.884,1.176-2,2.332-2,19.809  c0,13.102-0.353,18.913-1.2,19.759c-1.553,1.553-8.048,1.553-9.601,0c-2.017-2.017-1.491-8.601,0.801-10.032  c1.1-0.687,2-1.595,2-2.017c0-0.422-0.902-0.205-2.004,0.483c-1.483,0.926-2.457,0.966-3.75,0.151  c-1.469-0.924-1.791-2.94-2.027-12.675c-0.264-10.84-0.142-11.706,1.927-13.632c1.215-1.132,1.96-2.306,1.656-2.61  c-0.305-0.304-1.845,0.816-3.425,2.49c-1.848,1.958-3.852,3.042-5.624,3.042h-2.753v10.992c0,9.908-0.197,11.114-2,12.24  c-1.213,0.757-2,2.332-2,4c0,1.668-0.788,3.243-2,4c-2.762,1.725-2.762,7.812,0,9.536c2.291,1.431,2.816,8.015,0.8,10.032  c-1.814,1.815-4.633,1.441-6.032-0.8c-0.758-1.213-2.332-2-4-2c-1.668,0-3.243-0.787-4-2c-0.721-1.154-2.332-2-3.809-2  c-1.407,0-3.1-0.54-3.76-1.2c-0.86-0.86-1.506-0.894-2.282-0.118c-1.712,1.712,1.083,5.318,4.123,5.318c1.408,0,3.1,0.54,3.76,1.2  c1.558,1.558,1.558,12.042,0,13.6c-1.814,1.815-4.633,1.441-6.032-0.8c-1.818-2.911-7.028-2.649-10.189,0.512  c-2.322,2.322-2.533,3.314-2.796,13.144c-0.236,8.842-0.578,10.817-2.033,11.733c-3.024,1.903-5.208-0.428-5.563-5.941  c-0.216-3.348-0.891-5.252-2.182-6.157c-1.027-0.72-2.012-2.228-2.187-3.352c-0.29-1.86-0.654-1.725-4.068,1.507  c-2.383,2.254-3.75,4.459-3.75,6.043c0,1.411-0.869,3.036-2,3.743c-1.154,0.721-2,2.332-2,3.809c0,1.408-0.487,3.046-1.083,3.642  c-0.775,0.776-0.707,1.682,0.243,3.204c0.987,1.581,1.045,2.566,0.227,3.868c-0.869,1.383-2.785,1.807-9.209,2.037  c-7.256,0.259-8.246,0.074-9.386-1.75c-1.682-2.693-3.169-2.573-6.247,0.505c-3.193,3.194-3.472,8.395-0.545,10.223  c1.599,0.999,2.4,0.999,4.003-0.002c2.716-1.695,5.393,0.049,5.834,3.802c0.185,1.577,1.198,3.469,2.25,4.206  c2.711,1.898,2.653,8.747-0.087,10.458c-1.154,0.721-2,2.332-2,3.809c0,3.254-1.705,4.959-4.96,4.959c-1.477,0-3.088,0.846-3.809,2  c-1.761,2.819-4.279,2.487-7.57-1c-2.997-3.176-4.157-3.625-5.161-2c-1.048,1.695-4.417,1.107-5.732-1c-1.015-1.624-2.332-2-7.009-2  c-5.707,0-5.759,0.027-5.759,2.941c0,1.618-0.45,3.219-1,3.559c-1.626,1.004-1.177,2.165,2,5.162c3.195,3.016,3.744,5.193,1.8,7.138  c-0.934,0.934-0.934,1.467,0,2.4c0.933,0.933,1.467,0.933,2.399,0c2.017-2.017,8.602-1.492,10.032,0.8  c1.579,2.529,3.851,2.552,5.984,0.061c1.579-1.844,1.533-1.955-0.927-2.25c-3.354-0.402-5.184-3.165-3.682-5.561  c0.743-1.186,2.66-1.851,5.944-2.063c3.416-0.221,5.248-0.885,6.204-2.25c1.733-2.472,4.747-2.483,6.47-0.024  c0.737,1.052,2.63,2.064,4.206,2.25c3.598,0.423,5.508,3.119,3.961,5.587c-0.711,1.135-2.819,1.926-5.995,2.25  c-7.94,0.811-11.73,5.559-7.397,9.268c2.41,2.064,2.496,3.093,0.428,5.161c-2.067,2.068-3.096,1.982-5.16-0.429  c-2.434-2.842-9.268-2.842-9.268,0c0,1.524,0.666,2,2.8,2c3.79,0,5.2,1.679,5.2,6.191c0,2.708-0.571,4.148-2,5.04  c-1.521,0.949-2,2.332-2,5.762c0,3.779-0.519,5-3.188,7.51l-3.186,2.997l3.905,0.323c2.757,0.229,4.866,1.257,7.176,3.5  c5.893,5.724,3.964,8.677-5.668,8.677c-5.477,0-6.766,0.33-7.809,2c-0.797,1.276-2.332,2-4.24,2c-2.607,0-2.991,0.358-2.991,2.791  c0,1.977-1.168,3.864-4,6.469l-4,3.678v8.522c0,7.44-0.255,8.681-2,9.772c-1.101,0.687-2,2.041-2,3.008c0,1.435,0.885,1.76,4.8,1.76  c8.674,0,9.381,3.348,2.185,10.348c-5.11,4.971-5.727,6.076-3.984,7.152c1.694,1.047,1.106,4.416-1,5.732c-1.213,0.757-2,2.332-2,4  s-0.788,3.243-2,4c-1.385,0.865-2,2.332-2,4.768c0,2.436,0.615,3.903,2,4.768c1.1,0.687,2,2.141,2,3.232c0,1.091-0.9,2.545-2,3.232  c-3.064,1.914-2.585,4.768,0.8,4.768c3.058,0,5.2,1.582,5.2,3.841c0,2.117-18.4,20.159-20.56,20.159c-1.432,0-1.574,0.267-0.641,1.2  c2.017,2.017,1.491,8.601-0.8,10.032c-1.525,0.953-2,2.332-2,5.809c0,5.768-1.233,6.96-7.2,6.96c-4.664,0-4.8,0.085-4.8,2.992  c0,1.908-0.725,3.443-2,4.24c-1.213,0.757-2,2.332-2,4s-0.788,3.243-2,4c-1.525,0.953-2,2.332-2,5.809  c0,2.508-0.521,5.081-1.158,5.717c-0.815,0.815-0.848,1.539-0.107,2.45c0.577,0.711,1.211,2.102,1.407,3.09  c0.303,1.522,0.936,1.253,4.108-1.747c2.062-1.951,3.75-4.355,3.75-5.345c0-0.989,2.407-4.365,5.351-7.502  c3.945-4.206,6.059-5.704,8.048-5.704c2.452,0,3.854-1.097,8.625-6.75c1.398-1.657,2.507-1.576,4.404,0.321  c1.971,1.97,1.979,3.007,0.04,4.639c-1.952,1.643-6.521,6.21-8.468,8.462c-0.825,0.954-1.726,3.06-2,4.678  c-0.657,3.863-3.295,5.572-5.997,3.884c-1.102-0.689-2.003-0.906-2.003-0.483c0,0.422,0.899,1.33,2,2.017c1.1,0.687,2,2.141,2,3.232  c0,1.091-0.9,2.545-2,3.232c-1.131,0.705-2.005,2.34-2.011,3.758c-0.014,3.222-5.864,9.01-9.105,9.01c-1.321,0-2.965,0.9-3.652,2  c-1.603,2.567-4.86,2.567-6.464,0c-0.883-1.414-2.332-2-4.945-2c-3.412,0-3.72,0.241-4.01,3.149c-0.633,6.366-6.993,6.366-7.626,0  c-0.187-1.873-0.878-3.149-1.705-3.149c-2.193,0-6.481,4.859-6.481,7.346c0,1.239-0.54,2.794-1.2,3.454  c-0.934,0.934-0.934,1.467,0,2.4c1.552,1.552,1.552,8.047,0,9.6c-1.814,1.814-4.633,1.441-6.032-0.8  c-1.815-2.907-3.379-2.491-7.508,2c-3.791,4.123-5.977,4.883-8.06,2.8c-0.933-0.934-1.467-0.934-2.399,0  c-0.934,0.934-0.767,1.202,0.75,1.211c1.072,0.006,3.412,1.517,5.2,3.357c2.858,2.943,3.25,4.001,3.25,8.789  c0,2.994-0.54,5.983-1.2,6.644c-1.853,1.852-4.528,1.427-6.221-0.989c-0.844-1.204-1.788-1.935-2.099-1.625  c-0.31,0.311,0.804,1.857,2.477,3.436c3.843,3.626,3.813,4.871-0.207,9.011c-3.714,3.822-6.185,4.246-7.982,1.367  c-1.015-1.624-2.332-2-7.009-2c-5.641,0-5.759,0.058-5.759,2.8c0,3.483-1.638,5.2-4.96,5.2c-1.461,0-3.086,0.843-3.786,1.965  c-1.186,1.899-0.887,1.975,8.902,2.25c8.362,0.235,10.323,0.591,11.231,2.035c1.553,2.468-0.356,5.164-3.956,5.587  c-1.576,0.185-3.469,1.198-4.206,2.25c-1.15,1.642-2.609,1.913-10.283,1.913h-8.942v36h2.8c3.554,0,5.2,1.646,5.2,5.2v2.8h18.962  l5.768-5.995c4.92-5.113,6.291-5.996,9.319-6c1.952-0.003,4.09,0.535,4.75,1.195c1.634,1.634,1.634,19.966,0,21.6  c-1.814,1.814-4.633,1.441-6.032-0.8c-1.108-1.773-2.332-2-10.768-2c-8.436,0-9.661,0.227-10.769,2c-1.056,1.69-2.332,2-8.24,2  c-6.007,0-6.991,0.248-6.991,1.76c0,2.373,3.857,4.783,5.317,3.322c1.707-1.707,4.55-1.266,5.914,0.918c0.721,1.153,2.332,2,3.809,2  c3.552,0,4.96,1.758,4.96,6.191c0,2.709-0.571,4.148-2,5.041c-2.762,1.724-2.762,7.811,0,9.535c3.145,1.965,2.367,4.346-3.181,9.732  l-5.148,5l4.784,0.31c3.799,0.246,5.18-0.114,6.703-1.75c2.304-2.472,3.203-2.556,5.27-0.488c2.068,2.068,1.982,3.097-0.428,5.161  c-1.101,0.941-2,2.404-2,3.249c0,0.846,0.899,2.1,2,2.786c3.022,1.888,2.425,4.424-2,8.492c-4.491,4.129-4.908,5.692-2,7.508  c3.936,2.459,1.823,7.232-3.2,7.232c-2.725,0-2.8,0.147-2.8,5.454c0,4.511,0.439,5.896,2.545,8c1.4,1.4,3.595,2.546,4.878,2.546  c1.282,0,2.882,0.662,3.554,1.472c1.075,1.297,1.398,1.297,2.693,0c1.873-1.872,2.806-1.853,4.758,0.1  c2.068,2.068,1.982,3.097-0.428,5.161c-1.101,0.941-2,2.152-2,2.69c0,0.538,0.539,0.438,1.199-0.222  c2.083-2.083,4.27-1.323,8.06,2.8c4.279,4.654,9.305,5.528,11.508,2c0.964-1.544,2.332-2,6-2c3.668,0,5.035-0.456,6-2  c1.364-2.184,4.207-2.625,5.914-0.918c1.779,1.779,5.318-1.092,5.318-4.314c0-1.668,0.787-3.242,2-4c1.113-0.695,2-2.332,2-3.692  c0-1.732,2.33-4.736,8-10.315c5.112-5.031,8.008-8.664,8.022-10.066c0.029-2.832,9.969-12.693,12.793-12.693  c2.773,0,7.185-4.51,7.185-7.346c0-1.24,0.539-2.794,1.199-3.454c0.934-0.934,0.934-1.467,0-2.4c-0.66-0.66-1.199-2.352-1.199-3.759  c0-1.477-0.847-3.089-2-3.809c-1.457-0.91-2-2.332-2-5.232s0.543-4.322,2-5.232c1.516-0.946,2.002-2.339,2.01-5.758  c0.01-3.793,0.543-5.026,3.357-7.76c6.3-6.119,8.634-4.035,8.634,7.709c0,7.477,0.253,8.718,2,9.809c1.689,1.056,2,2.332,2,8.241  v6.991h6.8c3.955,0,7.302,0.502,8,1.2c0.746,0.746,1.2,4.435,1.2,9.759c0,7.477,0.253,8.718,2,9.809  c2.291,1.432,2.816,8.016,0.8,10.032c-0.934,0.934-0.934,1.467,0,2.4c0.66,0.66,1.2,2.1,1.2,3.2c0,1.555,0.267,1.732,1.199,0.8  c0.66-0.66,2.352-1.2,3.76-1.2c1.477,0,3.088-0.847,3.809-2c1.399-2.241,4.218-2.614,6.032-0.8c0.66,0.66,1.2,3.252,1.2,5.759  c0,3.477,0.475,4.856,2,5.809c2.809,1.755,2.809,8.71,0,10.465c-1.608,1.004-2,2.332-2,6.768c0,4.435,0.392,5.764,2,6.768  c1.141,0.713,2,2.332,2,3.771c0,1.664,1.362,3.775,4,6.201c2.659,2.445,4,4.532,4,6.229c0,1.467,0.849,3.08,2,3.799  c1.114,0.696,2,2.332,2,3.695c0,3.068,4.354,7.537,7.345,7.537c2.898,0,4.655,1.786,4.655,4.731c0,1.44,1.528,3.736,4,6.009  c2.659,2.445,4,4.532,4,6.229c0,1.467,0.849,3.08,2,3.799c2.184,1.364,2.625,4.207,0.917,5.914  c-0.775,0.776-0.707,1.683,0.243,3.204c1.649,2.641,0.235,5.312-3.245,6.134c-1.628,0.385-1.998,0.812-1.155,1.332  c0.682,0.422,1.24,2.09,1.24,3.707c0,2.512,0.385,2.941,2.639,2.941c1.838,0,4.257,1.592,7.977,5.25  c5.738,5.643,6.541,8.011,3.385,9.982c-1.154,0.72-2,2.332-2,3.809c0,1.407-0.54,3.099-1.2,3.759c-0.934,0.934-0.099,1.2,3.759,1.2  c3.877,0,5.232-0.437,6.209-2c1.056-1.69,2.332-2,8.24-2c6.963,0,6.992-0.012,6.992-2.753c0-1.764,1.078-3.771,3-5.585  c1.649-1.558,3-3.205,3-3.662c0-0.457-1.351-2.104-3-3.662c-4.527-4.273-4.192-8.824,1-13.598c2.471-2.272,4-4.569,4-6.009  c0-3.459,1.872-4.731,6.959-4.731c3.477,0,4.856-0.475,5.809-2c0.944-1.513,2.332-2,5.695-2c6.185,0,9.537-3.351,9.537-9.537  c0-3.363,0.486-4.75,2-5.695c1.212-0.757,2-2.332,2-4c0-1.668,0.787-3.242,2-4c1.772-1.107,2-2.332,2-10.768  c0-8.436-0.228-9.661-2-10.768c-1.753-1.095-2-2.332-2-10s-0.248-8.906-2-10c-1.428-0.892-2-2.332-2-5.032  c0-3.134,0.686-4.414,4-7.46c4.654-4.28,5.527-9.305,2-11.508c-1.753-1.095-2-2.332-2-10s-0.248-8.906-2-10  c-1.626-1.016-1.998-2.325-1.99-6.991c0.01-5.19,0.332-6.053,3.357-8.991c2.062-2.004,4.36-3.25,5.989-3.25  c2.215,0,2.646-0.446,2.654-2.75c0.015-3.612,5.711-9.25,9.346-9.25c2.553,0,2.645-0.199,2.645-5.76c0-4.676-0.377-5.994-2-7.008  c-2.81-1.755-2.81-8.71,0-10.465c1.212-0.757,2-2.332,2-4c0-1.668,0.787-3.242,2-4c1.212-0.757,2-2.332,2-4c0-1.668,0.787-3.242,2-4  c4.668-2.915,0.396-12.768-5.537-12.768c-1.363,0-2.999-0.886-3.695-2c-0.708-1.134-2.336-2.002-3.759-2.005  c-1.755-0.003-4.243-1.807-8.278-6c-5.218-5.423-6.161-5.995-9.889-5.995c-3.625,0-4.76-0.63-9.458-5.25  c-3.601-3.541-5.346-6.067-5.361-7.76c-0.013-1.407-0.901-3.058-2.022-3.758c-1.545-0.965-2-2.332-2-6c0-3.668-0.456-5.036-2-6  c-1.213-0.758-2-2.332-2-4s-0.788-3.243-2-4c-2.81-1.755-2.81-8.71,0-10.465c1.772-1.106,2-2.332,2-10.768  c0-8.436-0.228-9.661-2-10.768c-1.729-1.08-2-2.332-2-9.232c0-6.9,0.271-8.152,2-9.232c1.212-0.757,2-2.332,2-4  c0-1.668,0.787-3.242,2-4c1.153-0.72,2-2.332,2-3.809c0-1.407,0.539-3.099,1.199-3.759c0.934-0.934,0.934-1.467,0-2.4  c-2.017-2.017-1.491-8.601,0.801-10.032c1.153-0.721,2-2.332,2-3.809c0-3.322,1.716-4.96,5.199-4.96  c2.443,0,2.801-0.382,2.801-2.992c0-1.908,0.724-3.443,2-4.24c1.113-0.696,2-2.332,2-3.693c0-1.732,2.33-4.736,8-10.316  c5.654-5.564,8-8.586,8-10.307c0-1.352,0.889-2.991,2-3.684c1.544-0.964,2-2.332,2-6c0-3.668,0.455-5.036,2-6  c1.544-0.964,2-2.332,2-6c0-3.668,0.455-5.036,2-6c1.1-0.687,2-1.808,2-2.49c0-0.683-2.698-3.837-5.996-7.01l-5.995-5.768  l-0.005-7.742c-0.004-6.662,0.274-7.915,1.996-8.99c2.761-1.725,2.761-7.812,0-9.536c-2.81-1.754-2.81-8.71,0-10.464  c1.212-0.757,2-2.332,2-4c0-1.668,0.787-3.243,2-4c2.556-1.596,2.556-3.94,0-5.536c-1.219-0.76-2-2.332-2-4.018  c0-1.532-0.895-3.535-2-4.482c-2.411-2.064-2.497-3.093-0.429-5.161c2.067-2.068,3.096-1.982,5.16,0.429c0.947,1.106,2.95,2,4.482,2  c1.686,0,3.258,0.782,4.018,2c0.688,1.1,1.808,2,2.49,2c0.682,0,3.836-2.698,7.009-5.995l5.77-5.995l11.55-0.005  c6.957-0.003,11.979,0.425,12.632,1.077c0.776,0.776,1.682,0.707,3.203-0.243c2.831-1.768,5.502-0.094,5.952,3.728  c0.185,1.577,1.198,3.469,2.25,4.206c1.052,0.737,1.913,2.419,1.913,3.738c0,2.957,4.35,7.489,7.189,7.489  c2.428,0,8.787,5.784,8.796,8c0.003,0.825-2.692,4.096-5.989,7.268l-5.995,5.769v8.473c0,7.39-0.256,8.632-2,9.722  c-1.213,0.757-2,2.332-2,4s-0.788,3.243-2,4c-1.68,1.049-2,2.332-2,8s-0.321,6.952-2,8c-1.545,0.964-2,2.332-2,6s-0.456,5.036-2,6  c-1.213,0.757-2,2.332-2,4s-0.788,3.243-2,4c-1.213,0.757-2,2.332-2,4s-0.788,3.243-2,4c-1.545,0.964-2,2.332-2,6s-0.456,5.036-2,6  c-1.213,0.757-2,2.332-2,4s-0.788,3.243-2,4c-1.213,0.757-2,2.332-2,4s-0.788,3.243-2,4c-1.213,0.757-2,2.332-2,4s-0.788,3.243-2,4  c-3.528,2.203-2.655,7.228,2,11.508c3.482,3.201,4,4.236,4,8c0,3.763,0.518,4.798,4,8c3.468,3.188,4,4.245,4,7.95  c0,3.913,0.504,4.757,5.995,10.041l5.995,5.769l0.005,14.51c0.004,13.423,0.154,14.603,2.005,15.758c1.102,0.688,2,2.332,2,3.662  c0,1.532,1.671,4.083,4.578,6.991l4.579,4.579h10.221c6.617,0,10.644,0.423,11.422,1.2c0.697,0.698,1.199,4.044,1.199,8  c0,5.823,0.253,6.8,1.76,6.8c0.968,0,2.321-0.9,3.009-2c1.754-2.809,8.71-2.809,10.464,0c1.596,2.556,3.94,2.556,5.536,0  c0.95-1.521,2.332-2,5.771-2c3.997,0,4.95-0.465,8.2-4c2.604-2.833,4.492-4,6.469-4c2.433,0,2.792-0.384,2.792-2.991  c0-1.909,0.724-3.444,2-4.241c1.153-0.72,2-2.332,2-3.809c0-3.321,1.716-4.959,5.199-4.959c2.361,0,2.801-0.415,2.801-2.644  c0-3.636,5.638-9.332,9.25-9.346c2.385-0.01,2.75-0.408,2.75-3.002c0-1.909,0.724-3.444,2-4.241c1.153-0.72,2-2.332,2-3.809  c0-3.688,1.783-4.959,6.959-4.959c3.477,0,4.856-0.475,5.809-2c1.099-1.759,2.332-2,10.24-2h8.992v-6.8c0-3.956,0.502-7.302,1.199-8  c0.66-0.66,3.252-1.2,5.76-1.2c3.477,0,4.856-0.475,5.809-2c0.687-1.1,2.032-1.995,2.99-1.989c2.409,0.015,8.242,6.243,8.242,8.8  c0,3.696,4.54,7.19,9.345,7.19c2.34,0,4.795,0.54,5.455,1.2c0.933,0.933,1.466,0.933,2.399,0c0.66-0.66,2.352-1.2,3.76-1.2  c1.477,0,3.088-0.847,3.809-2c1.754-2.809,8.71-2.809,10.464,0c0.721,1.153,2.332,2,3.809,2c5.97,0,6.949,7.238,1.71,12.633  c-3.942,4.059-9.879,4.735-11.982,1.367c-0.688-1.1-1.933-2-2.768-2c-0.836,0-2.082,0.9-2.769,2c-0.687,1.1-2.235,2-3.44,2  c-1.705,0-1.925,0.267-0.991,1.2c1.778,1.778,1.456,4.507-0.713,6.026c-1.052,0.736-2.064,2.629-2.25,4.205  c-0.442,3.754-3.119,5.498-5.834,3.803c-1.728-1.079-2.003-1.002-2.003,0.557c0,2.606-1.981,4.209-5.2,4.209  c-2.786,0-2.8,0.034-2.8,6.643c0,6.143-0.246,6.896-3.25,9.989c-1.972,2.029-4.238,3.35-5.76,3.356  c-1.418,0.006-3.053,0.881-3.759,2.011c-1.829,2.93-12.635,2.93-14.464,0c-1.725-2.762-7.812-2.762-9.536,0  c-0.757,1.213-2.332,2-4,2s-3.242,0.787-4,2c-0.757,1.213-2.332,2-4,2s-3.242,0.787-4,2c-0.687,1.1-2.328,2-3.647,2  c-3.17,0-15.584,12.262-15.584,15.393c0,2.83-1.796,4.607-4.655,4.607c-1.239,0-3.399,1.146-4.8,2.545  c-3.381,3.382-3.721,12.24-0.545,14.223c1.544,0.965,2,2.332,2,6c0,3.668,0.455,5.036,2,6c1.114,0.696,2,2.332,2,3.695  c0,2.402,4.14,7.537,6.076,7.537c0.542,0,2.641-1.8,4.663-4c2.98-3.241,4.359-4,7.269-4c5.295,0,5.992,1.274,5.992,10.959  c0,7.477,0.253,8.718,2,9.809c1.544,0.965,2,2.332,2,6c0,3.668,0.455,5.036,2,6c1.212,0.758,2,2.332,2,4c0,1.668,0.787,3.243,2,4  c1.689,1.056,2,2.332,2,8.241c0,6.958,0.013,6.991,2.75,7.002c4.064,0.016,9.25,5.703,9.25,10.146c0,5.137-1.327,5.844-10.96,5.844  c-7.477,0-8.718,0.253-9.809,2c-1.754,2.809-8.71,2.809-10.464,0c-0.708-1.134-2.336-2.002-3.759-2.005  c-1.755-0.003-4.243-1.807-8.278-6c-3.998-4.155-6.527-5.995-8.241-5.995c-1.39,0-3.02-0.876-3.722-2c-0.748-1.198-2.332-2-3.949-2  c-1.485,0-2.979-0.45-3.318-1c-1.092-1.767-2.038-1.136-9.838,6.563l-7.662,7.564v10.428c0,9.345-0.208,10.557-2,11.677  c-1.809,1.129-2,2.332-2,12.539v11.291l4,3.678c4.123,3.791,4.882,5.977,2.8,8.06c-0.934,0.934-0.934,1.467,0,2.4  c0.659,0.66,1.2,2.227,1.2,3.481c0,1.479,2.105,4.308,5.994,8.05c4.194,4.035,5.997,6.523,6,8.278  c0.003,1.422,0.871,3.05,2.006,3.758c1.212,0.758,2,2.332,2,4c0,1.668,0.787,3.243,2,4c1.774,1.109,2,2.332,2,10.885  c0,9.518-0.04,9.676-3.25,12.98c-2.913,2.998-3.827,3.347-8.801,3.356c-3.053,0.006-6.09-0.529-6.75-1.189  c-0.934-0.934-1.199-0.757-1.199,0.791c0,1.096-1.801,3.647-4,5.669c-2.2,2.023-4,4.007-4,4.409c0,0.402,0.539,0.191,1.199-0.469  c1.553-1.553,8.048-1.553,9.601,0c2.209,2.209,1.229,4.263-4.806,10.068c-5.423,5.219-5.994,6.162-5.994,9.889  c0,3.626-0.631,4.761-5.25,9.458c-4.471,4.545-5.807,5.342-8.992,5.361c-2.675,0.017-4.098-0.547-4.99-1.977  c-0.758-1.213-2.332-2-4-2c-1.668,0-3.243-0.787-4-2c-0.688-1.1-2.328-2-3.648-2c-3.525,0-13.067-9.652-13.098-13.25  c-0.021-2.508-0.353-2.75-3.782-2.75c-2.677,0-4.119,0.576-5.009,2c-0.713,1.142-2.332,2-3.772,2c-1.663,0-3.775,1.362-6.2,4  c-2.22,2.414-4.579,4-5.95,4c-1.47,0-4.312,2.119-8.041,5.995c-4.3,4.468-6.47,5.996-8.518,6c-2.387,0.004-2.75,0.4-2.75,2.996  c0,1.909-0.725,3.444-2,4.241c-1.131,0.705-2.005,2.34-2.011,3.758c-0.014,3.222-5.864,9.01-9.105,9.01c-1.321,0-2.965,0.9-3.652,2  c-0.964,1.544-2.332,2-6,2c-3.668,0-5.035,0.456-6,2c-0.689,1.102-2.332,2-3.661,2c-1.514,0-4.025,1.615-6.742,4.337  c-7.033,7.046-7.129,7.209-5.644,9.588"/>
<path fill="none" stroke="#A6AEA4" stroke-width="12" stroke-linecap="round" stroke-linejoin="round" stroke-miterlimit="10" d="  M1375.846,1327.781c5.424,0.132,10.068,0.533,10.739,1.204c0.933,0.933,1.466,0.933,2.399,0c0.66-0.66,3.252-1.2,5.76-1.2  c3.477,0,4.856-0.475,5.809-2c1.094-1.753,2.332-2,10-2s8.905-0.248,10-2c1.399-2.241,4.217-2.614,6.032-0.8  c1.552,1.552,1.552,8.047,0,9.6c-0.66,0.66-0.769,1.2-0.241,1.2c0.528,0,1.521-0.9,2.209-2c0.757-1.213,2.332-2,4-2s3.242-0.787,4-2  c0.695-1.114,2.332-2,3.695-2c4.01,0,7.537-4.373,7.537-9.346c0-4.881,1.321-6.654,4.959-6.654c1.477,0,3.088-0.847,3.809-2  c0.964-1.544,2.332-2,6-2s5.035-0.456,6-2c1.145-1.833,2.332-2,14.24-2c11.783,0,12.992-0.165,12.992-1.777  c0-0.979-0.9-2.549-2-3.49c-1.101-0.942-2-2.842-2-4.223v-2.51h-21.583l-3.678-4c-3.186-3.465-4.25-4.002-7.959-4.011  c-3.533-0.009-4.849-0.595-7.53-3.356c-3.006-3.093-3.25-3.847-3.25-9.989c0-6.609-0.015-6.644-2.801-6.644  c-3.385,0-5.199-1.625-5.199-4.654c0-2.904-4.437-7.346-7.337-7.346c-1.341,0-3.729-1.612-5.924-4c-2.271-2.471-4.569-4-6.009-4  c-4.604,0-6.457-4.905-2.73-7.232c1.212-0.757,2-2.332,2-4s0.787-3.242,2-4c2.555-1.596,2.555-3.939,0-5.535  c-1.213-0.758-2-2.332-2-4s-0.788-3.243-2-4c-2.81-1.755-2.81-8.71,0-10.465c1.1-0.687,2-2.33,2-3.652  c0-3.393,5.789-9.092,9.25-9.104c2.68-0.011,2.75-0.156,2.75-5.771c0-4.676-0.377-5.994-2-7.008c-1.799-1.123-2-2.332-2-12  s-0.202-10.877-2-12c-1.68-1.049-2-2.332-2-8s-0.321-6.952-2-8c-2.81-1.755-2.81-8.71,0-10.465c1.1-0.687,2-1.933,2-2.768  c0-0.836-0.9-2.081-2-2.768c-2.843-1.775-2.486-4.02,1.25-7.865c4.474-4.606,7.861-4.252,8.892,0.931  c0.303,1.521,0.936,1.253,4.108-1.747c4.396-4.158,5.174-9.181,1.75-11.318c-1.566-0.979-2-2.332-2-6.241  c0-4.8-0.107-4.991-2.801-4.991c-3.743,0-5.203-1.676-5.185-5.95c0.013-2.934,0.881-4.392,5-8.398  c5.11-4.97,5.726-6.075,3.985-7.151c-1.401-0.866-1.252-7.85,0.199-9.3c0.66-0.66,2.215-1.2,3.455-1.2  c1.239,0,3.399-1.146,4.8-2.546c2.448-2.448,2.546-3.01,2.55-14.75l0.005-12.204l5.995-5.769c3.637-3.499,5.996-6.605,5.996-7.893  c0-2.475,5.779-8.812,8.05-8.827c0.853-0.006,2.09,0.529,2.75,1.19c0.933,0.933,1.466,0.933,2.399,0c0.934-0.934,0.934-1.467,0-2.4  c-0.66-0.66-1.199-2.352-1.199-3.76c0-1.476-0.847-3.088-2-3.808c-4.254-2.656-1.748-7.239,3.949-7.222  c4.263,0.013,10.051,5.256,10.051,9.105c0,2.892,3.661,5.622,5.317,3.966c0.595-0.596,2.233-1.082,3.642-1.082  c1.477,0,3.088-0.847,3.809-2c2.657-4.255,7.241-1.745,7.217,3.95c-0.014,2.95-0.886,4.394-5.166,8.55l-5.149,5l4.193,0.309  c2.835,0.209,4.586,0.938,5.406,2.25c1.562,2.502,3.915,2.477,5.499-0.059c0.695-1.114,2.332-2,3.695-2  c3.067,0,7.537-4.356,7.537-7.346c0-3.25,1.867-4.654,6.191-4.654c2.708,0,4.147,0.571,5.04,2c1.596,2.556,3.94,2.556,5.536,0  c0.893-1.429,2.332-2,5.04-2c4.435,0,6.192,1.408,6.192,4.959c0,1.477,0.846,3.088,2,3.809c3.121,1.949,2.416,4.086-3.25,9.848  c-3.789,3.853-6.017,5.346-8,5.361c-2.609,0.022-2.751,0.268-2.766,4.773c-0.015,4.379-0.408,5.131-5.035,9.632  c-2.76,2.686-4.768,5.134-4.461,5.44c0.307,0.306,1.247-0.429,2.091-1.633c1.285-1.834,2.496-2.189,7.469-2.189  c4.852,0,6.163,0.365,7.184,2c1.596,2.556,3.94,2.556,5.536,0c2.104-3.368,8.04-2.691,11.982,1.367  c3.123,3.216,3.25,3.66,3.25,11.443c0,7.344,0.236,8.336,2.545,10.644c2.105,2.105,3.489,2.546,8,2.546  c5.303,0,5.455-0.077,5.455-2.791c0-1.977,1.167-3.864,4-6.469c3.857-3.548,4-3.902,4-10.009c0-6.774,1.035-8.731,4.621-8.731  c1.305,0,4.109-1.89,6.8-4.579c3.935-3.935,4.579-5.15,4.579-8.639c0-3.553,0.655-4.726,5.25-9.398  c5.051-5.137,7.938-6.506,9.25-4.385c1.004,1.625,2.164,1.176,5.161-2c1.558-1.65,3.711-3,4.785-3c1.519,0,1.687-0.267,0.753-1.2  c-0.66-0.66-1.199-2.46-1.199-4c0-2.756-0.096-2.8-6-2.8c-5.82,0-6,0.079-6,2.643c0,3.636-5.639,9.332-9.25,9.346  c-2.344,0.009-2.75,0.426-2.75,2.811c0,5.024-4.774,7.137-7.232,3.2c-0.708-1.134-2.336-2.002-3.759-2.005  c-1.753-0.003-4.233-1.796-8.224-5.943c-5.187-5.391-6.147-5.968-10.397-6.245c-5.516-0.361-7.647-2.56-5.622-5.804  c0.688-1.102,0.905-2.003,0.482-2.003c-0.422,0-1.33,0.9-2.017,2c-0.757,1.213-2.332,2-4,2s-3.242,0.787-4,2  c-1.798,2.879-4.269,2.455-7.981-1.367c-3.736-3.846-4.093-6.09-1.25-7.865c1.153-0.721,2-2.332,2-3.809  c0-3.726,1.791-4.959,7.199-4.959c4.521,0,4.801-0.153,4.801-2.639c0-3.363,9.469-13.305,12.704-13.338  c3.88-0.041,7.296-4.516,7.296-9.56c0-3.363,0.486-4.75,2-5.695c1.524-0.952,2-2.332,2-5.809c0-2.507,0.539-5.099,1.199-5.759  c0.698-0.698,4.045-1.2,8-1.2c6.685,0,6.801-0.045,6.801-2.644c0-3.636,5.638-9.332,9.25-9.346c2.34-0.009,2.75-0.427,2.75-2.802  c0-1.977,1.167-3.864,4-6.469c2.637-2.426,4-4.537,4-6.201"/>
<a xlink:href="/galleries/ear-aegaeis/" target="_top"><svg:path fill="none" stroke="#192061" stroke-width="12" stroke-linecap="round" stroke-linejoin="round" stroke-miterlimit="10" d="  M1301.785,1423.027c-7.216-7.14-10-10.573-10-12.328c0-1.35-0.891-2.989-2-3.682c-1.842-1.15-2-2.332-2-14.885v-13.635l3.25-3.346  c3.713-3.822,6.184-4.246,7.981-1.367c0.758,1.213,2.332,2,4,2s3.243,0.787,4,2c0.721,1.153,2.332,2,3.809,2  c1.407,0,3.1,0.54,3.76,1.2c0.933,0.933,1.466,0.933,2.399,0c0.66-0.66,2.352-1.2,3.76-1.2c1.477,0,3.088-0.847,3.809-2  c0.757-1.213,2.332-2,4-2s3.242-0.787,4-2c1.07-1.715,0.998-2.002-0.51-2.011c-2.57-0.016-8.258-6.286-8.258-9.105  c0-1.321-0.9-2.965-2-3.651c-2.241-1.4-2.615-4.218-0.801-6.032c0.66-0.66,3.115-1.2,5.455-1.2c4.882,0,9.346-3.508,9.346-7.346  c0-2.965,1.8-4.654,4.959-4.654c1.477,0,3.088-0.847,3.809-2c0.978-1.566,2.332-2,6.24-2c4.801,0,4.992-0.107,4.992-2.8  c0-1.54,0.539-3.34,1.199-4c0.999-0.998,10.793-1.399,18.861-1.204" class="clickable"/>
</a>
<path fill="none" stroke="#A6AEA4" stroke-width="12" stroke-linecap="round" stroke-linejoin="round" stroke-miterlimit="10" d="  M999.259,1258.07c2.669,2.957,6.201,5.715,8.048,5.715c1.301,0,2.968,0.86,3.704,1.912c0.737,1.053,2.63,2.064,4.206,2.25  c5.997,0.706,5.938,7.026-0.072,7.636c-3.555,0.359-6.643,4.202-3.377,4.202c1.101,0,2.562,0.9,3.249,2c0.758,1.213,2.332,2,4,2  c1.668,0,3.243,0.787,4,2c0.708,1.134,2.336,2.002,3.759,2.005c1.755,0.003,4.243,1.807,8.278,6  c3.173,3.297,6.327,5.995,7.009,5.995c0.683,0,1.803-0.9,2.49-2c1.079-1.729,2.332-2,9.232-2c6.899,0,8.152,0.271,9.231,2  c0.952,1.525,2.332,2,5.809,2c5.657,0,6.96,1.245,6.96,6.654c0,3.226,0.615,4.871,2.545,6.8c2.325,2.326,3.275,2.546,10.991,2.546  c7.363,0,8.606,0.257,9.695,2c0.964,1.544,2.332,2,6,2s5.036,0.456,6,2c1.142,1.827,2.332,2,13.8,2h12.551l3.678,4  c2.271,2.471,4.568,4,6.009,4c2.945,0,4.731,1.757,4.731,4.654c0,3.811,4.464,7.344,9.295,7.356c3.446,0.009,4.79,0.613,7.455,3.356  l3.25,3.346v12.402c0,11.32,0.174,12.513,2,13.652c1.833,1.146,2,2.332,2,14.241v12.991l2.75,0.011  c4.784,0.019,11.459,8.505,8.25,10.489c-1.594,0.984-1.22,1.851,2.497,5.792c2.964,3.142,4.147,3.71,7.75,3.719  c3.501,0.009,4.827,0.602,7.503,3.356c2.003,2.062,3.25,4.359,3.25,5.989c0,2.599,0.114,2.644,6.8,2.644c3.955,0,7.302,0.502,8,1.2  c0.659,0.66,1.2,3.1,1.2,5.421c0,3.68,0.586,4.808,4.578,8.8c2.69,2.689,5.495,4.579,6.8,4.579c1.222,0,2.762,0.54,3.422,1.2  c0.933,0.933,1.466,0.933,2.399,0c2.017-2.017,8.602-1.492,10.032,0.8c0.721,1.153,2.332,2,3.809,2c3.528,0,4.96,1.753,4.96,6.077  c0,3.802-1.176,5.448-4.329,6.065c-1.475,0.288-0.74,1.471,3.792,6.107c3.092,3.162,6.169,5.75,6.838,5.75c0.67,0,1.779-0.9,2.467-2  c0.687-1.1,2.142-2,3.232-2c1.09,0,2.545,0.9,3.231,2c0.864,1.385,2.332,2,4.769,2c2.436,0,3.902-0.615,4.768-2  c0.757-1.213,2.332-2,4-2s3.242-0.787,4-2c0.713-1.142,2.332-2,3.771-2c1.663,0,3.775-1.362,6.2-4c4.069-4.426,6.604-5.022,8.492-2  c1.089,1.743,2.342,2.002,9.759,2.016l8.51,0.016l4.848,4.984c4.971,5.109,6.076,5.726,7.152,3.984c0.34-0.55,4.188-1,8.55-1  c6.85,0,8.104,0.273,9.182,2c0.721,1.153,2.332,2,3.809,2c1.407,0,3.1,0.54,3.76,1.2c0.933,0.933,1.2,0.542,1.2-1.76  c0-1.876-0.732-3.417-2-4.208c-1.115-0.696-2-2.332-2-3.695c0-1.346-1.146-3.592-2.546-4.992c-2.201-2.2-3.419-2.545-8.991-2.545  c-5.363,0-6.656-0.336-7.695-2c-0.758-1.213-2.332-2-4-2s-3.243-0.787-4-2c-1.094-1.751-2.332-2-9.952-2  c-7.475,0-8.894-0.273-10.06-1.938c-0.956-1.364-2.788-2.029-6.204-2.25c-5.513-0.355-7.845-2.539-5.939-5.562  c0.963-1.529,3.141-1.785,17.221-2.024c15.258-0.261,16.187-0.167,17.383,1.75c0.772,1.235,2.337,2.024,4.016,2.024  c1.668,0,3.243,0.787,4,2c1.095,1.753,2.332,2,10.017,2c8.518,0,8.732-0.057,7.52-2c-1.095-1.753-2.332-2-10-2s-8.906-0.248-10-2  c-0.758-1.213-2.332-2-4-2s-3.243-0.787-4-2c-0.758-1.213-2.332-2-4-2s-3.243-0.787-4-2c-1.043-1.67-2.332-2-7.809-2  c-7.016,0-8.959-1.005-8.959-4.631c0-1.499-3.279-5.476-10-12.127"/>
<a xlink:href="/galleries/ear-triest-kroatien/" target="_top"><svg:path fill="none" stroke="#192061" stroke-width="12" stroke-linecap="round" stroke-linejoin="round" stroke-miterlimit="10" d="  M937.781,1219.899c4.821,0.337,6.004,1.506,6.004,4.657c0,2.187,0.126,2.245,1.621,0.75c2.205-2.205,10.243-1.708,11.771,0.729  c1.784,2.844-0.44,5.201-5.244,5.558c-4.657,0.345-5.696,2.744-2.147,4.96c1.212,0.758,2,2.332,2,4c0,1.633,0.782,3.24,1.925,3.954  c1.06,0.661,2.071,2.202,2.25,3.425c0.312,2.138,0.439,2.102,3.321-0.962c3.73-3.963,5.252-3.987,8.881-0.143  c1.58,1.673,3.126,2.788,3.437,2.478c0.311-0.312-0.42-1.256-1.624-2.1c-1.335-0.935-2.189-2.589-2.189-4.236  c0-1.619-0.802-3.203-2-3.951c-2.879-1.798-2.456-4.27,1.366-7.982c2.919-2.835,4.021-3.25,8.634-3.25  c4.611,0,5.714,0.415,8.633,3.25c2.029,1.971,3.35,4.237,3.356,5.76c0.006,1.417,0.88,3.053,2.011,3.758c1.212,0.758,2,2.332,2,4  s0.787,3.243,2,4c1.102,0.688,2,2.332,2,3.662c0,1.371,1.501,3.668,3.474,5.855" class="clickable"/>
</a>
<path fill="none" stroke="#A6AEA4" stroke-width="12" stroke-linecap="round" stroke-linejoin="round" stroke-miterlimit="10" d="  M868.333,1354.793c0.964,0.611,1.947,0.992,2.797,0.992c2.859,0,4.655,1.777,4.655,4.607c0,1.387,2.451,4.658,6.592,8.8  c6.125,6.125,6.905,6.593,10.992,6.593c3.315,0,4.706,0.492,5.647,2c0.719,1.15,2.332,2,3.8,2c1.696,0,3.783,1.34,6.228,4  c2.264,2.463,4.57,4,6,4c1.43,0,3.735,1.537,6,4c2.425,2.638,4.537,4,6.2,4c1.44,0,3.059,0.858,3.772,2c0.758,1.213,2.332,2,4,2  c1.668,0,3.243,0.787,4,2c0.758,1.213,2.332,2,4,2c1.668,0,3.243,0.787,4,2c0.711,1.138,2.332,2,3.762,2  c1.496,0,3.658,1.214,5.345,3c2.997,3.176,4.157,3.625,5.162,2c0.34-0.55,2.297-1,4.35-1c3.074,0,4.38,0.705,7.41,4  c4.129,4.49,5.692,4.907,7.508,2c0.686-1.1,2.003-2,2.925-2c0.922,0,5.218,3.6,9.548,8c5.101,5.184,8.646,8,10.068,8  c1.209,0,3.472,1.35,5.029,3c2.997,3.176,4.157,3.625,5.161,2c0.341-0.55,2.229-1,4.198-1c2.974,0,4.483,0.889,8.918,5.25  c3.202,3.149,5.348,6.132,5.361,7.454c0.031,2.959,4.524,7.296,7.56,7.296c1.363,0,2.999,0.886,3.695,2  c1.725,2.762,7.812,2.762,9.536,0c2.392-3.83,7.232-1.85,7.232,2.959c0,1.477,0.846,3.088,2,3.809c1.141,0.713,2,2.332,2,3.771  c0,1.664,1.361,3.775,4,6.201c2.659,2.445,4,4.532,4,6.229c0,1.467,0.849,3.08,2,3.799c1.212,0.758,2,2.332,2,4s0.787,3.243,2,4  c1.275,0.797,2,2.332,2,4.241c0,2.594,0.364,2.992,2.75,3.002c4.064,0.016,9.25,5.703,9.25,10.146c0,3.993-1.475,5.844-4.655,5.844  c-1.239,0-3.399,1.146-4.8,2.545c-2.402,2.402-2.545,3.133-2.545,12.992c0,9.363-0.208,10.575-2,11.695c-1.101,0.687-2,2.04-2,3.008  c0,1.337,0.822,1.76,3.421,1.76c2.729,0,4.346-0.925,8-4.579c3.992-3.992,4.579-5.12,4.579-8.8c0-4.931,1.327-6.621,5.199-6.621  c2.57,0,2.801-0.309,2.801-3.76c0-2.676-0.577-4.119-2-5.008c-1.627-1.016-2-2.332-2-7.041c0-6.372,1.101-8.191,4.959-8.191  c1.477,0,3.088-0.847,3.809-2c0.695-1.114,2.332-2,3.695-2c2.538,0,7.537-4.182,7.537-6.305c0-0.668-0.9-1.776-2-2.463  c-1.103-0.688-2-2.332-2-3.662c0-1.532-1.672-4.084-4.579-6.991c-3.968-3.968-5.136-4.581-8.75-4.59  c-3.409-0.009-4.766-0.622-7.421-3.356l-3.25-3.346v-30.577l7.354-7.355c4.045-4.045,8.091-7.354,8.991-7.354s2.199,0.9,2.886,2  c0.964,1.544,2.332,2,6,2s5.036,0.456,6,2c1.04,1.665,2.339,2.002,7.759,2.011c6.062,0.01,6.732,0.241,9.76,3.356  c2.003,2.062,3.25,4.359,3.25,5.989c0,2.269,0.424,2.644,2.991,2.644c1.908,0,3.443,0.724,4.24,2c0.687,1.1,2.041,2,3.009,2  c1.521,0,1.76-1.007,1.76-7.455c0-6.653-0.274-7.728-2.546-10c-1.4-1.399-3.538-2.55-4.75-2.556  c-3.077-0.015-8.704-6.057-8.704-9.346v-2.644h-10.992c-9.908,0-11.114-0.197-12.24-2c-0.758-1.213-2.332-2-4-2s-3.243-0.787-4-2  c-0.965-1.544-2.332-2-6-2s-5.036-0.456-6-2c-0.965-1.544-2.332-2-6-2s-5.036-0.456-6-2c-0.965-1.544-2.332-2-6-2s-5.036-0.456-6-2  c-1.091-1.747-2.332-2-9.809-2c-5.324,0-9.014-0.453-9.76-1.2c-1.814-1.814-1.44-4.633,0.801-6.032c1.198-0.748,2-2.332,2-3.951  c0-1.603,0.845-3.295,2.076-4.157c1.443-1.012,1.977-2.304,1.75-4.243l-0.326-2.789l-2.997,3.187c-2.51,2.669-3.73,3.187-7.51,3.187  c-3.43,0-4.812,0.48-5.762,2c-1.079,1.729-2.332,2-9.231,2c-6.9,0-8.153-0.271-9.232-2c-0.758-1.213-2.332-2-4-2  c-1.668,0-3.243-0.787-4-2c-0.719-1.15-2.332-2-3.8-2c-1.696,0-3.782-1.34-6.229-4c-2.121-2.308-4.596-4-5.847-4  c-3.176,0-24.893-21.917-24.893-25.121c0-1.318-0.9-2.96-2-3.646c-1.213-0.758-2-2.332-2-4s-0.788-3.243-2-4  c-1.103-0.688-2-2.332-2-3.662c0-1.532-1.672-4.084-4.579-6.991c-4.056-4.056-5.084-4.579-8.992-4.579c-3.329,0-4.719-0.491-5.661-2  c-0.719-1.15-2.332-2-3.8-2c-1.696,0-3.783-1.34-6.229-4c-2.128-2.314-4.595-4-5.853-4c-3.125,0-16.886-13.947-16.886-17.114  c0-1.322-0.9-2.967-2-3.653c-1.213-0.758-2-2.332-2-4s-0.788-3.243-2-4c-3.314-2.07-2.715-8.065,1.175-11.735  c2.825-2.666,2.963-3.037,1.25-3.362c-1.059-0.201-3.383-1.776-5.165-3.5c-3.205-3.102-3.239-3.235-3.239-12.635  c0-9.459,0.015-9.514,3.346-12.75c3.369-3.272,5.99-4.1,7.134-2.25c1.004,1.625,2.164,1.176,5.161-2c1.686-1.786,3.849-3,5.345-3  c1.43,0,3.051-0.862,3.762-2c1.075-1.722,2.332-2,9.04-2c1.634,0,3.018,0.032,4.188,0.114"/>
<a xlink:href="/galleries/ear-genua-laspezia/" target="_top"><svg:path fill="none" stroke="#192061" stroke-width="12" stroke-linecap="round" stroke-linejoin="round" stroke-miterlimit="10" d="  M803.785,1295.785c1.09,0,2.545,0.9,3.231,2c0.758,1.213,2.332,2,4,2c1.668,0,3.243,0.787,4,2c0.758,1.213,2.332,2,4,2  c1.668,0,3.243,0.787,4,2c0.721,1.153,2.332,2,3.809,2c1.408,0,3.1,0.54,3.76,1.2c0.933,0.933,1.467,0.933,2.399,0  c2.221-2.221,4.059-1.231,11.445,6.154c6.914,6.914,7.355,7.619,7.355,11.76c0,3.321,0.491,4.712,2,5.653  c1.141,0.713,2,2.332,2,3.771c0,1.664,1.362,3.775,4,6.201c2.387,2.194,4,4.583,4,5.923c0,2.051,2.221,4.869,4.547,6.345" class="clickable"/>
</a>
<a xlink:href="/galleries/ear-ligurien/" target="_top"><svg:path fill="none" stroke="#192061" stroke-width="12" stroke-linecap="round" stroke-linejoin="round" stroke-miterlimit="10" d="  M768.193,1329.801c3.517-2.643,7.593-7.22,7.593-9.235c0-3.051,18.018-20.78,21.118-20.78c1.32,0,2.962-0.9,3.65-2  c0.686-1.1,2.142-2,3.232-2" class="clickable"/>
</a>
<a xlink:href="/galleries/ear-cotedazur/" target="_top"><svg:path fill="none" stroke="#192061" stroke-width="12" stroke-linecap="round" stroke-linejoin="round" stroke-miterlimit="10" d="  M718.553,1363.785c3.668,0,5.035-0.456,6-2c0.696-1.114,2.332-2,3.695-2c3.035,0,7.529-4.337,7.559-7.296  c0.032-3.066,9.968-12.704,13.098-12.704c1.319,0,2.96-0.9,3.648-2c0.757-1.213,2.332-2,4-2c1.668,0,3.242-0.787,4-2  c0.688-1.103,2.332-2,3.661-2c0.934,0,2.399-0.797,3.979-1.984" class="clickable"/>
</a>
<path fill="none" stroke="#A6AEA4" stroke-width="12" stroke-linecap="round" stroke-linejoin="round" stroke-miterlimit="10" d="  M415.508,1662.684c0.835-0.635,1.817-1.595,3.017-2.898c3.449-3.751,4.025-4,9.27-4c3.075,0,6.078,0.486,6.673,1.082  c0.776,0.776,1.681,0.708,3.2-0.24c1.635-1.021,2.118-2.324,2.118-5.719c0-4.309,0.265-4.661,13.363-17.76  c7.35-7.35,14.096-13.363,14.991-13.363s2.19,0.9,2.877,2c0.977,1.563,2.332,2,6.209,2c3.857,0,4.692-0.267,3.759-1.2  c-2.017-2.017-1.491-8.601,0.801-10.032c1.212-0.757,2-2.332,2-4s0.787-3.242,2-4c1.212-0.757,2-2.332,2-4s0.787-3.242,2-4  c1.121-0.7,2.01-2.351,2.022-3.758c0.028-3.138,9.736-13.01,12.793-13.01c1.918,0,4.63-2.117,7.991-6.24  c1.852-2.271-0.442-5.756-3.798-5.771c-1.521-0.007-3.788-1.327-5.759-3.356l-3.25-3.346v-13.635c0-12.553,0.158-13.734,2-14.885  c1.212-0.757,2-2.332,2-4s0.787-3.242,2-4c1.133-0.708,2.002-2.336,2.004-3.758c0.004-1.756,1.807-4.243,6-8.278  c3.706-3.565,5.996-6.596,5.996-7.935c0-1.384,2.886-5.006,8-10.037c5.654-5.564,8-8.586,8-10.308c0-1.353,0.889-2.991,2-3.685  c1.1-0.687,2-2.328,2-3.646c0-1.549,1.859-4.29,5.25-7.736c4.79-4.872,5.645-5.341,9.759-5.361c3.411-0.018,4.814-0.511,5.759-2.023  c0.757-1.213,2.332-2,4-2c1.668,0,3.242-0.787,4-2c1.039-1.663,2.332-2,7.685-2h6.435l7.872-8c5.579-5.67,8.584-8,10.316-8  c1.36,0,2.997-0.887,3.692-2c0.706-1.132,2.332-2,3.742-2c1.582,0,3.775-1.357,5.992-3.708c3.717-3.941,4.091-4.808,2.498-5.792  c-0.551-0.34-1-1.833-1-3.318c0-1.617-0.803-3.201-2-3.949c-3.566-2.228-2.153-6.524,2.425-7.375c1.711-0.317,1.572-0.69-1.25-3.354  c-2.936-2.771-3.175-3.489-3.175-9.509c0-5.43-0.333-6.721-2-7.762c-2.81-1.755-2.81-8.71,0-10.465c1.212-0.757,2-2.332,2-4  s0.787-3.242,2-4c1.1-0.687,2-2.33,2-3.652c0-3.241,5.788-9.091,9.009-9.104c1.418-0.006,3.053-0.881,3.759-2.011  c0.757-1.213,2.332-2,4-2c1.668,0,3.242-0.787,4-2c1.152-1.846,2.332-2,15.232-2c12.899,0,14.079,0.154,15.231,2  c1.049,1.68,2.332,2,8,2c5.668,0,6.951,0.32,8,2c0.965,1.544,2.332,2,6,2c3.668,0,5.036,0.456,6,2c0.965,1.544,2.332,2,6,2  c3.668,0,5.036,0.456,6,2c0.688,1.1,1.933,2,2.769,2c0.835,0,2.08-0.9,2.768-2c0.964-1.544,2.332-2,6-2"/>
<a xlink:href="/galleries/ear-andalusien/" target="_top"><svg:path fill="none" stroke="#192061" stroke-width="12" stroke-linecap="round" stroke-linejoin="round" stroke-miterlimit="10" d="  M242.393,1627.785h3.593c10.699,0,11.897,0.184,13.031,2c0.688,1.1,2.328,2,3.648,2c1.549,0,4.29,1.86,7.736,5.25l5.339,5.25  l0.022,8.143l0.023,8.142l12.607,12.608c15.743,15.742,15.275,15.66,26.151,4.607c5.579-5.67,8.584-8,10.316-8  c1.36,0,2.997-0.887,3.692-2c0.964-1.544,2.332-2,6-2c3.668,0,5.035-0.456,6-2c0.757-1.213,2.332-2,4-2c1.668,0,3.242-0.787,4-2  c1.182-1.892,2.332-2,21.232-2c18.899,0,20.051,0.108,21.231,2c1.095,1.752,2.332,2,10,2c7.668,0,8.905,0.247,10,2  c1.288,2.062,2.449,2.452,4.491,0.898" class="clickable"/>
</a>
<a xlink:href="/galleries/ear-cadiz-lissabon/" target="_top"><svg:path fill="none" stroke="#192061" stroke-width="12" stroke-linecap="round" stroke-linejoin="round" stroke-miterlimit="10" d="  M197.785,1515.018c-1.101,0.687-2,2.33-2,3.651c0,3.394-5.789,9.092-9.25,9.105c-3.337,0.013-3.787,2.882-0.75,4.778  c2.566,1.604,2.566,4.861,0,6.465c-1.213,0.757-2,2.332-2,4s-0.788,3.242-2,4c-3.528,2.203-2.655,7.228,2,11.508  c2.2,2.022,4,4.573,4,5.669c0,1.548,0.267,1.724,1.2,0.791c0.659-0.66,2.797-1.195,4.75-1.189c7.5,0.022,13.679,11.706,8.05,15.222  c-1.154,0.72-2,2.332-2,3.808c0,1.408-0.54,3.1-1.2,3.76c-0.934,0.934-0.934,1.467,0,2.4c0.66,0.66,1.2,2.352,1.2,3.759  c0,1.477,0.846,3.088,2,3.809c2.567,1.604,2.567,4.861,0,6.465c-1.213,0.757-2,2.332-2,4s-0.787,3.242-2,4c-1.213,0.757-2,2.332-2,4  s-0.788,3.242-2,4c-1.424,0.889-2,2.332-2,5.008v3.76h8.991c7.908,0,9.143,0.241,10.24,2c0.965,1.544,2.332,2,6,2  c3.668,0,5.036,0.456,6,2c1.816,2.907,3.379,2.49,7.509-2l3.677-4h8.19" class="clickable"/>
</a>
<path fill="none" stroke="#A6AEA4" stroke-width="12" stroke-linecap="round" stroke-linejoin="round" stroke-miterlimit="10" d="  M451.017,1365.785c-1.113,1.783-2.332,2-11.231,2c-8.9,0-10.119-0.217-11.232-2c-1.817-2.909-11.719-2.909-13.536,0  c-0.686,1.1-2.142,2-3.231,2c-1.091,0-2.546-0.9-3.232-2c-0.758-1.213-2.332-2-4-2c-1.668,0-3.243-0.787-4-2  c-0.688-1.1-1.933-2-2.768-2c-0.836,0-2.081,0.9-2.769,2c-0.686,1.1-2.142,2-3.231,2c-1.091,0-2.546-0.9-3.232-2  c-0.688-1.1-1.933-2-2.768-2c-0.836,0-2.081,0.9-2.769,2c-1.079,1.729-2.332,2-9.231,2c-6.9,0-8.153-0.271-9.232-2  c-1.049-1.68-2.332-2-8-2c-5.668,0-6.951-0.32-8-2c-0.965-1.544-2.332-2-6-2c-3.668,0-5.036-0.456-6-2c-0.965-1.544-2.332-2-6-2  c-3.668,0-5.036-0.456-6-2c-1.194-1.912-2.332-2-26-2c-23.668,0-24.806-0.088-26-2c-0.757-1.213-2.332-2-4-2  c-1.668,0-3.242-0.787-4-2c-1.004-1.607-2.332-2-6.768-2c-4.437,0-5.765,0.393-6.769,2c-0.797,1.276-2.332,2-4.24,2  c-2.609,0-2.991,0.357-2.991,2.8c0,4.594-1.483,5.2-12.731,5.2h-10.331l-3.678,4c-2.604,2.833-4.492,4-6.469,4  c-2.716,0-2.791,0.148-2.791,5.481c0,5.391,0.099,5.576,5.995,11.25c4.193,4.035,5.996,6.522,6,8.278  c0.003,1.422,0.871,3.05,2.005,3.758c2.566,1.604,2.566,4.861,0,6.465c-1.213,0.757-2,2.332-2,4s-0.787,3.242-2,4  c-1.899,1.186-2,2.332-2,22.768s0.101,21.582,2,22.768c2.93,1.83,2.93,12.635,0,14.465c-1.68,1.048-2,2.332-2,8s-0.321,6.951-2,8  c-1.68,1.048-2,2.332-2,8s-0.321,6.951-2,8c-1.151,0.719-2,2.332-2,3.799c0,1.696-1.34,3.783-4,6.229c-2.638,2.426-4,4.537-4,6.201  c0,1.439-0.858,3.059-2,3.771"/>
<a xlink:href="/galleries/ear-biscaya/" target="_top"><svg:path fill="none" stroke="#192061" stroke-width="12" stroke-linecap="round" stroke-linejoin="round" stroke-miterlimit="10" d="  M479.785,1258.748l5.995,5.769c5.911,5.688,5.995,5.846,6,11.318c0.007,8.523-3.24,10.348-8.499,4.773l-2.996-3.176l-0.272,20.181  c-0.253,18.869-0.399,20.261-2.25,21.417c-1.654,1.033-1.978,2.343-1.978,7.987c0,5.668-0.321,6.951-2,8c-1.68,1.048-2,2.332-2,8  s-0.321,6.951-2,8c-1.101,0.687-2,2.33-2,3.651c0,1.358-1.414,3.858-3.25,5.749c-2.733,2.814-3.967,3.348-7.76,3.356  c-3.419,0.008-4.812,0.494-5.759,2.011" class="clickable"/>
</a>
<path fill="none" stroke="#A6AEA4" stroke-width="12" stroke-linecap="round" stroke-linejoin="round" stroke-miterlimit="10" d="  M432.596,1133.436c-1.73-1.45-3.887-3.45-6.052-5.65c-4.329-4.4-8.413-8-9.075-8c-0.661,0-1.765,0.9-2.452,2  c-0.964,1.544-2.332,2-6,2c-3.668,0-5.035,0.456-6,2c-0.909,1.456-2.332,2-5.231,2c-2.9,0-4.323-0.544-5.232-2  c-1.696-2.717-7.81-2.765-9.489-0.074c-0.661,1.059-2.185,2.071-3.386,2.25c-1.955,0.29-1.64,0.861,3.015,5.459  c5.195,5.131,5.199,5.139,4.896,10.896c-0.349,6.623-2.306,8.885-5.8,6.703c-1.102-0.688-2.003-0.906-2.003-0.483  c0,0.422,0.899,1.33,2,2.017c1.1,0.688,2,2.235,2,3.441c0,1.704,0.267,1.924,1.199,0.991c0.66-0.66,3.807-1.2,6.992-1.2  c4.708,0,6.024,0.374,7.04,2c0.965,1.544,2.332,2,6,2c3.668,0,5.036,0.456,6,2c0.719,1.15,2.332,2,3.8,2c1.696,0,3.783,1.34,6.229,4  c3.25,3.535,4.203,4,8.2,4c3.439,0,4.821,0.479,5.771,2c0.721,1.153,2.332,2,3.809,2c4.809,0,6.789,4.84,2.96,7.232  c-2.982,1.862-2.594,4.768,0.639,4.768c1.838,0,4.257,1.592,7.977,5.25c5.738,5.643,6.541,8.011,3.385,9.982  c-1.385,0.864-2,2.332-2,4.768s0.615,3.903,2,4.768c1.114,0.696,2,2.332,2,3.695c0,3.151,4.385,7.537,7.536,7.537  c1.363,0,2.999,0.886,3.695,2c0.706,1.13,2.341,2.005,3.759,2.011c1.521,0.007,3.788,1.327,5.76,3.356l3.25,3.346v24.25"/>
<a xlink:href="/galleries/ear-stmalo/" target="_top"><svg:path fill="none" stroke="#192061" stroke-width="12" stroke-linecap="round" stroke-linejoin="round" stroke-miterlimit="10" d="  M522.523,1093.818c-0.832,1.224-2.148,2.712-3.987,4.582c-4.47,4.545-5.807,5.342-8.992,5.361c-2.675,0.017-4.098-0.547-4.99-1.977  c-0.965-1.544-2.332-2-6-2c-3.668,0-5.036-0.456-6-2c-0.864-1.385-2.332-2-4.768-2c-2.437,0-3.903,0.615-4.769,2  c-1.798,2.879-4.268,2.455-7.981-1.367c-2.523-2.597-3.25-4.206-3.25-7.189c0-2.989-0.268-3.576-1.2-2.644  c-0.66,0.66-2.46,1.2-4,1.2c-2.601,0-2.8,0.285-2.8,4c0,3.714,0.199,4,2.8,4c5.023,0,7.136,4.773,3.2,7.232  c-2.762,1.724-2.762,7.811,0,9.535c1.544,0.965,2,2.332,2,6s0.455,5.036,2,6c2.24,1.399,2.614,4.218,0.8,6.032  c-0.66,0.66-3.807,1.2-6.992,1.2c-4.708,0-6.024-0.374-7.04-2c-1.596-2.556-3.939-2.556-5.536,0c-1.399,2.24-4.218,2.614-6.032,0.8  c-0.933-0.933-1.467-0.933-2.399,0c-0.66,0.66-2.352,1.2-3.76,1.2c-1.477,0-3.088,0.846-3.809,2c-0.686,1.1-2.003,2-2.925,2  c-0.461,0-1.766-0.9-3.496-2.35" class="clickable"/>
</a>
<path fill="none" stroke="#A6AEA4" stroke-width="12" stroke-linecap="round" stroke-linejoin="round" stroke-miterlimit="10" d="  M610.779,1535.785c1.53,0,3.685,1.245,5.51,3.185c2.883,3.063,3.009,3.1,3.321,0.962c0.179-1.223,1.191-2.764,2.25-3.425  c1.086-0.679,1.926-2.319,1.926-3.763c0-1.407,0.539-3.099,1.199-3.759c0.934-0.934,0.269-1.2-2.991-1.2  c-3.108,0-4.515-0.517-5.44-2c-1.628-2.606-3.157-2.525-5.973,0.318c-4.762,4.81-5.019,5.351-3.612,7.604  C607.723,1534.915,609.318,1535.785,610.779,1535.785z"/>
<path fill="none" stroke="#A6AEA4" stroke-width="12" stroke-linecap="round" stroke-linejoin="round" stroke-miterlimit="10" d="  M242.545,946.434c-0.843,0.521-0.473,0.947,1.155,1.332c5.523,1.304,5.173,7.191-0.469,7.856c-1.568,0.185-3.404,1.085-4.079,2  c-1.03,1.397-0.893,1.748,0.858,2.186c3.144,0.788,4.529,3.539,3.009,5.974c-1.079,1.727-1.002,2.004,0.557,2.004  c2.777,0,4.209,2.041,4.209,6c0,1.98-0.54,4.14-1.2,4.8c-0.934,0.934,0.176,1.2,4.991,1.2c5.108,0,6.41,0.35,7.44,2  c0.688,1.1,1.933,2,2.769,2c0.835,0,2.081-0.9,2.768-2c0.696-1.114,2.332-2,3.695-2c3.068,0,7.537-4.356,7.537-7.346  c0-3.65,1.933-4.654,8.959-4.654c5.477,0,6.766-0.33,7.809-2c0.688-1.1,2.149-2,3.249-2c1.751,0,1.845-0.25,0.749-2.004  c-2.228-3.566,0.069-5.454,7.05-5.793c5.257-0.255,6.287-0.011,7.387,1.75c1.623,2.599,3.96,2.618,5.565,0.047  c1.016-1.626,2.332-2,7.04-2c3.186,0,6.332,0.54,6.992,1.2c0.933,0.933,1.2,0.757,1.2-0.791c0-1.096,1.8-3.646,4-5.669  c3.534-3.25,4-4.204,4-8.201c0-3.439,0.478-4.821,2-5.771c1.915-1.195,2-2.332,2-26.768c0-24.436-0.085-25.572-2-26.768  c-1.101-0.688-2-1.983-2-2.88c0-2.438,10.126-12.303,12.657-12.329c2.273-0.024,15.343-12.269,15.343-14.375  c0-0.643-0.9-1.729-2-2.416c-1.142-0.713-2-2.332-2-3.771c0-1.664-1.363-3.775-4-6.201c-2.66-2.445-4-4.532-4-6.229  c0-1.467-0.85-3.08-2-3.799c-1.276-0.797-2-2.332-2-4.241v-2.991h-17.583l-3.678-4c-4.279-4.654-9.305-5.528-11.508-2  c-0.757,1.213-2.332,2-4,2c-1.668,0-3.242,0.787-4,2c-1.039,1.664-2.332,2-7.695,2c-5.572,0-6.79,0.345-8.991,2.545  c-1.399,1.4-2.545,3.56-2.545,4.801c0,1.24-0.54,2.794-1.2,3.454c-0.934,0.934-0.79,1.2,0.643,1.2c2.234,0,8.535,5.906,8.535,8  c0,2.499-6.419,8-9.335,8c-2.229,0-2.643,0.439-2.643,2.8c0,4.538-1.527,5.2-11.991,5.2h-9.592l-3.678-4c-2.022-2.2-4.121-4-4.663-4  c-0.542,0-2.131,1.146-3.531,2.545c-1.93,1.93-2.545,3.575-2.545,6.801c0,2.34-0.54,4.794-1.2,5.454c-0.934,0.934-0.756,1.2,0.8,1.2  c3,0,4.4,1.971,4.4,6.191c0,2.709-0.571,4.148-2,5.041c-1.213,0.757-2,2.332-2,4s-0.787,3.242-2,4  c-3.063,1.913-2.585,4.768,0.8,4.768c4.554,0,5.2,1.516,5.2,12.191c0,8.709-0.222,9.93-2,11.041c-1.544,0.964-2,2.332-2,6  s-0.456,5.035-2,6c-1.544,0.964-2,2.332-2,6s-0.456,5.035-2,6c-1.198,0.748-2,2.332-2,3.949  C243.785,944.452,243.227,946.012,242.545,946.434z"/>
<path fill="none" stroke="#A6AEA4" stroke-width="12" stroke-linecap="round" stroke-linejoin="round" stroke-miterlimit="10" d="  M659.785,483.785c1.866,0,2.133-0.267,1.199-1.2c-0.933-0.934-1.467-0.934-2.399,0C657.652,483.519,657.918,483.785,659.785,483.785  z"/>
<path fill="none" stroke="#A6AEA4" stroke-width="12" stroke-linecap="round" stroke-linejoin="round" stroke-miterlimit="10" d="  M436.985,656.985c0.66-0.66,2.101-1.2,3.2-1.2c1.556,0,1.733-0.267,0.8-1.2c-1.94-1.94-1.406-3.874,2.051-7.433  c3.367-3.467,5.572-4.145,7.432-2.285c1.461,1.461,5.318-0.949,5.318-3.322c0-1.484-0.941-1.76-6-1.76c-5.905,0-6,0.045-6,2.8  c0,3.554-1.647,5.2-5.2,5.2c-2.708,0-2.8,0.172-2.8,5.2C435.785,657.029,436.052,657.918,436.985,656.985z"/>
<path fill="none" stroke="#A6AEA4" stroke-width="12" stroke-linecap="round" stroke-linejoin="round" stroke-miterlimit="10" d="  M478.726,595.785c1.618,0,3.305,0.562,3.749,1.25c0.559,0.864,0.908,0.544,1.134-1.038c0.179-1.259,1.191-2.829,2.251-3.49  c1.143-0.714,1.926-2.321,1.926-3.954c0-1.668,0.787-3.242,2-4c1.198-0.748,2-2.332,2-3.951c0-1.647,0.854-3.302,2.189-4.236  c1.204-0.844,1.939-1.785,1.632-2.092c-0.307-0.307-2.755,1.701-5.439,4.462c-3.506,3.604-5.657,5.023-7.632,5.034  c-2.384,0.014-2.75,0.414-2.75,3.007c0,1.909-0.725,3.444-2,4.241C474.653,592.974,475.207,595.785,478.726,595.785z"/>
<path fill="none" stroke="#A6AEA4" stroke-width="12" stroke-linecap="round" stroke-linejoin="round" stroke-miterlimit="10" d="  M860.985,80.985c0.934-0.934,0.934-1.467,0-2.4c-0.933-0.933-1.199-0.666-1.199,1.2S860.052,81.918,860.985,80.985z"/>
<path fill="none" stroke="#A6AEA4" stroke-width="12" stroke-linecap="round" stroke-linejoin="round" stroke-miterlimit="10" d="  M859.785,71.585c0-1.615-0.296-1.904-1.113-1.087c-0.612,0.612-0.811,1.602-0.441,2.2C859.266,74.372,859.785,73.999,859.785,71.585  z"/>
<path fill="none" stroke="#A6AEA4" stroke-width="12" stroke-linecap="round" stroke-linejoin="round" stroke-miterlimit="10" d="  M345.535,692.393c2.399,1.822,2.366,1.833,6.541-2.105c2.352-2.218,3.709-4.41,3.709-5.991c0-1.411,0.868-3.036,2-3.743  c1.1-0.687,2-1.681,2-2.208c0-0.528-0.54-0.42-1.2,0.24c-0.66,0.66-2.199,1.2-3.421,1.2c-2.254,0-11.379,8.195-11.379,10.219  C343.785,690.587,344.573,691.662,345.535,692.393z"/>
<path fill="none" stroke="#A6AEA4" stroke-width="12" stroke-linecap="round" stroke-linejoin="round" stroke-miterlimit="10" d="  M359.717,503.785c1.072,0,2.228,0.45,2.568,1c0.34,0.55,0.929,0.985,1.309,0.968c1.552-0.071,4.191-2.797,4.191-4.328  c0-2.543-7.138-2.25-8.769,0.36C357.928,503.528,358.018,503.785,359.717,503.785z"/>
<path fill="none" stroke="#A6AEA4" stroke-width="12" stroke-linecap="round" stroke-linejoin="round" stroke-miterlimit="10" d="  M369.785,756.553c1.212,0.758,2,2.332,2,4c0,1.668,0.787,3.243,2,4c2.24,1.399,2.614,4.218,0.8,6.032  c-0.934,0.934-0.934,1.467,0,2.4c1.814,1.814,1.44,4.633-0.8,6.032c-1.424,0.889-2,2.332-2,5.008c0,3.093,0.354,3.76,2,3.76  c1.523,0,2-0.667,2-2.8c0-5.024,4.773-7.137,7.231-3.2c1.597,2.556,3.941,2.556,5.536,0c2.392-3.83,7.232-1.85,7.232,2.959  c0,1.477,0.846,3.088,2,3.809c3.935,2.459,1.823,7.232-3.2,7.232c-2.743,0-2.8,0.118-2.8,5.76c0,4.676,0.376,5.994,2,7.008  c1.456,0.91,2,2.332,2,5.232c0,2.9-0.544,4.322-2,5.232c-1.101,0.687-2,2.33-2,3.651c0,3.393-5.79,9.092-9.25,9.105  c-2.426,0.01-2.75,0.389-2.75,3.211c0,2.488,0.267,2.933,1.199,2c1.814-1.815,4.633-1.441,6.032,0.8c0.865,1.385,2.332,2,4.769,2  c2.435,0,3.903-0.615,4.768-2c0.687-1.1,2.142-2,3.232-2c1.09,0,2.545,0.9,3.231,2c0.865,1.385,2.332,2,4.769,2  c2.435,0,3.903-0.615,4.768-2c2.104-3.368,8.04-2.691,11.982,1.367c3.735,3.846,4.092,6.09,1.25,7.865  c-1.766,1.102-2,2.332-2,10.463c0,8.539,0.186,9.4,2.545,11.759c3.067,3.067,4.565,3.199,6.223,0.546  c1.399-2.241,4.218-2.614,6.032-0.8c0.727,0.727,1.2,4.265,1.2,8.991c0,6.709-0.278,7.965-2,9.041c-1.101,0.687-2,1.932-2,2.768  c0,0.835,0.899,2.081,2,2.768c1.1,0.688,2,2.142,2,3.232c0,1.091-0.9,2.545-2,3.232c-1.101,0.687-2,2.328-2,3.647  c0,1.549-1.86,4.29-5.25,7.736l-5.25,5.339l-6.51,0.022c-5.412,0.02-6.721,0.36-7.759,2.023c-0.686,1.1-2.142,2-3.231,2  c-1.091,0-2.546-0.9-3.232-2c-0.758-1.213-2.332-2-4-2c-1.668,0-3.243-0.787-4-2c-0.688-1.1-2.041-2-3.009-2  c-2.653,0-2.46,7.082,0.241,8.768c2.828,1.767,2.484,4.281-1.043,7.61c-1.673,1.579-2.787,3.125-2.477,3.436  c0.311,0.311,1.255-0.421,2.099-1.625c2.473-3.53,8.129-2.983,12.171,1.178c3.456,3.559,3.99,5.492,2.05,7.433  c-0.934,0.934-0.934,1.467,0,2.4c1.814,1.814,1.44,4.633-0.8,6.032c-1.101,0.687-2,2.331-2,3.653  c0,3.345-13.77,17.114-17.115,17.114c-1.322,0-2.966,0.9-3.653,2c-0.977,1.566-2.332,2-6.24,2c-6.202,0-6.512,1.57-1.283,6.502  c3.941,3.718,4.807,4.091,5.792,2.498c0.34-0.55,3.197-1,6.35-1c5.408,0,5.94,0.227,9.41,4c2.264,2.463,4.57,4,6,4  c1.43,0,3.735,1.537,6,4c3.401,3.699,4.075,4,8.968,4c4.208,0,5.547-0.409,6.54-2c2.104-3.368,8.04-2.691,11.982,1.367  c1.787,1.84,3.25,3.923,3.25,4.628c0,0.705-2.363,3.685-5.25,6.62l-5.25,5.339l-14.51,0.022  c-13.413,0.021-14.604,0.175-15.759,2.023c-0.696,1.114-2.332,2-3.695,2c-3.946,0-7.536,4.377-7.536,9.189  c0,3.271-0.656,4.773-3.25,7.443c-1.972,2.029-4.238,3.35-5.76,3.356c-1.418,0.006-3.053,0.881-3.759,2.011  c-0.797,1.276-2.332,2-4.24,2c-2.595,0-2.993,0.365-3.002,2.75c-0.013,3.102-5.599,9.25-8.405,9.25c-0.937,0-1.425,0.45-1.084,1  c1.004,1.625,2.164,1.176,5.161-2c2.333-2.472,3.626-3,7.345-3c3.43,0,4.812-0.48,5.762-2c0.757-1.213,2.332-2,4-2  c1.668,0,3.242-0.787,4-2c0.687-1.1,2.142-2,3.232-2c1.09,0,2.545,0.9,3.231,2c0.711,1.138,2.332,2,3.762,2  c1.527,0,3.688,1.246,5.51,3.176c2.666,2.824,3.037,2.963,3.362,1.25c0.609-3.205,14.492-16.426,17.249-16.426  c1.322,0,2.966-0.9,3.653-2c0.909-1.456,2.332-2,5.232-2c2.899,0,4.322,0.544,5.231,2c0.721,1.153,2.332,2,3.809,2  c1.408,0,3.1,0.54,3.76,1.2c0.933,0.933,1.467,0.933,2.399,0c0.779-0.778,4.829-1.2,11.531-1.2h10.331l3.678-4  c4.069-4.426,6.604-5.022,8.492-2c1.069,1.712,2.332,2,8.769,2c6.435,0,7.698-0.288,8.768-2c1.079-1.729,2.332-2,9.232-2  c6.899,0,8.152,0.271,9.231,2c0.864,1.385,2.332,2,4.769,2c2.436,0,3.903-0.615,4.768-2c0.757-1.213,2.332-2,4-2  c1.668,0,3.242-0.787,4-2c0.686-1.1,2.328-2,3.647-2c1.623,0,4.532-2.133,8.992-6.593c3.626-3.626,6.593-6.866,6.593-7.2  s-0.54-0.067-1.2,0.593c-2.017,2.017-8.602,1.492-10.032-0.8c-0.721-1.153-2.332-2-3.809-2c-4.809,0-6.789-4.84-2.959-7.232  c1.1-0.687,2-1.933,2-2.768c0-0.836-0.9-2.081-2-2.768c-3.83-2.393-1.85-7.232,2.959-7.232c1.477,0,3.088-0.847,3.809-2  c0.797-1.276,2.332-2,4.24-2c2.655,0,2.992-0.336,2.992-2.991c0-1.909,0.724-3.444,2-4.241c1.212-0.757,2-2.332,2-4  c0-1.668,0.787-3.242,2-4c1.679-1.049,2-2.332,2-8c0-5.668,0.32-6.951,2-8c2.917-1.822,2.518-3.092-2.579-8.188  c-4.056-4.056-5.084-4.579-8.992-4.579c-3.329,0-4.719-0.491-5.661-2c-0.688-1.1-1.933-2-2.768-2c-0.836,0-2.081,0.9-2.769,2  c-0.713,1.142-2.332,2-3.772,2c-1.663,0-3.775,1.362-6.2,4c-2.023,2.2-4.371,3.995-5.219,3.989  c-2.029-0.014-8.041-6.247-8.041-8.337c0-0.899,0.899-2.197,2-2.885c1.212-0.757,2-2.332,2-4c0-1.668,0.787-3.242,2-4  c1.384-0.864,2-2.332,2-4.768c0-2.436-0.616-3.903-2-4.768c-1.213-0.758-2-2.332-2-4s-0.788-3.243-2-4c-1.545-0.965-2-2.332-2-6  s-0.456-5.036-2-6c-1.213-0.758-2-2.332-2-4s-0.788-3.243-2-4c-2.107-1.316-2.695-4.685-1-5.732c1.625-1.005,1.176-2.164-2-5.162  c-1.65-1.558-3-3.859-3-5.115c0-1.386-1.574-3.732-4-5.963c-2.388-2.195-4-4.583-4-5.923c0-2.828-4.415-7.337-7.185-7.337  c-3.057,0-12.765-9.872-12.793-13.01c-0.013-1.407-0.901-3.058-2.022-3.758c-2.93-1.83-2.93-12.635,0-14.465  c1.313-0.82,2-2.332,2-4.403c0-2.675-1.614-4.768-10.605-13.76c-7.032-7.032-11.344-10.604-12.8-10.604  c-1.207,0-2.735-0.54-3.396-1.2c-0.933-0.934-1.467-0.934-2.399,0c-0.66,0.66-2.798,1.195-4.75,1.189  c-2.704-0.008-4.325-0.809-6.8-3.356c-1.788-1.84-3.246-3.973-3.24-4.739c0.022-2.826,6.379-7.732,10.458-8.07l3.904-0.323  l-3.186-2.997c-4.56-4.288-3.832-8.503,1.469-8.503c2.99,0,7.346-4.469,7.346-7.537c0-1.363,0.885-2.999,2-3.695  c1.212-0.757,2-2.332,2-4c0-1.668,0.787-3.242,2-4c1.212-0.757,2-2.332,2-4c0-1.668,0.787-3.242,2-4c1.212-0.757,2-2.332,2-4  c0-1.668,0.787-3.242,2-4c1.153-0.721,2-2.332,2-3.809c0-1.407,0.486-3.046,1.082-3.641c0.775-0.776,0.708-1.682-0.241-3.2  c-1.234-1.978-2.169-2.118-14.073-2.118c-11.668,0-12.857-0.17-14-2c-1.004-1.607-2.332-2-6.768-2c-4.437,0-5.765,0.393-6.769,2  c-0.787,1.26-2.332,2-4.177,2c-2.552,0-2.969,0.405-3.242,3.149c-0.381,3.834-3.015,5.842-5.562,4.242  c-1.266-0.794-1.834-2.688-2.053-6.829c-0.348-6.593,0.785-8.562,4.925-8.562c2.211,0,2.878-0.463,2.878-2c0-1.523-0.667-2-2.801-2  c-3.059,0-5.199-1.583-5.199-3.844c0-2.31,6.278-8.134,8.78-8.146c1.373-0.007,3.746-1.604,5.959-4.011c2.195-2.388,4.583-4,5.924-4  c1.235,0,3.391-1.146,4.791-2.546c2.105-2.104,2.546-3.489,2.546-8c0-4.539-0.296-5.454-1.76-5.454c-0.968,0-2.321,0.9-3.009,2  c-1.169,1.872-2.332,2-18.24,2h-16.991v2.791c0,1.977-1.168,3.864-4,6.469c-3.858,3.548-4,3.902-4,10.009  c0,6.791-1.035,8.732-4.655,8.732c-3.911,0-7.345,4.459-7.345,9.537c0,3.363-0.487,4.75-2,5.695c-1.101,0.687-2,1.932-2,2.768  c0,0.835,0.899,2.081,2,2.768c1.728,1.08,2,2.332,2,9.232s-0.272,8.152-2,9.232c-1.545,0.964-2,2.332-2,6s-0.456,5.035-2,6  c-1.101,0.687-2,1.932-2,2.768C367.785,754.62,368.685,755.866,369.785,756.553z"/>
<path fill="none" stroke="#A6AEA4" stroke-width="12" stroke-linecap="round" stroke-linejoin="round" stroke-miterlimit="10" d="  M358.585,714.585c-0.66,0.66-2.46,1.2-4,1.2c-3.385,0-3.864,2.854-0.8,4.768c1.275,0.797,2,2.332,2,4.241  c0,2.698,0.312,2.991,3.199,2.991c2.489,0,2.934-0.267,2-1.2c-0.666-0.667-1.199-3.866-1.199-7.2  C359.785,714.719,359.518,713.651,358.585,714.585z"/>
<path fill="none" stroke="#A6AEA4" stroke-width="12" stroke-linecap="round" stroke-linejoin="round" stroke-miterlimit="10" d="  M655.785,1513.785c0-1.242-0.667-2-1.76-2c-0.968,0-2.321,0.9-3.009,2c-1.145,1.834-0.999,2,1.76,2  C655.118,1515.785,655.785,1515.342,655.785,1513.785z"/>
<path fill="none" stroke="#A6AEA4" stroke-width="12" stroke-linecap="round" stroke-linejoin="round" stroke-miterlimit="10" d="  M807.785,1410.525c2.353,2.163,4,4.588,4,5.89c0,3.028,8.452,11.37,11.52,11.37c1.299,0,2.727,0.562,3.171,1.25  c0.449,0.694,0.936-3.315,1.095-9.014c0.248-8.94,0.538-10.422,2.25-11.49c2.876-1.797,2.85-11.712-0.035-13.514  c-1.545-0.965-2-2.332-2-6s-0.456-5.036-2-6c-1.101-0.688-2-2.235-2-3.441c0-1.704-0.268-1.924-1.2-0.991  c-0.66,0.66-2.2,1.2-3.421,1.2c-3.072,0-11.379,8.447-11.379,11.57c0,1.33-0.898,2.974-2,3.662c-1.591,0.993-2,2.332-2,6.539  C803.785,1406.449,804.086,1407.124,807.785,1410.525z"/>
<path fill="none" stroke="#A6AEA4" stroke-width="12" stroke-linecap="round" stroke-linejoin="round" stroke-miterlimit="10" d="  M783.785,802.538c0,1.798-1.103,3.794-3.176,5.75c-2.818,2.66-2.959,3.036-1.25,3.344c1.059,0.191,2.375,0.782,2.926,1.313  c0.653,0.631,1.111,0.238,1.324-1.136c0.179-1.155,1.191-2.642,2.25-3.303c1.346-0.841,1.926-2.334,1.926-4.962  c0-3.093-0.355-3.76-2-3.76C784.269,799.785,783.785,800.452,783.785,802.538z"/>
<path fill="none" stroke="#A6AEA4" stroke-width="12" stroke-linecap="round" stroke-linejoin="round" stroke-miterlimit="10" d="  M1753.221,1446.49c-1.543,2.637-5.061,7.182-7.816,10.098c-5.702,6.036-17.412,14.197-20.369,14.197c-2.9,0-7.25,3.803-7.25,6.337  c0,2.259-9.345,14.663-11.046,14.663c-0.525,0-0.945,2.362-0.933,5.25c0.02,4.907,0.232,5.355,3.25,6.864  c4.262,2.132,7.19,2.238,8.783,0.319c2.093-2.522,6.574-4.434,10.395-4.434c3.042,0,3.551-0.331,3.551-2.309  c0-3.649,2.16-5.698,8.039-7.627c5.401-1.771,5.457-1.83,5.132-5.428c-0.313-3.479-0.191-3.637,2.807-3.637  c4.149,0,9.022-5.15,9.022-9.537c0-2.545-0.615-3.386-3.475-4.749c-5.431-2.59-5.526-5.376-0.526-15.328  C1757.427,1441.93,1757.719,1438.806,1753.221,1446.49z"/>
<path fill="none" stroke="#A6AEA4" stroke-width="12" stroke-linecap="round" stroke-linejoin="round" stroke-miterlimit="10" d="  M639.785,621.785c0.484,0,1.159-0.45,1.5-1c0.34-0.55-0.336-1-1.5-1c-1.165,0-1.841,0.45-1.5,1  C638.625,621.335,639.3,621.785,639.785,621.785z"/>
<path fill="none" stroke="#A6AEA4" stroke-width="12" stroke-linecap="round" stroke-linejoin="round" stroke-miterlimit="10" d="  M961.535,676.393c0.962,0.731,1.975,1.329,2.25,1.329c1.631,0,4-3.018,4-5.097c0-1.342,0.486-2.927,1.082-3.521  c1.281-1.281-0.334-4.369-3.231-6.179c-1.402-0.876-2.303-0.876-3.704,0c-2.896,1.81-4.511,4.898-3.23,6.179  c0.596,0.595,1.083,2.18,1.083,3.521S960.573,675.662,961.535,676.393z"/>
<path fill="none" stroke="#A6AEA4" stroke-width="12" stroke-linecap="round" stroke-linejoin="round" stroke-miterlimit="10" d="  M1040.985,574.585c-0.934-0.934-1.467-0.934-2.399,0c-0.934,0.934-0.667,1.2,1.2,1.2  C1041.652,575.785,1041.918,575.519,1040.985,574.585z"/>
<path fill="none" stroke="#A6AEA4" stroke-width="12" stroke-linecap="round" stroke-linejoin="round" stroke-miterlimit="10" d="  M809.785,807.018c-1.385,0.864-2,2.332-2,4.768c0,2.435,0.615,3.903,2,4.768c2.184,1.364,2.625,4.207,0.917,5.914  c-0.775,0.776-0.708,1.682,0.241,3.2c1.663,2.664,3.989,2.713,5.609,0.118c0.797-1.276,2.332-2,4.24-2h2.992v-10.991  c0-9.909,0.196-11.115,2-12.241c1.424-0.889,2-2.332,2-5.008c0-3.68-0.08-3.76-3.76-3.76c-2.677,0-4.119,0.576-5.009,2  c-0.757,1.213-2.332,2-4,2c-3.222,0-6.093,3.539-4.314,5.318C812.41,802.811,811.969,805.653,809.785,807.018z"/>
<path fill="none" stroke="#A6AEA4" stroke-width="12" stroke-linecap="round" stroke-linejoin="round" stroke-miterlimit="10" d="  M1035.785,602.025c0,1.465,0.915,1.76,5.454,1.76c4.511,0,5.895-0.44,8-2.546c1.399-1.399,2.546-3.56,2.546-4.8  c0-1.24,0.539-2.794,1.199-3.454c0.934-0.934-0.399-1.2-6-1.2h-7.199v2.991c0,1.909-0.725,3.444-2,4.241  C1036.685,599.704,1035.785,601.058,1035.785,602.025z"/>
<path fill="none" stroke="#A6AEA4" stroke-width="12" stroke-linecap="round" stroke-linejoin="round" stroke-miterlimit="10" d="  M1408.744,1339.785c1.477,0,3.088-0.847,3.809-2c0.757-1.213,2.332-2,4-2s3.242-0.787,4-2c1.136-1.819,0.998-2-1.52-2  c-1.685,0-3.256,0.782-4.017,2c-0.696,1.114-2.332,2-3.695,2c-2.187,0-7.536,4.078-7.536,5.745c0,0.36,0.539,0.115,1.199-0.545  S1407.336,1339.785,1408.744,1339.785z"/>
<path fill="none" stroke="#A6AEA4" stroke-width="12" stroke-linecap="round" stroke-linejoin="round" stroke-miterlimit="10" d="  M799.785,1469.545c0,0.968,0.899,2.321,2,3.008c1.212,0.758,2,2.332,2,4s0.787,3.243,2,4c1.212,0.758,2,2.332,2,4s0.787,3.243,2,4  c1.679,1.049,2,2.332,2,8s0.32,6.951,2,8c1.1,0.688,2,2.142,2,3.232s-0.9,2.545-2,3.232c-1.101,0.687-2,1.932-2,2.768  c0,0.835,0.899,2.081,2,2.768c1.752,1.095,2,2.332,2,10s0.247,8.906,2,10c1.275,0.797,2,2.332,2,4.241  c0,1.95,0.506,2.991,1.454,2.991c2.181,0,6.546-4.795,6.546-7.189c0-1.153,1.462-3.604,3.25-5.443  c2.912-2.998,3.826-3.347,8.8-3.356c3.052-0.006,6.09,0.529,6.75,1.189c0.933,0.933,1.2-5.681,1.2-29.76  c0-29.876-0.07-31.003-2-32.208c-1.213-0.758-2-2.332-2-4s-0.788-3.243-2-4c-1.115-0.696-2-2.332-2-3.695  c0-1.346-1.146-3.592-2.546-4.992c-2.105-2.104-3.489-2.545-8-2.545c-5.232,0-5.454,0.108-5.454,2.646c0,1.953-1.923,4.567-7.355,10  c-7.028,7.028-7.56,7.354-12,7.354C800.663,1467.785,799.785,1468.118,799.785,1469.545z"/>
<path fill="none" stroke="#A6AEA4" stroke-width="12" stroke-linecap="round" stroke-linejoin="round" stroke-miterlimit="10" d="  M1391.017,1589.785c-0.797,1.276-2.332,2-4.24,2c-3.646,0-3.914,1.934-0.741,5.359c2.801,3.025,4.899,3.231,6.518,0.641  c1.049-1.68,2.332-2,8-2s6.951-0.32,8-2c0.687-1.1,2.148-2,3.249-2c1.696,0,1.824-0.281,0.843-1.852  c-1.809-2.897-4.896-4.512-6.178-3.23c-0.596,0.595-4.034,1.082-7.642,1.082C1393.349,1587.785,1392.06,1588.115,1391.017,1589.785z  "/>
<path fill="none" stroke="#A6AEA4" stroke-width="12" stroke-linecap="round" stroke-linejoin="round" stroke-miterlimit="10" d="  M1053.785,1568.553c1.198-0.748,2-2.332,2-3.951c0-1.591,0.843-3.294,2.048-4.138c1.782-1.248,2.01-2.321,1.75-8.239l-0.298-6.804  l-2.997,3.183c-2.746,2.915-3.52,3.182-9.231,3.182h-6.234l-11.537,11.99l-6.51,0.005c-5.424,0.004-6.718,0.339-7.759,2.005  c-0.909,1.456-2.332,2-5.232,2c-2.899,0-4.322-0.544-5.231-2c-0.758-1.213-2.332-2-4-2c-1.668,0-3.243-0.787-4-2  c-0.688-1.1-1.933-2-2.768-2c-0.836,0-2.081,0.9-2.769,2c-0.757,1.213-2.332,2-4,2c-1.668,0-3.242,0.787-4,2  c-0.909,1.456-2.332,2-5.231,2c-2.9,0-4.323-0.544-5.232-2c-1.657-2.653-3.155-2.521-6.223,0.545  c-3.067,3.068-3.198,4.566-0.545,6.223c1.114,0.696,2,2.332,2,3.695c0,4.086,4.367,7.537,9.536,7.537c3.363,0,4.751,0.487,5.695,2  c1.049,1.68,2.332,2,8,2c5.668,0,6.951,0.32,8,2c0.758,1.213,2.332,2,4,2c1.668,0,3.243,0.787,4,2c0.758,1.213,2.332,2,4,2  c1.668,0,3.243,0.787,4,2c1.095,1.752,2.332,2,10,2c7.668,0,8.905,0.247,10,2c0.758,1.213,2.332,2,4,2s3.243,0.787,4,2  c0.758,1.213,2.332,2,4,2s3.243,0.787,4,2c0.687,1.1,1.933,2,2.769,2c0.835,0,2.08-0.9,2.768-2c0.797-1.276,2.332-2,4.24-2  c2.655,0,2.992-0.336,2.992-2.991c0-1.909,0.724-3.444,2-4.241c1.1-0.687,2-1.933,2-2.768c0-0.836-0.9-2.081-2-2.768  c-1.276-0.797-2-2.332-2-4.241c0-2.567-0.375-2.991-2.645-2.991c-1.629,0-3.927-1.247-5.989-3.25  c-3.024-2.938-3.347-3.801-3.356-8.991C1051.787,1570.878,1052.159,1569.568,1053.785,1568.553z"/>
<path fill="none" stroke="#A6AEA4" stroke-width="12" stroke-linecap="round" stroke-linejoin="round" stroke-miterlimit="10" d="  M1049.544,1647.785c-1.093,0-1.759,0.758-1.759,2c0,1.557,0.666,2,3.008,2c2.758,0,2.904-0.166,1.76-2  C1051.865,1648.686,1050.512,1647.785,1049.544,1647.785z"/>
<path fill="none" stroke="#A6AEA4" stroke-width="12" stroke-linecap="round" stroke-linejoin="round" stroke-miterlimit="10" d="  M1333.225,1487.785c-0.527,0-1.521,0.9-2.208,2c-0.909,1.456-2.332,2-5.231,2c-2.9,0-4.323-0.544-5.232-2  c-0.865-1.385-2.332-2-4.768-2c-2.437,0-3.904,0.615-4.769,2c-1.049,1.68-2.332,2-8,2s-6.951,0.32-8,2c-0.757,1.213-2.332,2-4,2  s-3.242,0.787-4,2c-0.978,1.566-2.332,2-6.24,2c-4.857,0-4.991,0.079-4.991,2.941c0,1.617-0.45,3.219-1,3.559  c-1.705,1.054-1.175,1.969,4.542,7.823c3.409,3.492,6.392,5.681,7.75,5.688c1.214,0.006,3.67,1.517,5.458,3.356  c2.979,3.067,3.25,3.878,3.25,9.748c0,5.32,0.338,6.615,2,7.652c1.275,0.797,2,2.332,2,4.241c0,2.324,0.445,2.991,2,2.991  c1.523,0,2-0.667,2-2.8c0-3.483,1.637-5.2,4.959-5.2c1.477,0,3.088-0.847,3.809-2c1.951-3.125,4.338-2.375,9.58,3.016  c2.667,2.741,5.216,4.984,5.665,4.984c0.45,0,2.092-1.35,3.648-3c3.291-3.486,5.81-3.819,7.57-1c0.687,1.1,2.041,2,3.009,2  c1.338,0,1.76-0.823,1.76-3.443c0-2.982-1.073-4.5-8-11.316c-5.67-5.579-8-8.584-8-10.315c0-1.36-0.887-2.997-2-3.692  c-2.292-1.432-2.817-8.016-0.801-10.032s8.602-1.492,10.032,0.8c0.758,1.213,2.332,2,4,2s3.243,0.787,4,2c0.687,1.1,1.933,2,2.769,2  c0.835,0,2.08-0.9,2.768-2c1.06-1.697,0.998-2-0.404-2c-2.031,0-16.363-14.149-16.363-16.155c0-0.794,0.539-1.984,1.199-2.645  S1333.753,1487.785,1333.225,1487.785z"/>
<path fill="none" stroke="#A6AEA4" stroke-width="12" stroke-linecap="round" stroke-linejoin="round" stroke-miterlimit="10" d="  M1417.693,1591.285l5.882,0.293c5.424,0.271,6.147,0.596,9.296,4.179c3.864,4.396,5.872,4.927,7.683,2.028c0.757-1.213,2.332-2,4-2  s3.242-0.787,4-2c0.757-1.213,2.332-2,4-2s3.242-0.787,4-2c0.757-1.213,2.332-2,4-2s3.242-0.787,4-2c0.757-1.213,2.332-2,4-2  s3.242-0.787,4-2c0.695-1.114,2.332-2,3.695-2c2.187,0,7.537-4.078,7.537-5.746c0-0.359-0.541-0.114-1.2,0.546  c-0.66,0.66-2.353,1.2-3.76,1.2c-1.477,0-3.088,0.846-3.809,2c-1.143,1.83-2.332,2-14,2s-12.856,0.17-14,2  c-1.12,1.794-2.332,2-11.743,2h-10.493L1417.693,1591.285z"/>
<text transform="matrix(1 0 0 1 650.343 1119.7852)" fill="#424A50" font-family="'Oswald-Regular'" font-size="60px">Europa am Rande</text>
</svg>
