<?xml version="1.0" encoding="utf-8"?>
<!-- Generator: Adobe Illustrator 15.1.0, SVG Export Plug-In  -->
<!DOCTYPE svg PUBLIC "-//W3C//DTD SVG 1.1 Tiny//EN" "http://www.w3.org/Graphics/SVG/1.1/DTD/svg11-tiny.dtd" [
	<!ENTITY ns_flows "http://ns.adobe.com/Flows/1.0/">
]>
<svg version="1.1" baseProfile="tiny"
	 xmlns="http://www.w3.org/2000/svg" xmlns:xlink="http://www.w3.org/1999/xlink" xmlns:a="http://ns.adobe.com/AdobeSVGViewerExtensions/3.0/"
	 x="0px" y="0px" width="2291px" height="2187px" viewBox="-337.785 -340.321 2291 2187" overflow="visible" xml:space="preserve">
  <defs>
  </defs>
  <style>
    :hover {
       stroke: red;
    }
  </style>
<path fill="none" stroke="#006051" stroke-width="12" stroke-linecap="round" stroke-linejoin="round" stroke-miterlimit="10" d="
	M989.957,575.571c1.867,0,2.133-0.267,1.199-1.2s-1.467-0.934-2.398,0C987.824,575.304,988.089,575.571,989.957,575.571z"/>
<path fill="none" stroke="#006051" stroke-width="12" stroke-linecap="round" stroke-linejoin="round" stroke-miterlimit="10" d="
	M915.957,1572.338c1.115,0.696,2,2.332,2,3.695c0,4.086,4.367,7.537,9.537,7.537c3.363,0,4.75,0.487,5.695,2c1.049,1.68,2.332,2,8,2
	s6.951,0.32,8,2c0.758,1.213,2.332,2,4,2s3.242,0.787,4,2s2.332,2,4,2s3.242,0.787,4,2c1.094,1.752,2.332,2,10,2s8.904,0.247,10,2
	c0.758,1.213,2.332,2,4,2s3.242,0.787,4,2s2.332,2,4,2s3.242,0.787,4,2c0.686,1.1,1.932,2,2.768,2s2.08-0.9,2.768-2
	c0.797-1.276,2.332-2,4.24-2c2.656,0,2.992-0.336,2.992-2.991c0-1.909,0.725-3.444,2-4.241c1.1-0.687,2-1.933,2-2.768
	c0-0.836-0.9-2.081-2-2.768c-1.275-0.797-2-2.332-2-4.241c0-2.567-0.375-2.991-2.645-2.991c-1.629,0-3.926-1.247-5.988-3.25
	c-3.025-2.938-3.348-3.801-3.357-8.991c-0.008-4.666,0.365-5.976,1.99-6.991c1.199-0.748,2-2.332,2-3.951
	c0-1.591,0.844-3.294,2.049-4.138c1.781-1.248,2.01-2.321,1.75-8.239l-0.299-6.804l-2.996,3.183
	c-2.746,2.915-3.52,3.182-9.232,3.182h-6.234l-11.537,11.99l-6.51,0.005c-5.424,0.004-6.717,0.339-7.758,2.005
	c-0.91,1.456-2.332,2-5.232,2s-4.322-0.544-5.232-2c-0.758-1.213-2.332-2-4-2s-3.242-0.787-4-2c-0.688-1.1-1.932-2-2.768-2
	s-2.08,0.9-2.768,2c-0.758,1.213-2.332,2-4,2s-3.242,0.787-4,2c-0.91,1.456-2.332,2-5.232,2s-4.322-0.544-5.232-2
	c-1.656-2.653-3.154-2.521-6.223,0.545C913.435,1569.184,913.304,1570.682,915.957,1572.338z"/>
<path fill="none" stroke="#006051" stroke-width="12" stroke-linecap="round" stroke-linejoin="round" stroke-miterlimit="10" d="
	M991.412,603.571c4.51,0,5.895-0.44,8-2.546c1.398-1.399,2.545-3.56,2.545-4.8s0.539-2.794,1.199-3.454c0.934-0.934-0.398-1.2-6-1.2
	h-7.199v2.991c0,1.909-0.725,3.444-2,4.241c-1.1,0.687-2,2.04-2,3.008C985.957,603.276,986.873,603.571,991.412,603.571z"/>
<path fill="none" stroke="#006051" stroke-width="12" stroke-linecap="round" stroke-linejoin="round" stroke-miterlimit="10" d="
	M757.957,1410.311c2.353,2.163,4,4.588,4,5.89c0,3.028,8.452,11.37,11.52,11.37c1.299,0,2.727,0.562,3.171,1.25
	c0.449,0.694,0.936-3.315,1.095-9.014c0.248-8.94,0.538-10.422,2.25-11.49c2.876-1.797,2.85-11.712-0.035-13.514
	c-1.545-0.965-2-2.332-2-6s-0.456-5.036-2-6c-1.101-0.688-2-2.235-2-3.441c0-1.704-0.268-1.924-1.2-0.991
	c-0.66,0.66-2.2,1.2-3.421,1.2c-3.072,0-11.379,8.447-11.379,11.57c0,1.33-0.898,2.974-2,3.662c-1.591,0.993-2,2.332-2,6.539
	C753.957,1406.235,754.258,1406.91,757.957,1410.311z"/>
<path fill="none" stroke="#006051" stroke-width="12" stroke-linecap="round" stroke-linejoin="round" stroke-miterlimit="10" d="
	M909.957,672.411c0,1.342,0.787,3.037,1.75,3.768c0.963,0.731,1.975,1.329,2.25,1.329c1.631,0,4-3.018,4-5.097
	c0-1.342,0.486-2.927,1.082-3.521c1.281-1.281-0.334-4.369-3.23-6.179c-1.402-0.876-2.303-0.876-3.703,0
	c-2.896,1.81-4.512,4.897-3.23,6.179C909.47,669.484,909.957,671.069,909.957,672.411z"/>
<path fill="none" stroke="#006051" stroke-width="12" stroke-linecap="round" stroke-linejoin="round" stroke-miterlimit="10" d="
	M809.957,71.371c0-1.615-0.295-1.904-1.113-1.087c-0.611,0.612-0.81,1.602-0.441,2.2C809.437,74.157,809.957,73.785,809.957,71.371z
	"/>
<path fill="none" stroke="#006051" stroke-width="12" stroke-linecap="round" stroke-linejoin="round" stroke-miterlimit="10" d="
	M759.957,816.338c2.184,1.364,2.625,4.207,0.917,5.914c-0.775,0.776-0.708,1.682,0.241,3.2c1.663,2.664,3.989,2.713,5.609,0.118
	c0.797-1.276,2.332-2,4.24-2h2.992V812.58c0-9.909,0.196-11.115,2-12.241c1.424-0.889,2-2.332,2-5.008c0-3.68-0.08-3.76-3.76-3.76
	c-2.677,0-4.119,0.576-5.009,2c-0.757,1.213-2.332,2-4,2c-3.222,0-6.093,3.539-4.314,5.318c1.708,1.707,1.267,4.55-0.917,5.914
	c-1.385,0.864-2,2.332-2,4.768S758.572,815.474,759.957,816.338z"/>
<path fill="none" stroke="#006051" stroke-width="12" stroke-linecap="round" stroke-linejoin="round" stroke-miterlimit="10" d="
	M811.156,80.771c0.934-0.934,0.934-1.467,0-2.4c-0.932-0.933-1.199-0.667-1.199,1.2S810.224,81.704,811.156,80.771z"/>
<path fill="none" stroke="#006051" stroke-width="12" stroke-linecap="round" stroke-linejoin="round" stroke-miterlimit="10" d="
	M1237.25,1519.582c1.213,0.006,3.67,1.517,5.457,3.356c2.98,3.067,3.25,3.878,3.25,9.748c0,5.32,0.338,6.615,2,7.652
	c1.275,0.797,2,2.332,2,4.241c0,2.324,0.445,2.991,2,2.991c1.523,0,2-0.667,2-2.8c0-3.483,1.637-5.2,4.959-5.2
	c1.477,0,3.088-0.847,3.809-2c1.951-3.125,4.338-2.375,9.58,3.016c2.668,2.741,5.217,4.984,5.666,4.984s2.092-1.35,3.648-3
	c3.291-3.486,5.809-3.819,7.57-1c0.686,1.1,2.041,2,3.008,2c1.338,0,1.76-0.823,1.76-3.443c0-2.982-1.072-4.5-8-11.316
	c-5.67-5.579-8-8.584-8-10.315c0-1.36-0.887-2.997-2-3.692c-2.291-1.432-2.816-8.016-0.801-10.032
	c2.018-2.017,8.602-1.492,10.033,0.8c0.758,1.213,2.332,2,4,2s3.242,0.787,4,2c0.686,1.1,1.932,2,2.768,2s2.08-0.9,2.768-2
	c1.061-1.697,0.998-2-0.404-2c-2.031,0-16.363-14.149-16.363-16.155c0-0.794,0.539-1.984,1.199-2.645s0.77-1.2,0.24-1.2
	c-0.527,0-1.521,0.9-2.207,2c-0.91,1.456-2.332,2-5.232,2s-4.322-0.544-5.232-2c-0.865-1.385-2.332-2-4.768-2s-3.904,0.615-4.768,2
	c-1.049,1.68-2.332,2-8,2s-6.951,0.32-8,2c-0.758,1.213-2.332,2-4,2s-3.242,0.787-4,2c-0.979,1.566-2.332,2-6.24,2
	c-4.857,0-4.992,0.079-4.992,2.941c0,1.617-0.449,3.219-1,3.559c-1.705,1.054-1.174,1.969,4.543,7.823
	C1232.908,1517.386,1235.89,1519.575,1237.25,1519.582z"/>
<path fill="none" stroke="#006051" stroke-width="12" stroke-linecap="round" stroke-linejoin="round" stroke-miterlimit="10" d="
	M1002.724,1649.571c-0.688-1.1-2.041-2-3.008-2c-1.094,0-1.76,0.758-1.76,2c0,1.557,0.666,2,3.008,2
	C1003.722,1651.571,1003.869,1651.405,1002.724,1649.571z"/>
<path fill="none" stroke="#006051" stroke-width="12" stroke-linecap="round" stroke-linejoin="round" stroke-miterlimit="10" d="
	M1482.357,1509.105c0.604-0.293,1.887-0.811,2.85-1.15c1.344-0.474,1.75-1.751,1.75-5.501c0-5.271-0.977-5.989-4.645-3.419
	c-2.523,1.767-3.838,7.25-2.209,9.213C1480.738,1509.012,1481.751,1509.398,1482.357,1509.105z"/>
<path fill="none" stroke="#006051" stroke-width="12" stroke-linecap="round" stroke-linejoin="round" stroke-miterlimit="10" d="
	M1380.207,1403.1c1.238-0.387,3.785-1.003,5.66-1.369l3.41-0.665l-5.66-3.758l-5.66-3.758v5.127
	C1377.957,1403.536,1378.074,1403.767,1380.207,1403.1z"/>
<path fill="none" stroke="#006051" stroke-width="12" stroke-linecap="round" stroke-linejoin="round" stroke-miterlimit="10" d="
	M1659.228,1503.685c4.262,2.132,7.191,2.238,8.783,0.319c2.094-2.522,6.574-4.434,10.395-4.434c3.043,0,3.551-0.331,3.551-2.309
	c0-3.649,2.16-5.698,8.039-7.627c5.4-1.771,5.457-1.83,5.133-5.428c-0.314-3.479-0.191-3.637,2.807-3.637
	c4.148,0,9.021-5.15,9.021-9.537c0-2.545-0.615-3.386-3.475-4.749c-5.43-2.59-5.525-5.376-0.525-15.328
	c4.643-9.241,4.934-12.365,0.436-4.681c-1.543,2.637-5.061,7.182-7.816,10.098c-5.701,6.036-17.412,14.197-20.369,14.197
	c-2.9,0-7.25,3.803-7.25,6.337c0,2.259-9.344,14.663-11.045,14.663c-0.525,0-0.945,2.362-0.934,5.25
	C1655.998,1501.728,1656.21,1502.176,1659.228,1503.685z"/>
<path fill="none" stroke="#006051" stroke-width="12" stroke-linecap="round" stroke-linejoin="round" stroke-miterlimit="10" d="
	M1378.119,1429.076c-0.363,0.366,0.6,1.752,2.145,3.08c3.246,2.794,3.693,2.919,3.693,1.03
	C1383.957,1431.547,1379.08,1428.114,1378.119,1429.076z"/>
<path fill="none" stroke="#006051" stroke-width="12" stroke-linecap="round" stroke-linejoin="round" stroke-miterlimit="10" d="
	M1355.156,1340.771c0.66-0.66,2.352-1.2,3.76-1.2c1.477,0,3.088-0.847,3.809-2c0.758-1.213,2.332-2,4-2s3.242-0.787,4-2
	c1.137-1.819,0.998-2-1.52-2c-1.684,0-3.256,0.782-4.016,2c-0.697,1.114-2.332,2-3.695,2c-2.188,0-7.537,4.078-7.537,5.745
	C1353.957,1341.676,1354.496,1341.431,1355.156,1340.771z"/>
<path fill="none" stroke="#006051" stroke-width="12" stroke-linecap="round" stroke-linejoin="round" stroke-miterlimit="10" d="
	M1373.746,1591.364c5.424,0.271,6.148,0.596,9.297,4.179c3.863,4.396,5.871,4.927,7.682,2.028c0.758-1.213,2.332-2,4-2
	s3.242-0.787,4-2s2.332-2,4-2s3.242-0.787,4-2s2.332-2,4-2s3.242-0.787,4-2s2.332-2,4-2s3.242-0.787,4-2
	c0.695-1.114,2.332-2,3.695-2c2.188,0,7.537-4.078,7.537-5.746c0-0.359-0.541-0.114-1.199,0.546c-0.66,0.66-2.354,1.2-3.76,1.2
	c-1.477,0-3.088,0.846-3.809,2c-1.143,1.83-2.332,2-14,2s-12.857,0.17-14,2c-1.121,1.794-2.332,2-11.744,2h-10.492l-7.088,7.5
	L1373.746,1591.364z"/>
<path fill="none" stroke="#006051" stroke-width="12" stroke-linecap="round" stroke-linejoin="round" stroke-miterlimit="10" d="
	M1342.724,1597.571c1.049-1.68,2.332-2,8-2s6.951-0.32,8-2c0.688-1.1,2.148-2,3.25-2c1.695,0,1.824-0.281,0.842-1.852
	c-1.809-2.897-4.896-4.512-6.178-3.23c-0.596,0.595-4.033,1.082-7.641,1.082c-5.477,0-6.766,0.33-7.809,2
	c-0.797,1.276-2.332,2-4.24,2c-3.646,0-3.914,1.934-0.742,5.359C1339.007,1599.956,1341.107,1600.162,1342.724,1597.571z"/>
<path fill="none" stroke="#006051" stroke-width="12" stroke-linecap="round" stroke-linejoin="round" stroke-miterlimit="10" d="
	M589.957,619.571c-1.165,0-1.841,0.45-1.5,1c0.34,0.55,1.015,1,1.5,1c0.484,0,1.159-0.45,1.5-1
	C591.797,620.021,591.121,619.571,589.957,619.571z"/>
<path fill="none" stroke="#006051" stroke-width="12" stroke-linecap="round" stroke-linejoin="round" stroke-miterlimit="10" d="
	M572.165,1527.571c-3.108,0-4.515-0.517-5.44-2c-1.628-2.606-3.157-2.525-5.973,0.318c-4.762,4.81-5.019,5.351-3.612,7.604
	c0.755,1.208,2.35,2.078,3.811,2.078c1.53,0,3.685,1.245,5.51,3.185c2.883,3.063,3.009,3.1,3.321,0.962
	c0.179-1.223,1.191-2.764,2.25-3.425c1.086-0.679,1.926-2.319,1.926-3.763c0-1.407,0.539-3.099,1.199-3.759
	C576.09,1527.837,575.425,1527.571,572.165,1527.571z"/>
<path fill="none" stroke="#006051" stroke-width="12" stroke-linecap="round" stroke-linejoin="round" stroke-miterlimit="10" d="
	M608.757,482.371c-0.934,0.934-0.667,1.2,1.2,1.2c1.866,0,2.133-0.267,1.199-1.2C610.224,481.437,609.689,481.437,608.757,482.371z"
	/>
<path fill="none" stroke="#006051" stroke-width="12" stroke-linecap="round" stroke-linejoin="round" stroke-miterlimit="10" d="
	M428.897,595.571c1.618,0,3.305,0.562,3.749,1.25c0.559,0.864,0.908,0.544,1.134-1.038c0.179-1.259,1.191-2.829,2.251-3.49
	c1.143-0.714,1.926-2.321,1.926-3.954c0-1.668,0.787-3.242,2-4c1.198-0.748,2-2.332,2-3.951c0-1.647,0.854-3.302,2.189-4.236
	c1.204-0.844,1.938-1.785,1.632-2.092s-2.755,1.701-5.439,4.462c-3.506,3.604-5.657,5.023-7.632,5.034
	c-2.384,0.014-2.75,0.414-2.75,3.007c0,1.909-0.725,3.444-2,4.241C424.824,592.759,425.379,595.571,428.897,595.571z"/>
<path fill="none" stroke="#006051" stroke-width="12" stroke-linecap="round" stroke-linejoin="round" stroke-miterlimit="10" d="
	M604.197,1511.571c-0.968,0-2.321,0.9-3.009,2c-1.145,1.834-0.999,2,1.76,2c2.342,0,3.009-0.443,3.009-2
	C605.957,1512.329,605.29,1511.571,604.197,1511.571z"/>
<path fill="none" stroke="#006051" stroke-width="12" stroke-linecap="round" stroke-linejoin="round" stroke-miterlimit="10" d="
	M735.957,799.571c-1.517,0-2,0.667-2,2.753c0,1.798-1.104,3.794-3.176,5.75c-2.818,2.66-2.959,3.036-1.25,3.344
	c1.059,0.191,2.375,0.782,2.926,1.313c0.653,0.631,1.111,0.238,1.324-1.136c0.179-1.155,1.191-2.642,2.25-3.303
	c1.346-0.841,1.926-2.334,1.926-4.962C737.957,800.238,737.602,799.571,735.957,799.571z"/>
<path fill="none" stroke="#006051" stroke-width="12" stroke-linecap="round" stroke-linejoin="round" stroke-miterlimit="10" d="
	M496.386,935.571c-3.329,0-4.719-0.491-5.661-2c-0.688-1.1-1.933-2-2.768-2c-0.836,0-2.081,0.9-2.769,2
	c-0.713,1.142-2.332,2-3.771,2c-1.663,0-3.775,1.362-6.2,4c-2.023,2.2-4.371,3.995-5.219,3.989
	c-2.029-0.014-8.041-6.247-8.041-8.337c0-0.899,0.899-2.197,2-2.885c1.212-0.757,2-2.332,2-4s0.787-3.242,2-4
	c1.384-0.864,2-2.332,2-4.768s-0.616-3.903-2-4.768c-1.213-0.758-2-2.332-2-4s-0.788-3.243-2-4c-1.545-0.965-2-2.332-2-6
	s-0.456-5.036-2-6c-1.213-0.758-2-2.332-2-4s-0.788-3.243-2-4c-2.107-1.316-2.695-4.686-1-5.732c1.625-1.005,1.176-2.164-2-5.162
	c-1.65-1.558-3-3.859-3-5.115c0-1.386-1.574-3.732-4-5.963c-2.388-2.195-4-4.583-4-5.923c0-2.828-4.415-7.337-7.185-7.337
	c-3.057,0-12.765-9.872-12.793-13.01c-0.013-1.407-0.901-3.058-2.022-3.758c-2.93-1.83-2.93-12.635,0-14.465
	c1.313-0.82,2-2.332,2-4.403c0-2.675-1.614-4.769-10.605-13.76c-7.032-7.032-11.344-10.604-12.8-10.604
	c-1.207,0-2.735-0.54-3.396-1.2c-0.933-0.934-1.467-0.934-2.399,0c-0.66,0.66-2.798,1.195-4.75,1.189
	c-2.704-0.008-4.325-0.809-6.8-3.356c-1.788-1.84-3.246-3.973-3.24-4.739c0.022-2.826,6.379-7.732,10.458-8.07l3.904-0.323
	l-3.187-2.997c-4.56-4.288-3.832-8.503,1.469-8.503c2.99,0,7.346-4.469,7.346-7.537c0-1.363,0.885-2.999,2-3.695
	c1.212-0.757,2-2.332,2-4s0.787-3.242,2-4c1.212-0.757,2-2.332,2-4s0.787-3.242,2-4c1.212-0.757,2-2.332,2-4s0.787-3.242,2-4
	c1.153-0.721,2-2.332,2-3.809c0-1.407,0.486-3.046,1.082-3.641c0.775-0.776,0.708-1.682-0.241-3.2
	c-1.234-1.978-2.169-2.118-14.073-2.118c-11.668,0-12.857-0.17-14-2c-1.004-1.607-2.332-2-6.768-2c-4.437,0-5.765,0.393-6.769,2
	c-0.787,1.26-2.332,2-4.177,2c-2.552,0-2.969,0.405-3.242,3.149c-0.381,3.834-3.015,5.842-5.562,4.242
	c-1.266-0.794-1.834-2.688-2.053-6.829c-0.348-6.593,0.785-8.562,4.925-8.562c2.211,0,2.878-0.463,2.878-2c0-1.523-0.667-2-2.801-2
	c-3.059,0-5.199-1.583-5.199-3.844c0-2.31,6.278-8.134,8.78-8.146c1.373-0.007,3.746-1.604,5.959-4.011c2.195-2.388,4.583-4,5.924-4
	c1.235,0,3.391-1.146,4.791-2.546c2.105-2.104,2.546-3.489,2.546-8c0-4.539-0.296-5.454-1.76-5.454c-0.968,0-2.321,0.9-3.009,2
	c-1.169,1.872-2.332,2-18.24,2h-16.991v2.791c0,1.977-1.168,3.864-4,6.469c-3.858,3.548-4,3.902-4,10.009
	c0,6.791-1.035,8.731-4.655,8.731c-3.911,0-7.345,4.459-7.345,9.537c0,3.363-0.487,4.75-2,5.695c-1.101,0.687-2,1.932-2,2.768
	c0,0.835,0.899,2.081,2,2.768c1.729,1.08,2,2.332,2,9.232s-0.271,8.152-2,9.232c-1.545,0.964-2,2.332-2,6s-0.456,5.035-2,6
	c-1.101,0.687-2,1.932-2,2.768c0,0.835,0.899,2.081,2,2.768c1.212,0.758,2,2.332,2,4s0.787,3.243,2,4
	c2.24,1.399,2.614,4.218,0.8,6.032c-0.934,0.934-0.934,1.467,0,2.4c1.814,1.814,1.44,4.633-0.8,6.032c-1.424,0.889-2,2.332-2,5.008
	c0,3.093,0.354,3.76,2,3.76c1.523,0,2-0.667,2-2.8c0-5.024,4.773-7.137,7.231-3.2c1.597,2.556,3.94,2.556,5.536,0
	c2.392-3.83,7.232-1.85,7.232,2.959c0,1.477,0.846,3.088,2,3.809c3.936,2.459,1.823,7.232-3.2,7.232c-2.743,0-2.8,0.118-2.8,5.76
	c0,4.676,0.376,5.994,2,7.008c1.456,0.91,2,2.332,2,5.232s-0.544,4.322-2,5.232c-1.101,0.687-2,2.33-2,3.651
	c0,3.394-5.79,9.092-9.25,9.105c-2.426,0.01-2.75,0.389-2.75,3.211c0,2.488,0.267,2.933,1.199,2c1.814-1.814,4.633-1.441,6.032,0.8
	c0.865,1.385,2.332,2,4.769,2c2.436,0,3.903-0.615,4.768-2c0.687-1.1,2.142-2,3.232-2c1.09,0,2.545,0.9,3.231,2
	c0.865,1.385,2.332,2,4.769,2c2.436,0,3.903-0.615,4.768-2c2.104-3.368,8.04-2.691,11.982,1.367c3.735,3.846,4.092,6.09,1.25,7.865
	c-1.766,1.102-2,2.332-2,10.463c0,8.539,0.187,9.4,2.545,11.759c3.067,3.067,4.565,3.199,6.223,0.546
	c1.399-2.241,4.218-2.614,6.032-0.8c0.728,0.728,1.2,4.265,1.2,8.991c0,6.709-0.278,7.965-2,9.041c-1.101,0.687-2,1.932-2,2.768
	c0,0.835,0.899,2.081,2,2.768c1.1,0.688,2,2.142,2,3.232s-0.9,2.545-2,3.232c-1.101,0.687-2,2.328-2,3.646
	c0,1.549-1.86,4.29-5.25,7.736l-5.25,5.339l-6.51,0.022c-5.412,0.02-6.721,0.36-7.759,2.023c-0.687,1.1-2.142,2-3.231,2
	c-1.091,0-2.546-0.9-3.232-2c-0.758-1.213-2.332-2-4-2s-3.243-0.787-4-2c-0.688-1.1-2.041-2-3.009-2
	c-2.653,0-2.46,7.082,0.241,8.768c2.828,1.767,2.484,4.281-1.043,7.61c-1.673,1.579-2.787,3.125-2.477,3.437
	c0.311,0.311,1.255-0.421,2.099-1.625c2.473-3.53,8.129-2.983,12.171,1.178c3.456,3.559,3.99,5.492,2.05,7.433
	c-0.934,0.934-0.934,1.467,0,2.4c1.814,1.814,1.44,4.633-0.8,6.032c-1.101,0.687-2,2.331-2,3.653
	c0,3.345-13.77,17.114-17.115,17.114c-1.322,0-2.966,0.9-3.653,2c-0.978,1.566-2.332,2-6.24,2c-6.202,0-6.512,1.57-1.283,6.502
	c3.941,3.718,4.807,4.091,5.792,2.498c0.34-0.55,3.197-1,6.35-1c5.408,0,5.94,0.227,9.41,4c2.264,2.463,4.57,4,6,4s3.735,1.537,6,4
	c3.401,3.699,4.075,4,8.968,4c4.208,0,5.547-0.409,6.54-2c2.104-3.368,8.04-2.691,11.982,1.367c1.787,1.84,3.25,3.923,3.25,4.628
	s-2.363,3.685-5.25,6.62l-5.25,5.339l-14.51,0.022c-13.413,0.021-14.604,0.175-15.759,2.023c-0.696,1.114-2.332,2-3.695,2
	c-3.946,0-7.536,4.377-7.536,9.189c0,3.271-0.656,4.773-3.25,7.443c-1.972,2.029-4.238,3.35-5.76,3.356
	c-1.418,0.006-3.053,0.881-3.759,2.011c-0.797,1.276-2.332,2-4.24,2c-2.595,0-2.993,0.365-3.002,2.75
	c-0.013,3.102-5.599,9.25-8.405,9.25c-0.937,0-1.425,0.45-1.084,1c1.004,1.625,2.164,1.176,5.161-2c2.333-2.472,3.626-3,7.345-3
	c3.43,0,4.812-0.48,5.762-2c0.757-1.213,2.332-2,4-2s3.242-0.787,4-2c0.687-1.1,2.142-2,3.232-2c1.09,0,2.545,0.9,3.231,2
	c0.711,1.138,2.332,2,3.762,2c1.527,0,3.688,1.246,5.51,3.176c2.666,2.824,3.037,2.963,3.362,1.25
	c0.609-3.205,14.492-16.426,17.249-16.426c1.322,0,2.966-0.9,3.653-2c0.909-1.456,2.332-2,5.232-2c2.899,0,4.322,0.544,5.231,2
	c0.721,1.153,2.332,2,3.809,2c1.408,0,3.1,0.54,3.76,1.2c0.933,0.933,1.467,0.933,2.399,0c0.779-0.778,4.829-1.2,11.531-1.2h10.331
	l3.678-4c4.069-4.426,6.604-5.022,8.492-2c1.069,1.712,2.332,2,8.769,2c6.436,0,7.698-0.288,8.768-2c1.079-1.729,2.332-2,9.232-2
	c6.899,0,8.152,0.271,9.231,2c0.864,1.385,2.332,2,4.769,2c2.436,0,3.903-0.615,4.768-2c0.757-1.213,2.332-2,4-2s3.242-0.787,4-2
	c0.687-1.1,2.328-2,3.647-2c1.623,0,4.532-2.133,8.992-6.593c3.626-3.626,6.593-6.866,6.593-7.2s-0.54-0.067-1.2,0.593
	c-2.017,2.017-8.602,1.492-10.032-0.8c-0.721-1.153-2.332-2-3.809-2c-4.809,0-6.789-4.84-2.959-7.232c1.1-0.687,2-1.933,2-2.768
	c0-0.836-0.9-2.081-2-2.768c-3.83-2.393-1.85-7.232,2.959-7.232c1.477,0,3.088-0.847,3.809-2c0.797-1.276,2.332-2,4.24-2
	c2.655,0,2.992-0.336,2.992-2.991c0-1.909,0.724-3.444,2-4.241c1.212-0.757,2-2.332,2-4s0.787-3.242,2-4c1.679-1.049,2-2.332,2-8
	s0.32-6.951,2-8c2.917-1.822,2.518-3.092-2.579-8.188C501.322,936.094,500.294,935.571,496.386,935.571z"/>
<path fill="none" stroke="#006051" stroke-width="12" stroke-linecap="round" stroke-linejoin="round" stroke-miterlimit="10" d="
	M759.957,1488.338c1.679,1.049,2,2.332,2,8s0.32,6.951,2,8c1.1,0.688,2,2.142,2,3.232s-0.9,2.545-2,3.232
	c-1.101,0.687-2,1.932-2,2.768c0,0.835,0.899,2.081,2,2.768c1.752,1.095,2,2.332,2,10s0.247,8.906,2,10c1.275,0.797,2,2.332,2,4.241
	c0,1.95,0.506,2.991,1.454,2.991c2.181,0,6.546-4.795,6.546-7.189c0-1.153,1.462-3.604,3.25-5.443
	c2.912-2.998,3.826-3.347,8.8-3.356c3.052-0.006,6.09,0.529,6.75,1.189c0.933,0.933,1.2-5.681,1.2-29.76
	c0-29.876-0.07-31.003-2-32.208c-1.213-0.758-2-2.332-2-4s-0.788-3.243-2-4c-1.115-0.696-2-2.332-2-3.695
	c0-1.346-1.146-3.592-2.546-4.992c-2.105-2.104-3.489-2.545-8-2.545c-5.231,0-5.454,0.108-5.454,2.646c0,1.953-1.923,4.567-7.355,10
	c-7.028,7.028-7.561,7.354-12,7.354c-3.767,0-4.645,0.333-4.645,1.76c0,0.968,0.899,2.321,2,3.008c1.212,0.758,2,2.332,2,4
	s0.787,3.243,2,4c1.212,0.758,2,2.332,2,4S758.744,1487.582,759.957,1488.338z"/>
<path fill="none" stroke="#006051" stroke-width="12" stroke-linecap="round" stroke-linejoin="round" stroke-miterlimit="10" d="
	M308.757,714.371c-0.66,0.66-2.46,1.2-4,1.2c-3.385,0-3.864,2.854-0.8,4.768c1.275,0.797,2,2.332,2,4.241
	c0,2.698,0.312,2.991,3.199,2.991c2.489,0,2.934-0.267,2-1.2c-0.666-0.667-1.199-3.866-1.199-7.2
	C309.957,714.504,309.689,713.437,308.757,714.371z"/>
<path fill="none" stroke="#006051" stroke-width="12" stroke-linecap="round" stroke-linejoin="round" stroke-miterlimit="10" d="
	M309.889,503.571c1.072,0,2.228,0.45,2.568,1c0.34,0.55,0.929,0.985,1.309,0.968c1.552-0.071,4.191-2.797,4.191-4.328
	c0-2.543-7.138-2.25-8.769,0.36C308.1,503.314,308.189,503.571,309.889,503.571z"/>
<path fill="none" stroke="#006051" stroke-width="12" stroke-linecap="round" stroke-linejoin="round" stroke-miterlimit="10" d="
	M317.957,853.219c0-0.643-0.9-1.729-2-2.416c-1.142-0.713-2-2.332-2-3.771c0-1.664-1.363-3.775-4-6.201c-2.66-2.445-4-4.532-4-6.229
	c0-1.467-0.85-3.08-2-3.799c-1.276-0.797-2-2.332-2-4.241v-2.991h-17.583l-3.678-4c-4.279-4.654-9.305-5.528-11.508-2
	c-0.757,1.213-2.332,2-4,2s-3.242,0.787-4,2c-1.039,1.664-2.332,2-7.695,2c-5.572,0-6.79,0.345-8.991,2.545
	c-1.399,1.4-2.545,3.561-2.545,4.801s-0.54,2.794-1.2,3.454c-0.934,0.934-0.79,1.2,0.644,1.2c2.234,0,8.535,5.906,8.535,8
	c0,2.499-6.419,8-9.335,8c-2.229,0-2.644,0.439-2.644,2.8c0,4.538-1.527,5.2-11.991,5.2h-9.592l-3.678-4c-2.022-2.2-4.121-4-4.663-4
	s-2.131,1.146-3.531,2.545c-1.93,1.93-2.545,3.575-2.545,6.801c0,2.34-0.54,4.794-1.2,5.454c-0.934,0.934-0.756,1.2,0.8,1.2
	c3,0,4.4,1.971,4.4,6.191c0,2.709-0.571,4.148-2,5.041c-1.213,0.757-2,2.332-2,4s-0.787,3.242-2,4
	c-3.063,1.913-2.585,4.768,0.8,4.768c4.554,0,5.2,1.516,5.2,12.191c0,8.709-0.222,9.93-2,11.041c-1.544,0.964-2,2.332-2,6
	s-0.456,5.035-2,6c-1.544,0.964-2,2.332-2,6s-0.456,5.035-2,6c-1.198,0.748-2,2.332-2,3.949c0,1.485-0.559,3.045-1.24,3.467
	c-0.843,0.521-0.473,0.947,1.155,1.332c5.523,1.304,5.173,7.19-0.469,7.855c-1.568,0.185-3.404,1.085-4.079,2
	c-1.03,1.397-0.893,1.748,0.858,2.187c3.144,0.788,4.529,3.539,3.009,5.974c-1.079,1.728-1.002,2.004,0.557,2.004
	c2.777,0,4.209,2.041,4.209,6c0,1.98-0.54,4.14-1.2,4.8c-0.934,0.934,0.176,1.2,4.991,1.2c5.108,0,6.41,0.35,7.44,2
	c0.688,1.1,1.933,2,2.769,2c0.835,0,2.081-0.9,2.768-2c0.696-1.114,2.332-2,3.695-2c3.068,0,7.537-4.355,7.537-7.346
	c0-3.65,1.933-4.654,8.959-4.654c5.477,0,6.766-0.33,7.809-2c0.688-1.1,2.149-2,3.249-2c1.751,0,1.845-0.25,0.749-2.004
	c-2.228-3.566,0.069-5.454,7.05-5.793c5.257-0.255,6.287-0.011,7.387,1.75c1.623,2.599,3.96,2.618,5.565,0.047
	c1.016-1.626,2.332-2,7.04-2c3.186,0,6.332,0.54,6.992,1.2c0.933,0.933,1.2,0.757,1.2-0.791c0-1.096,1.8-3.646,4-5.669
	c3.534-3.25,4-4.204,4-8.201c0-3.439,0.479-4.821,2-5.771c1.915-1.195,2-2.332,2-26.768s-0.085-25.572-2-26.768
	c-1.101-0.688-2-1.983-2-2.88c0-2.438,10.126-12.303,12.657-12.329C304.888,867.57,317.957,855.325,317.957,853.219z"/>
<path fill="none" stroke="#006051" stroke-width="12" stroke-linecap="round" stroke-linejoin="round" stroke-miterlimit="10" d="
	M387.156,656.771c0.66-0.66,2.101-1.2,3.2-1.2c1.556,0,1.733-0.267,0.8-1.2c-1.94-1.94-1.406-3.874,2.051-7.433
	c3.367-3.467,5.572-4.145,7.432-2.285c1.461,1.461,5.318-0.949,5.318-3.322c0-1.484-0.94-1.76-6-1.76c-5.905,0-6,0.045-6,2.8
	c0,3.554-1.646,5.2-5.2,5.2c-2.708,0-2.8,0.172-2.8,5.2C385.957,656.815,386.224,657.704,387.156,656.771z"/>
<path fill="none" stroke="#006051" stroke-width="12" stroke-linecap="round" stroke-linejoin="round" stroke-miterlimit="10" d="
	M295.707,692.178c2.399,1.822,2.366,1.833,6.541-2.105c2.352-2.218,3.709-4.41,3.709-5.991c0-1.411,0.868-3.036,2-3.743
	c1.1-0.687,2-1.681,2-2.208c0-0.528-0.54-0.42-1.2,0.24s-2.199,1.2-3.421,1.2c-2.254,0-11.379,8.195-11.379,10.219
	C293.957,690.373,294.744,691.448,295.707,692.178z"/>
<path fill="none" stroke="#006051" stroke-width="12" stroke-linecap="round" stroke-linejoin="round" stroke-miterlimit="10" d="
	M189.957,358.579c0-3.908,0.434-5.262,2-6.24c1.384-0.865,2-2.332,2-4.768s-0.616-3.903-2-4.768c-1.142-0.713-2-2.332-2-3.771
	c0-1.664-1.362-3.775-4-6.2c-2.66-2.446-4-4.533-4-6.229c0-1.468-0.85-3.081-2-3.8c-3.022-1.888-2.426-4.423,2-8.492
	c3.217-2.958,4-4.369,4-7.208c0-3.152-0.284-3.531-2.646-3.531c-1.954,0-4.567-1.922-10-7.355
	c-7.387-7.386-8.375-9.225-6.154-11.445c0.933-0.934,0.933-1.467,0-2.4c-0.66-0.66-1.2-2.014-1.2-3.008c0-1.558-0.277-1.636-2-0.56
	c-1.508,0.942-2,2.332-2,5.652c0,3.615-0.582,5.002-3.25,7.749c-3.942,4.059-9.879,4.735-11.982,1.367c-0.687-1.1-1.933-2-2.768-2
	c-0.836,0-2.081,0.9-2.769,2c-1.888,3.022-4.423,2.425-8.492-2c-2.022-2.2-4.007-4-4.408-4c-0.402,0-0.191,0.54,0.469,1.2
	c1.553,1.552,1.553,8.047,0,9.6c-0.66,0.66-2.82,1.2-4.8,1.2c-4.25,0-6-1.447-6-4.959c0-1.477-0.847-3.088-2-3.809
	c-1.483-0.926-2-2.332-2-5.44c0-3.26-0.267-3.925-1.2-2.992c-0.66,0.66-3.149,1.2-5.531,1.2c-3.773,0-4.805,0.515-8.009,4
	c-2.022,2.2-4.394,4-5.269,4c-2.341,0-3.991-2.051-3.991-4.959c0-1.477-0.847-3.088-2-3.809c-1.75-1.093-2-0.999-2,0.751
	c0,1.1-0.9,2.562-2,3.249c-1.154,0.721-2,2.332-2,3.809c0,3.726-1.792,4.959-7.2,4.959c-4.522,0-4.8,0.152-4.8,2.644
	c0,4.095-5.633,9.333-10.05,9.346c-5.508,0.017-5.95-1.038-5.95-14.181c0-10.708,0.184-11.906,2-13.041c1.212-0.757,2-2.332,2-4
	s0.787-3.243,2-4c2.761-1.725,2.761-7.812,0-9.536c-1.142-0.712-2-2.332-2-3.771c0-1.664-1.362-3.775-4-6.201
	c-2.2-2.022-4-4.573-4-5.668c0-1.428-0.307-1.686-1.082-0.909c-0.776,0.776-0.708,1.681,0.24,3.2c1.097,1.757,1.097,2.479,0,4.236
	c-0.948,1.519-1.017,2.424-0.24,3.2c1.469,1.469,1.376,11.988-0.118,13.482c-2.148,2.148-4.212,1.244-9.55-4.184
	c-3.658-3.72-5.25-6.138-5.25-7.977c0-1.972-0.506-2.639-2-2.639c-1.524,0-2,0.667-2,2.8c0,1.54-0.54,3.34-1.2,4
	c-0.934,0.934-0.934,1.467,0,2.4c1.553,1.552,1.553,8.047,0,9.6c-0.934,0.934-0.713,1.2,0.991,1.2c1.205,0,2.754,0.9,3.44,2
	c0.701,1.122,2.352,2.01,3.759,2.023c2.73,0.025,13.01,9.579,13.01,12.091c0,0.766-1.429,2.741-3.176,4.389
	c-2.822,2.664-2.961,3.036-1.25,3.354c5.306,0.986,5.709,4.375,1.059,8.893c-3.846,3.736-6.09,4.093-7.865,1.25
	c-1.143-1.83-2.332-2-14-2s-12.857-0.17-14-2c-0.687-1.1-2.041-2-3.009-2c-2.405,0-2.243,3.217,0.241,4.768c1.212,0.757,2,2.332,2,4
	s0.787,3.243,2,4c1.212,0.757,2,2.332,2,4s0.787,3.243,2,4c1.212,0.757,2,2.332,2,4s0.787,3.243,2,4c1.141,0.712,2,2.332,2,3.771
	c0,1.664,1.362,3.775,4,6.2c2.2,2.023,4,4.324,4,5.113c0,2.049-6.166,8.124-8.259,8.137c-1.508,0.009-1.58,0.296-0.51,2.011
	c0.758,1.212,2.332,2,4,2s3.243,0.787,4,2c0.688,1.1,1.933,2,2.769,2c0.835,0,2.081-0.9,2.768-2c0.688-1.1,2.033-1.99,2.99-1.977
	c2.682,0.035,12.242,10.264,12.242,13.098c0,1.319,0.899,2.96,2,3.647c1.275,0.797,2,2.332,2,4.24c0,2.608,0.358,2.992,2.791,2.992
	c1.977,0,3.864,1.167,6.469,4c2.425,2.638,4.537,4,6.2,4c1.439,0,3.06,0.858,3.771,2c0.965,1.544,2.332,2,6,2s5.036,0.456,6,2
	c0.89,1.424,2.332,2,5.009,2c3.397,0,3.76-0.254,3.76-2.644c0-3.047,5.54-9.329,8.241-9.346c0.958-0.006,2.304,0.889,2.99,1.989
	c1.147,1.836,2.332,2,14.49,2h13.24l5.77-5.995c5.373-5.585,6.077-5.996,10.277-6c3.424-0.004,4.811-0.487,5.759-2.005
	c0.688-1.1,2.142-2,3.232-2s2.545,0.9,3.231,2c0.688,1.1,1.791,2,2.452,2c0.662,0,4.746-3.6,9.075-8c7.618-7.741,8.024-8,12.557-8
	h4.685V358.579z"/>
<path fill="none" stroke="#006051" stroke-width="12" stroke-linecap="round" stroke-linejoin="round" stroke-miterlimit="10" d="
	M17.957,275.571c1.866,0,2.133-0.267,1.2-1.2c-0.934-0.933-1.467-0.933-2.4,0C15.823,275.304,16.09,275.571,17.957,275.571z"/>
<path fill="none" stroke="#006051" stroke-width="12" stroke-linecap="round" stroke-linejoin="round" stroke-miterlimit="10" d="
	M180.965,959.571c-2.342,0-3.008,0.443-3.008,2c0,1.242,0.666,2,1.759,2c0.968,0,2.322-0.9,3.009-2
	C183.87,959.737,183.724,959.571,180.965,959.571z"/>
<path fill="none" stroke="#006051" stroke-width="12" stroke-linecap="round" stroke-linejoin="round" stroke-miterlimit="10" d="
	M541.064,1010.678c1-1,2-1,3-1c4-3,7-8,11-9c9-2,19,0,25-9c1-1,4-1,5-2c1-2,4-2,5-4c1-3-2-6-5-8c-7-6,2-13,1-21c4-3,7-10,8-16
	c1-4,3-8,6-11c3-2,6-5,9-7c3-3,2-7,6-10c5-3,11-2,16-1c2-3,6-4,10-6l1-2c4-1,6,5,9,4c5-4,3-11,3-16c8,1,16-2,23,1c3,2,0,6,2,9
	c3,3,8,1,11,2c1,0,3,4,5,3c5-1,4-8,2-13c0-1-1-1-2-2c-3-5,0-11,5-12s11,0,14-4c-2-2-4-4-5-7c0-2,1-3,1-5s-4-4-4-6c0-3-5-5,0-10
	c-2-5-6-9-12-8c-1.002-10.061,4.19-0.83,0,0c-1-10,2-20-2-29c-1-4-1-8-2-12c-1-3-3-6-4-9c0-1,0-2,0-3c-5-4-3-11-6-16
	c-6-10-11-23-3-34c1-2,1-4,1-4c10-4,19-10,26-18c1-3,3-6,4-9c1-1,4-2,6-3c1,0,3,0,4,0c2,2,6,0,3,5c-4,8-2,17-4,26c0,2-2,5-2,6
	c1,9,11,14,20,12c-2.738,9.573-6.411,1.424,0,0c-3,12-12,22-15,34c-2,5-6,8-9,13c-5,8-1,17-1,25c0,1,1,3,2,4c10,2,10,13,17,17
	c4,2,7,4,11,6c3,2,7-1,10,0c5,2,10,7,15,5c9-5,20-5,30-3c3,0,6,2,10,3c5,1,11-2,16,1s9,5,14,7c7,1,14-1,19-7c-3-3-2-6,0-9
	c2-1,3-3,5-5c5-3,9-6,14-7c14-2,22-12,26-24c5,0,7-4,11-6c1-1,1-2,2-3c10-6,18-14,29-15c1,6,5,12,11,15c1,0,2,0,3,0c4,2,6,5,10,7
	c7,5,13-1,18-5c4-3,2-8,4-12s6-5,9-9c1-2,4-4,1-7s-8-1-11.045,0.73c0.402-3.309,2.886-0.745,0,0c0.012-2.675,2.107-4.187,4.1-5.555
	c2.874-1.972,3.945-2.501,3.945-6.176c5.861,3.345,15,2.7,18.266-3.967c7.734-14.033-2.266-28.033-10.266-40.033c-3-3-6-6-7-9
	c-1-2-3-4-2-5c1-4,0-7-4-10c-6-6-2-15-3-23c6-7,4-17,4-26c5-4,8-10,13-13s10,0,14,2c2,1,4,3,6,4c3,3,5,7,9,9c1,0,2,0,3,0
	c3,1,5,5,8,4c9-2,18-1,26-5c3-1,1-6-1-9c-3-3-6-5-10-6c2-9-3-16-8-24c0-1,0-3,0-4c-4-8-3-17-5-25c-6-5-11,3-17,5c-2,0-4-1-5-3
	c-1-4-4-7-4-10c-1-6-5-10-6-16c0-2,1-5,3-6c7-4,10-10,15-15c9-10,22-20,36-20c2,0,5,2,8,3c10,2,20-4,22-14c0-2,0-4,0-6c1-3,4-4,7-5
	c1-1,1-3,2-4c7.855,3.065,9.307-8.384,12-13c-0.658-0.33-1.34-0.67-2-1c2-1,4-2,6-5c1,0,2,0,3,0c2,0,3,2,4,3s3,1,5,1c5-1,9-6,8-12
	c0-1-1-3-2-3c-4-1-7-5-11-5c-5,0-8,4-13,5c-2,0-5,0-7,0c-10-1-12-11-18-17c-5,2-10,4-16,6c0,5-1,9-1,14c-4.972-0.01-0.002-4.094,0,0
	c-7,1-15-2-22,4c-2,1-7-1-9,2c-3,8-7,14-14,19c-1,1-2,4-3,5c-2,1-4,2-6,2c-1,0-2,1-2,2c-1,5-2,11-5,14c-1,0-4,0-5,1c-5,4-10,6-16,8
	c-2,1-3,2-4,3c-3.143-2.38,2.98-5.551,0,0c-4-4-10-5-15,0h-2c-2-2-1-5-1-7c1-3,1-6-2-8c-7-3-16,2-23-3c-4-3-7-7-8-13l-2-1
	c-3-10,2-21-3-31c-3-6-11-9-10-17c-6-5-6-13-9-19c-1-2-4-4-6-6c-1-1-2-3-1-5c4-7,7-13,10-20c1-2,3-4,4-6c2-11,9-20,12-30
	c5-13,8-26,14-39c1-3,0-7,0-11c0-2,1-4,2-5c4-4,13-9,7-16c-4-4-10-5-13-9c-3-5-5-9-7-14c-10,2-20-2-30,1c-6,1-8,13-17,9
	c-2-1-3-3-5-4s-5-3-7-2c-6,5,5,12,6,19c-4,5-9,11-8,18c8,6-2,15-1,23s7,12,13,17c0,0,0,1,0,2c-1,2-3,2-4,4c0,1,0,3,0,5
	c-2,5-3,11-5,16c-1,3-4,6-6,9c-7,8-15,15-18,26c0,1-2,1-3,1c-7,4-11,13-6,20c-6,10-12,20-10,32c6,8,5,19,0,28c0,1,0,4,0,5
	c1,2,3,3,4,5c5,11,5,25,16,30c13,6,23,14,35,21c2,1,3,3,4,4s2,3,1,5c-4,8-11,15-12,25c0,2,2,3,3,5s2,4,2,6c0,4-4,9-9,8
	c-3,7-10,10-15,16c-1,2-1,5-1,7c1,4,3,7,4,10c1,5-2,10,1,15l2,1c2,2,2,5,0,8c-3,3-7,6-6,10c1,8,3,16,4,24c0,3,3,5,3,8c0,6,0,12-2,17
	l-2,1c0,1,0,2,0,3c-2,3-3,7-5,11c-3,10-17,8-26,13c-2,6-7,9-9,15c-1,5,5,7,6,12c-3,2-4,6-6,9c0,1-1,2-2,2c-7-1-13,1-20,4
	c-1,0-3,0-4,0c1.836-3.665,5.207,1.052,0,0c1-2,2-3,3-5c5-8,1-14-6-18c-2-1-5,0-7-2c-2-4,0-6,2-9s-1-7,2-11c-4-5-5-10-10-14
	c-3-2-1-7-4-8c-4-1-8-3-10-7c-3-9-10-16-15-25c-3-5-2-10,2-15c1-2,2-4,1-6c-3-5-1-14-8-16c-2,0-5,2-7,4c-2,1-5,0-6-1c-1-2,0-5,0-8
	c1-3-2-6-3-9c-1-4,1-9,0-13c-2-7-11-5-16-5c0-6,2-13-4-17c0-6,1-11-1-17c0-1-1-2-2-2c-9-1-6,12-11,17c-1,0-1,1-2,1c-2,3,0,5,2,8
	c6,8,3,20-7,23c-1,1-3,2-5,3c-8,8-12,19-21,25c-1,5-2,10-5,14c-2,2-6,2-9,2c-7,1-13,6-20,6c-5,1-8-7-15-6
	c0.244-2.471,3.888-0.655,0,0c1-3,5-5,2-8c-8,1-19-1-19-11c0-2,1-3,1-5c1-2,4,0,6-2c0-1,1-2,1-2c-3-6-1-11,4-15c1-1,1-3,1-3
	c-6-3-3-7-1-11c0-1-1-3-2-3c-5,0-10,5-15.437,2.393c2.295-2.525,2.437,0.23,0,0c3.437-4.393,9.437-4.393,8.437-10.393c0-6-2-11,2-17
	c1-2,1-7-2-8c-6-2-11-3-17-4l-1-2c3-5,10,0,14-3c0-1,1-2,1-2c8-2,18-2,25,2c1,1,4-2,4-4c0-6,2-13-2-18c-2-2-4-2-7,0c-5,3-8,8-12,11
	c-4,2-8,0-12,0c-1,1-3,1-4,1s-2-1-3-1c1-5-3-7-7-8c-3-12-1-24-1-36c10,0,22,1,28-8c-5-7-14-2-21-4v-2c4-2,6-4,9-7c5-3,11-3,16,0
	c2,1,4-1,5-2c4-4,1-10-3-13c2.157,1.151,2.502,2.479,0,0c2.157,1.151,3.893,4.556,6.552,4.368c3.232-0.229,3.846-4.844,3.938-7.306
	c0.238-6.4-4.198-12.481-10.49-14.062c0.891-1.603,1.532-0.372,2.743,0.075c1.257-0.075,3.257-0.075,4.257-0.075c5-6,10-6,16-3l2-1
	c1-8-2-17,5-23c1-1,4-1,4,1s1,4,1,6c1,1,3,1,4,1c1-1,2-2,2-4c2-8,10,0,15-1c4-2,8-5,12-8c3-3,4-7,5-11c1-1,0-4-3-5
	c1.714,0.04,1.344,1.313,0,0c2,1,4,2,5,1c5-5,6-12,12-16c1-1,2-3,2-5c0-1-1-3-2-3c-4,1-6,4-9,7c-2,2-5,0-7,2c-6,6-10,14-16,20
	c-4.443-5.155,1.684-1.554,0,0c-6-8,1-17,4-25c0,0,1-1,2-1c2-2,0-6,2-7c3-1,8,1,10-2c2-5,3-10,5-16c0-2-1-3-2-5
	c7.721-5.145,2.161,2.16,0,0c8-6,16-12,22-21c0-1,0-2-1-3c-2-2-6,1-7-2c0-3,2-5,4-7c1-2-1-4-3-6c-1-1-2-3-1-5c1-1,3-1,3-2
	c0-5,4-7,5-11c0-2-3-3-2-5c2-6,13-6,9-14c-2-3-7,0-10-1c0,0-1-1-1-2c0-2,2-3,3-5c2-9,0-18,9-24c0-1,0-4,1-5c6-4,12-4,19-4
	c2,0,4-2,4-3c0-7-8-8-14.48-9.607c1.919-1.572,4.545,0.474,0,0c3.728-2.301,5.529-6.192,6.519-10.311
	c0.392-1.63,0.289-4.355,1.183-5.741c1.164-1.803,2.653-2.087,2.913-4.644c0.364-3.567-1.839-6.245-5.298-6.786
	c-1.126-0.177-2.789,0.245-2.733-1.703c0.042-1.473,2.295-2.573,3.676-2.611c3.515-0.098,5.666,4.117,8.893,4.31
	c1.751,0.104,2.571-1.29,3.034-2.86c0.735-2.496-0.583-2.926-2.223-4.398c-4.2-3.768,0.675-7.412,4.598-8.247
	c3.177-0.676,8.068,0.679,9.687-3.153c1.306-3.092-2.556-4.661-4.92-5.247c-2.564-0.636-4.124-3.56-6.54-3.976
	c-2.815-0.485-6.37,2.843-8.974,3.656c-2.73,0.853-6.415-0.507-7.204,3.404c-0.639,3.17,2.28,2.785,4.286,3.788
	c1.834,0.917,2.011,2.47,0.123,3.758c-2.615,1.783-5.896-0.939-8.375-1.779c-3.101-1.05-6.663-1.374-9.165,1.149
	c-1.281-2.561-0.318-2.326,0.548-4.851c0.803-2.339-1.215-3.463-2.889-4.922c-1.859-1.621-3.236-3.078-2.565-5.682
	c0.566-2.197,2.646-4.117,1.905-6.545c2.253-0.024,4.487-0.483,6.741-0.444c1.259,0.444,2.259,0.444,3.259,0.444s2,2,3,2
	c6,1,11,4,16,5c1,1,2-2,4-3c1,0,2,0,3,0s3-1,3-2c1-6,8-10,4-16c-2-2-3-5-4-8c-1-1-1-2-2-2c-2-1-3,0-5,1c-1,0-3,0-4-1c-1-2-1-5,0-7
	s2-7,7-4c6,3,17,6,21-2c-3-9,4-17,9-24c1,0,2,0,3,0v2c5,4,3,9,6,14c1,0,2,1,2,1c8-5,2-15,4-23c1-2,2-3,4-4c3-1,7-2,9,2c1,1,2,1,3,1
	c5-2,6-10,3-14c-1-1-3-1-5-2s-3-2-4-3c0-1-1-3,2-3c9,0,13,11,23,9c3-5,0-10-3-14c0-1,0-2,0-3c2-4,5-7,7-11c4-7,0-15,1-23
	c4.795,2.002,7.424-4.135,11-6c-3,10-7,21,0,30c1,1,3,0,5-1c-0.874,0.807-3.126,0.248,0,0c-0.874,0.807-2.248,1.078-3,2
	c-0.825,1.012-0.903,2.963-0.973,4.2c-0.105,1.875,0.514,5.471,2.314,6.578c1.064,0.655,4.52,0.956,5.771,0.666
	c2.806-0.649,3.303-3.554,3.747-6.012c2.109-11.667-2.543-24.171,2.141-35.432c3.206,1.645,9.492,13.651,13.082,5.383
	c0.918-6.383,2.918-14.383-3.082-17.383c0-5,6-8,10-8c1,0,2,1,2,2c1,8-4,21,7,23c6,0,11-8,8-14c-1-1-1-1-2-2c-3-3,0-6,3-7
	c4-1,6,4,9,3c1-1,4-2,4-4c7,3,13,6,19,10c-4,6-9,15-18,14c0,0-1,2-2,3c-3,7,4,9,10,11c1,1,3,3,6,3c6-2,12-4,18-5c1,0,2,1,3,1
	c4-1,10,0,11-7c0-1,2-3,3-2c2,1,0,5,2,6c7,3,15,3,20-2c1.379,1.419-1.509,1.814,0,0c1,0,2,1,2,1c2,4,2,14,8,9c4-5,10-11,17-10
	c13-12,32-7,48-8c10,6,21,4,32,4c9,6,22,7,30,0c3,1,5,4,7,5c3,1,5,4,8,3c1-1,2-4,4-4c1,0,2,0,2,0c5,5,12,8,17,13c9,9,11,22,8,34
	c-2,6-4,11-6,17c-2,3-4,5-7,7c-6,2-9,7-11,12c-8,1-16,3-24,5c-7,1-13,0-20,0c-6,5-13,4-20,4c-2,0-4,4-7,3c-2-1-3-3-5-3c-1,0-2,2-3,3
	c-6,5-15,8-21,1c-7,1-16-4-20,4c0,1,2,3,3,4c2,1,4,1,6,2s3,4,5,5c9,4,18,8,26,13c3,1,6,0,9,0s4,4,7,4s6-1,9,1c1,1,3,2,5,3
	c4,4,2,11,2,16c0,2,1,4,2,5c6,3,11,9,16,14c2,13,17,16,27,21c2,1,4,0,5-1c1-2,1-5,1-7c5.686,6.319,0.043,2.036,0,0c11,10,26,9,40,7
	c1-6,6-9,8-14c1-2,2-4,1-6c-4-5-7-9-9-14c-7-1-13,0-20,1c-5,1-10-1-14-3c-5-1-1-10-2-15c4.164-0.022,0.014,3.59,0,0c5,0,11-1,15,3
	c3,3,7,10,13,7c1-1,1-4,1-5c3-2,7-3,10-5c5-1,10,1,15-1c3-8,13-11,21-11c2,0,4,3,6,4c4,2,8-3,13-4c1,0,3,0,4,0c3-1,5-4,9-5
	c1,0,2-1,2-2c0-8-10-8-15-13c-5,1-10,6-15,8c-7,2-12-7-19-8c-2,0-5,0-7,0c-7-3-13-5-20-4c-0.031-2.011,5.832-0.835,0,0c0-2,0-4,0-6
	c2-7,4-13,4-20c0-2,3-3,4-5c0-1,0-2,0-3c4-6,10-11,8-18c-1-2-2-3-3-5c-4-9,8-10,14-12c1,0,1-1,2-2c5-3,8,1,12,3c6-5,8-13,7-20
	c-1-4-4-7-5-12c0-1-1-3-2-5c0-1-2-1-2-2c-1-1,0-3-1-4c-6-6-14-11-22-8c-0.059-4.193,6.588-2.476,0,0c0-3-1-6,1-9c4-6,11-1,16-1
	c1,0,2-2,3-2s2,0,3,0c4,4,9,2,12,7c7,0,13-4,19-8c1-1,1-4,2-6c1-1,2-2,3-3c0-1,6,0-1.107-4.191c0.594-0.127,1.256-0.098,1.826,0.041
	c-0.561,0.447-1.285,0.467-1.826-0.041c2.246,0.166,4.496,0.252,6.746,0.278"/>
<path fill="none" stroke="#006051" stroke-width="12" stroke-linecap="round" stroke-linejoin="round" stroke-miterlimit="10" d="
	M466.064,1101.678c1-1,3-3,5-5s4-6,0-9c-1-10,10-10,16-13c1-1,2-3,3-3c7,0,17-3,16-12c4.982,0.042,0.82,5.626,0,0c1,0,2,0,3,0
	c11-6,3-20,5-30c2-5,6-6,10-8c6-2,12-6,17-11"/>
<path fill="none" stroke="#006051" stroke-width="12" stroke-linecap="round" stroke-linejoin="round" stroke-miterlimit="10" d="
	M249.415,1681.234c-6.351-8.556-17.351-13.556-22.351-23.556c-2-4-1-9-1-13c-1-6-6-8-10-12c-4-2-9-5-14-5s-9,0-14,0c-2,0-3,1-5,2
	c-2,2-3,4-5,4c-7,1-13-2-19-5c-4-2-9-1-13-1c-1,0-3-1-4-2c-1-10,9-18,12-27c-7-7-4-17,0-24c-1-7-7-12-15-11c-1,0-2-1-3-2
	c0-1,0-1,0-2c-1-1-2-1-3-2c-7-7,1-15,5-21c2-4-3-3-4-6c0-1,0-2,0-2c14-7,18-23,26-35c3-12,6-24,10-36c1-4-2-7-2-10c-3-15-4-29-1-44
	c5-2,4-8,7-12c-4-8-12-14-16-22c-1-3-2-7,1-10c4-2,8-5,12-7c5-2,11-1,17-1c5,0,4-3,6-7c1-1,3-1,4-1c8-7,19-4,26,3c11,2,22,0,33,0
	c19,1,37,9,56,14c1,0,1,2,2,2c7,2,14,1,21-3c2,0,4,4,6,4s4-4,6-4c5,2,10,5,14,8c2-3,6-5,9-5c9,1,18,7,27,4c1,0,2-1,3-2c4-2,9,0,13-3
	c4-4,5-9,8-13c1-3-1-7,0-10c2-6,3-12,5-18c0-2,2-4,3-6c1-12,0-25,0.393-37.46c0.781,0.922-0.239,8.205,0,0
	c0.781,0.922,1.692,3.727,0.863,4.874c-0.997,1.379-0.873-4.282-0.863-4.874c2.474,1.479,4.298,6.532,7.607,6.46c1,0,2-1,3-2
	c4-10-5-17-11-23c-1-10,3-21-4-29c-2-1-5-2-7-3c-3-1-7-3-10-5c-4-6-11-14-4-21c0-8-10-10-15-14c-2-3,4-4,4-7s-5-4-8-4l-1-2
	c-8-3-16-6-23-12c-3-2-6-2-9-2c-6-2-12-6-19-3c0.045-2.78-2.216-4.257-4-6c2,1,3,2,5,1c1,0,2-1,2-2c4-8-2-15-8-20c0,0,0-1,0-2
	c1-2,3-2,4-3c5-4,10,0,15,3c6-2,12-3,18-6v-2c3-1,4,2,6,3c1,1,2,3,3,4c3,2,4,5,7,7c2,1,4,1,6,1c4-1,7-3,12-3c2-1,5-2,7-3s4,2,7,3
	c3,0,5,0,8,0c4-1,6-4,3-7c-1,0-2-1-2-1c-2-5-2-9-5-14c0-1,0-2,0-3c1-3,7-6,3-10c-2-1-4-1-6-1c-1,0-2-1-2-2c-2-5,4-6,8-8
	c1.851,3.708-2.051,2.096,0,0c1,4,3,7,4,11c2,4,6,4,9,0c1-1,4-2,5-2c8,5,18,12,27,7"/>
<path fill="none" stroke="#006051" stroke-width="12" stroke-linecap="round" stroke-linejoin="round" stroke-miterlimit="10" d="
	M409.064,1625.678c-1,2-3,3-5,5c-3,5-7,9-11,13c-2,2-3,4-3,6c0,3,0,6-2,7c-4,2-9-1-14-1c-3,1-4,4-6,5c-8,3-17,0-26-2c-1-1-2-3-4-3
	c-9,0-19-2-28-1c-10,2-19,6-29,9c-3,1-6,2-8,4c-5,4-7,9-12,13c-2,1-3,1-5.251,2.442"/>
<path fill="none" stroke="#006051" stroke-width="12" stroke-linecap="round" stroke-linejoin="round" stroke-miterlimit="10" d="
	M1380.582,1328.067c-1.729,0.896-3.271,2.113-4.518,3.611c0.477-0.556,1.051-1.083,1.674-1.354
	c-0.389,0.608-0.988,1.065-1.674,1.354c4-3,3-10-1-11c-2-1-5,1-8,2c-8,2-15,2-22,4c-11,4-22,0-34,1c-1,0-3,1-4,2c-1,2-1,6-4,6
	c-9,1-16,5-20,14c-1,4-8,1-12,3c-1,1-1,2-1,3c4,6,6,11,12,15c1,1,1,2,1,3c-3,2-7,4-10,6c-2,2-5,0-7,2c-2.848-2.777,2.855-2.602,0,0
	c-1-1-1-2-2-2c-4,0-8-1-11-3c-1-1-2-3-3-4c-6-4-12,4-13,9c-1,9-1,18,3,27c5,10,14,15,21,23c2,2,0,5,2,7c4,3,8,0,12,1c8,3,15,9,23,12
	c4,1,7,0,11,0c2,0,4,1,6,2c-7.027,4.739-2.754-2.007,0,0c-3,4-9,2-13,1c-11-2-21-9-33-8c-4,0-7,2-11,2c-1,0-4,1-4,2c0,5,7,4,11,6
	c1,0,1,2,2,2c5,2,10,0,15,1c10,4,19,9,29,10c3,4,4,8,8,12c0,1,1,4-4,2c-8-3-17-7-25-2c-4-2-5-6-8-8c-5-3-12-1-17-3c-2-1-6-3-8-2
	c-7,3-12,9-19,13c-6,3-11-1-17-2c-2,0-3,2-4,3c-2,1-4,0-6-1c-3-3-9-4-5-10c1-1,2,0,3-1c6-10-7-14-14-16c-9,5-17-2-21-10
	c-1-3,1-6-2-8c-5-3-10,2-14-3c-2-3-2-8-6-9c-6-2-14,1-16-8c0-2,1-3,2-5c1-4-3-7-8-7c-1,0-3,0-4-2c-2-9,4-18-2-27s3-23-6-29
	c-6-4-17-4-17-13c-8-4-14-10-23-10c-4,0-9,1-13,0c-2-1-4-3-6-4c-2,0-4,1-6,0c-7-4-14-3-21-4c-2,0-3-2-4-3c-1-2-1-4-1-6
	c-1-10-13-8-20-11c-2,0-5,0-7,0c-3,1-6,0-8,3c-9-6-17-12-27-16c-2-1-4-3-4-5c2-2,7-2,9-5c0-1,0-2-1-3c-8-4-17-6-22-14
	c-6-10-7-24-19-29c-5-1-9,2-12,5c-1,1-2,3-2,4c1,5,4,10,8,13c-0.824-0.034-1.549-0.475-1.754-1.23
	c0.67,0.192,1.279,0.664,1.754,1.23c-3.541,0.381-3.561-4.708-7.144-4.712c-3.269-0.003-4.046,4.042-6.856,4.712
	c-2.822,0.672-4.037-2.999-5-5c-1.229-2.556-4.789-7.156-3.832-10.166c1.215-3.816,8.055-1.419,8.646-5.549
	c0.987-6.877-9.949-4.358-12.814-2.285c-2.441-6.652-12.097-7.859-18.023-5.515c-4.977,2.515-10.977,5.515-15.977,9.515c0-1-1-2-1-2
	c-11,0-12,13-10,22c1,2,1,4,2,6s3,2,5,3c1,1,2,2,2,3c-5,2-6,8-5,12c2,8,8,15,13,22c7,8,17,12,26,18c1,0,2-1,3,2c7-1,13,3,17,9
	c9,13,12,27,25,37c8,6,16,10,24,16c7,6,16,7,25,6c0,0,1-1,1-2c5-4,12-3,17.393-8.48c0.895,2.416-1.705,1.492,0,0
	c-0.393,1.48,0.607,2.48,0.607,3.48c-1,5-6,8-7,12c-1,2-4,5,2,7c5,1,10-1,15,1c11,4,22,7,34,10c4,2,7,5,11,7c8,3,16,2,24,2
	c1,7,8,11,14,15c5,3,4,11,2,16c0,0-1,1-2,1c-3-2-6-4-9-6s-2-6-5-8c-4-3-9-2-14-2c-3-6-9-2-14-5c0,0-1-1-1-2c-1,0-1-1-2-1
	c-9,3-15,11-16,20c-1,7-1,13-1,20c0,1,1,3,1,4c1,2,2,4,3,5c4,3,9,2,13,4c3,2,5,5,7,7s3,4,4,7c0,2,0,4,0,5c-1,2-2,3-4,4
	c-7,2-17,5-15,15c1,4,4,7,3,11c-1,2-5,2-6,4c-3,7-3,18-14,18c-1,0-3-1-3-2c0-3,4-5,5-7c2-7-4-14,1-20c2-2,5-3,7-4c6-4,3-11-2-14
	c-4-1-7-2-9-6c-5-10-9-19-16-28c-1-2-2-5-2-8c0-1-1-3-2-3c-3-1-5,1-8,2c-14,5-19-13-27-21c-2-2-5-1-8-1l-1,2c-7,0-11-8-17-11
	c-2-1-3-4-5-6c-2-1-3-2-5-4c-3-3-6,1-8,2c-4,2-7-4-11-6c-3-1-6-2-8,1c-3-3-7-6-11-8c-17-9-33-18-50-28c-2-1-5-1-7-3c-1-1-3,0-4-1
	c-7-4-11-11-14-18c-1.367,0.372,3.182,9.564,0,0c-1,1-2,2-2,3c1,0,2,0,2-3c-17-4-19-24-25-38c-3-6-10-9-16-9c-10,0-18-9-28-12
	c-6-1-11,5-16,8c-1,2-3,3-5,5c-8,9-13,20-24,25c-5,2-11,4-15,8c-7,6-11,15-20,19c-5,2-11,4-16,5c-1,1-2-2-4-3c-10-2-18-6-28-8
	c-3,0-6,1-7,0c-7-8-18-5-26-5c-4,0-7,2-11,3c-2,1-5,3-7,4s-4,3-6,5c-3,4-5,8-8,12c-1,1,0,3-1,4c0,1-1,1-2,2c-1,2-2,4-1,6
	c3,7,2,15,7,22c1,1,2,0,2,3c-0.901-0.613,0-1.827,0,0c-2,0-5,1-5,4c0,6,8,8,5,15c-7,5-16,8-22,14c-4,4-7,7-11,11c-10-1-19,2-28,8
	c-2,1-5,1-7,2s-4,2-5,4c-4,7-6,15-12,21c-18,19-41,42-31,70c1,2,2,4,4,5c2,2,5,1,7,3c1,1,2,4,0,6c-7,5-16,8-20,16s-6,16-12,24
	c-2,3,3,8,0,8c-7,1-16-5-21,3"/>
<path fill="none" stroke="#006051" stroke-width="12" stroke-linecap="round" stroke-linejoin="round" stroke-miterlimit="10" d="
	M1386.576,1325.846c-1.414,0.422-2.826,0.859-4.201,1.402"/>
<path fill="none" stroke="#006051" stroke-width="12" stroke-linecap="round" stroke-linejoin="round" stroke-miterlimit="10" d="
	M1440.431,1299.647c-14.367-0.969-28.367,2.031-40.367,9.031c-1,1-3,4-2.223,6.248"/>
<path fill="none" stroke="#006051" stroke-width="12" stroke-linecap="round" stroke-linejoin="round" stroke-miterlimit="10" d="
	M1680.46,1013.568c-6.396-4.89-13.396-6.89-20.396-5.89c-11-8-26-8-39-6c-1,0-1-2-2-2c-4-2-4,3-6,5h-2c-3-5-7-6-10-1c0,0-1,0-2,0
	c-3-2-3-7-1-9c11-5,20-13,24-24c2-7-2-13-2-20c1-4,6-5,8-8c1-2,2-4,2-6c0-9-10-8-16-10c0-3-1-7,0-9c3-3,3-8,5-11c7-7,11-15,14-23
	c2-3,2-7,0-11c-3-3-7-7-11-4c-18,13-37,24-47,44c-1,2-1,5-2,7c-1,1-2,3-3,5c-2,2-3,6-6,7c-6,2-10,7-12,12c-4,1-10-2-12,2
	c-4,8-3,18-9,24c-6,5-13,8-17,16c-2,3-8,1-11,3c-2,3-4,7-5,11c-2,6,4,7,8,7c5,0,11-1,13-7c-0.072,0.618-0.285,1.144-0.496,1.629
	c0.059-0.673,0.133-1.003,0.496-1.629c-1,1-1,3-1,4s1,2,1,2c9,4,17,10,25,16c2,1,5,3,7,2c1-1,2-4,3-6c4-4,8-8,12-13c1-1,3-2,5-2
	c1,0,2,0,3,0s2,1,3,2c4,4,2,8-3,11c-2,1-3,2-5,2c-1,0-2-2-3-2c-10,2-11,13-15,21c-2,4-6,5-10,7c-1,0-2,1-2,2c1,11-6,27-19,26
	c-2-1-4-2-5-3c-3-8,1-24-12-25c-2,0-4,3-6,3c-7-1-14-4-20,1c0.303-1.206,0.732-2.817,1.729-3.571
	c-0.125,1.277-1.014,2.514-1.729,3.571c1-1,1-3,2-4c1-2,3-2,4-4c3-5,4-11,10-14c4-2,7-6,9-10c-4.33-2.927-2.164,2.72,0,0
	c-4-4-4-14-12-13c-3,1-5,7-8,5c-2-3-8-6-11-3c-1,1-1,3-1,5c-4,10-17,8-26.438,5.393c2.211-2.761,2.934,0.54,0,0
	c4.438-5.393,14.438-11.393,9.438-18.393c-4-4-9,3-13,4c-1,0-2,0-3,0c-4-7-9-17-18-12l-1,2c3,4,4,9,6,13
	c-0.551,0.54-0.898,1.235-1,2c-2-3-6-3-8-2c-7,4-6,13-13,19s-3,17-4,27c-1,5-7,6-11,7c0,4-2,8,1,11c-4.633,3.1-2.881-2.075,0,0
	c-6,4-15,11-9,19c2,2,6,0,7,2c1,5,1,9,4,14c1,4-2,10-7,10c-1-1-2-3-4-4c-4-1-10,3-9,8c1,2,4,3,4,4c-1,2-2,5-4,7c0,1,0,3,0,4
	c5,11,8,24,8,36c1,6,7,14,2,20c0,0-1,0-2,0c-7,4-12,11-11,20c1,4,4,8,6,12c1,6-5,10-7,15c-1,1,0,3,1,4c9,5,21,9,24,20c7,1,8,9,8,15
	c7,6,15,9,23,13c4,2,10,1,15.258,1"/>
<path fill="none" stroke="#006051" stroke-width="12" stroke-linecap="round" stroke-linejoin="round" stroke-miterlimit="10" d="
	M1307.281,6.055c4.67-0.019,9.67-0.037,14.988-0.055"/>
</svg>
